<?xml version="1.0" encoding="utf-8"?>
<svg xmlns="http://www.w3.org/2000/svg" xmlns:xlink="http://www.w3.org/1999/xlink" version= "1.1" width="2000px" height="2000px" viewBox="480 -135 2000 2000">
<g id="layer1" opacity="0.0">
<g style="fill:rgb(0,0,0); fill-opacity:1.0; stroke-linejoin: miter">
<path d="M273.8897,-436.0253L1493.7653,-436.75027L2713.6404,-437.4753L2715.0928,2002.2732Q1495.2173,2003.0002,275.3417,2003.7275Q274.6157,783.8512,273.8897,-436.0253"/>
</g>
</g>
<g id="layer2">
<g style="fill:rgb(0,0,0); fill-opacity:1.0; stroke-linejoin: miter">
<path d="M572.0867,1341.3732L572.0867,1341.3732L1481.105,-12.932739C1482.5555,-15.093964,1485.4835,-15.670013,1487.6448,-14.219391C1489.806,-12.768768,1490.382,-9.840759,1488.9313,-7.679535L1488.9313,-7.679535L579.9131,1346.6266C578.4625,1348.7878,575.53455,1349.3638,573.3733,1347.9131C571.21216,1346.4624,570.636,1343.5345,572.0867,1341.3732 Z"/>
</g>
<g style="fill:rgb(0,0,0); fill-opacity:1.0; stroke-linejoin: miter">
<path d="M2399.9126,1341.3733L2399.9126,1341.3733L1490.8945,-12.9327135C1489.444,-15.093938,1486.516,-15.669988,1484.3547,-14.219365C1482.1935,-12.768743,1481.6176,-9.8407345,1483.0682,-7.6795096L1483.0682,-7.6795096L2392.0864,1346.6267C2393.5369,1348.788,2396.4648,1349.3639,2398.626,1347.9132C2400.787,1346.4625,2401.3633,1343.5347,2399.9126,1341.3733 Z"/>
</g>
<g style="fill:rgb(0,0,0); fill-opacity:1.0; stroke-linejoin: miter">
<path d="M576.05347,1339.2871L576.05347,1339.2871L720.8491,1340.9333C723.4519,1340.963,725.53796,1343.097,725.5083,1345.6998C725.47876,1348.3026,723.3447,1350.3884,720.74207,1350.3589L720.74207,1350.3589L575.9463,1348.7126C573.3435,1348.683,571.25757,1346.549,571.2871,1343.9462C571.3168,1341.3435,573.4507,1339.2576,576.05347,1339.2871 Z"/>
</g>
<g style="fill:rgb(0,0,0); fill-opacity:1.0; stroke-linejoin: miter">
<path d="M2395.9458,1339.2872L2395.9458,1339.2872L2251.1504,1340.9333C2248.5474,1340.963,2246.4614,1343.097,2246.4912,1345.6998C2246.5205,1348.3026,2248.6548,1350.3884,2251.2573,1350.3589L2251.2573,1350.3589L2396.0532,1348.7128C2398.6558,1348.6831,2400.7417,1346.5491,2400.7124,1343.9463C2400.6826,1341.3436,2398.5488,1339.2577,2395.9458,1339.2872 Z"/>
</g>
<g style="fill:rgb(0,0,0); fill-opacity:1.0; stroke-linejoin: miter">
<path d="M716.6793,1343.1427L716.6793,1343.1427L1481.3595,197.05676C1482.8041,194.89136,1485.7303,194.30725,1487.8956,195.75208C1490.0607,197.19666,1490.6449,200.12317,1489.2003,202.28833L1489.2003,202.28833L724.52014,1348.3744C723.0757,1350.5397,720.1492,1351.1237,717.984,1349.6788C715.819,1348.2345,715.2346,1345.308,716.6793,1343.1427 Z"/>
</g>
<g style="fill:rgb(0,0,0); fill-opacity:1.0; stroke-linejoin: miter">
<path d="M2255.3208,1343.1428L2255.3208,1343.1428L1490.6403,197.05687C1489.1957,194.89146,1486.2694,194.30736,1484.1041,195.75218C1481.9391,197.19676,1481.3549,200.12328,1482.7994,202.28844L1482.7994,202.28844L2247.48,1348.3745C2248.9243,1350.5398,2251.8508,1351.1238,2254.016,1349.679C2256.1812,1348.2346,2256.7654,1345.3081,2255.3208,1343.1428 Z"/>
</g>
<g style="fill:rgb(0,0,0); fill-opacity:1.0; stroke-linejoin: miter">
<path d="M2763.0952,1659.8358L2763.0952,1659.8358L2763.0952,1659.8369C2762.9214,1662.4341,2760.675,1664.3984,2758.078,1664.2246C2755.4807,1664.0508,2753.516,1661.8044,2753.69,1659.2073L2753.69,1659.2073L2753.69,1659.2062C2753.864,1656.609,2756.1104,1654.6448,2758.7075,1654.8186C2761.3047,1654.9924,2763.2693,1657.2386,2763.0952,1659.8358 Z"/>
</g>
<g style="fill:rgb(0,0,0); fill-opacity:1.0; stroke-linejoin: miter">
<path d="M208.90454,1659.8357L208.90454,1659.8357L208.90454,1659.8368C209.07837,1662.434,211.3247,1664.3983,213.92188,1664.2245C216.51904,1664.0507,218.48364,1661.8043,218.30981,1659.2072L218.30981,1659.2072L218.30981,1659.206C218.13574,1656.6089,215.8894,1654.6447,213.29224,1654.8185C210.69507,1654.9923,208.73047,1657.2385,208.90454,1659.8357 Z"/>
</g>
<g style="fill:rgb(0,0,0); fill-opacity:1.0; stroke-linejoin: miter">
<path d="M1485.9924,-15.496821L1485.8706,-15.483925C1485.23,-15.346681,1484.606,-15.088168,1484.0308,-14.702047L1484.0308,-14.702055C1481.6029,-13.0724945,1480.9559,-9.783297,1482.5856,-7.3555183L1485.2997,-3.311981L584.29083,1339.0623C584.17114,1339.2406,584.1595,1339.4703,584.2605,1339.6598C584.34406,1339.8165,584.4934,1339.9244,584.66406,1339.9572L584.6582,1339.9572C584.69635,1339.9648,584.73474,1339.9686,584.77277,1339.9686C584.7818,1339.9686,584.79083,1339.9684,584.7998,1339.968L584.80566,1339.968L718.1671,1341.4852L718.1735,1341.4852C718.32654,1341.4852,718.47345,1341.4252,718.5824,1341.3174C718.61084,1341.2892,718.6361,1341.2584,718.65796,1341.2256L718.6573,1341.2256L1481.843,197.37941L1481.8431,197.3794C1482.6392,196.18633,1483.9478,195.54025,1485.284,195.54025C1485.4934,195.54025,1485.7025,195.55615,1485.9094,195.58888C1485.9397,195.59367,1485.9701,195.59602,1486.0002,195.59602C1486.0321,195.59602,1486.0638,195.59341,1486.095,195.58826L1486.0886,195.58826C1486.2969,195.55621,1486.507,195.54036,1486.7157,195.54036C1488.052,195.54036,1489.3606,196.18639,1490.1566,197.3795L1490.1567,197.37952L2253.3428,1341.2266C2253.4526,1341.3912,2253.6357,1341.4854,2253.8264,1341.4854C2253.8386,1341.4854,2253.8506,1341.485,2253.8628,1341.4841L2253.8403,1341.4841L2387.2332,1339.9686C2387.5515,1339.965,2387.8079,1339.7058,2387.8079,1339.3873L2387.8079,1339.3864C2387.8079,1339.271,2387.7734,1339.1582,2387.7092,1339.0624L1486.6998,-3.3119826L1489.414,-7.3555436C1491.0396,-9.777332,1490.3998,-13.056267,1487.9867,-14.689963L1487.9861,-14.689963L1487.9684,-14.702378C1487.3934,-15.088164,1486.769,-15.346823,1486.129,-15.483925L1486.0072,-15.496821 Z"/>
</g>
<g style="fill:rgb(0,0,0); fill-opacity:1.0; stroke-linejoin: miter">
<path d="M1113.7129,985.06915L1113.7129,985.06915L1248.0779,987.28766C1250.6804,987.3306,1252.7554,989.4753,1252.7124,992.0779C1252.6694,994.6804,1250.5247,996.7554,1247.9221,996.7124L1247.9221,996.7124L1113.5574,994.4939C1110.9548,994.4509,1108.8799,992.3063,1108.9229,989.7037C1108.9658,987.10114,1111.1104,985.0261,1113.7129,985.06915 Z"/>
</g>
<g style="fill:rgb(0,0,0); fill-opacity:1.0; stroke-linejoin: miter">
<path d="M1858.2871,985.06915L1858.2871,985.06915L1723.9221,987.28766C1721.3196,987.3306,1719.2446,989.4753,1719.2876,992.0779C1719.3306,994.6804,1721.4753,996.7554,1724.0779,996.7124L1724.0779,996.7124L1858.4426,994.4939C1861.0452,994.4509,1863.1201,992.3063,1863.0771,989.7037C1863.0342,987.10114,1860.8896,985.0261,1858.2871,985.06915 Z"/>
</g>
<g style="fill:rgb(0,0,0); fill-opacity:1.0; stroke-linejoin: miter">
<path d="M1252.0138,989.52997L1252.0138,989.52997L1508.0139,1405.5298C1509.3782,1407.7467,1508.6871,1410.6497,1506.4702,1412.0139C1504.2534,1413.3779,1501.3505,1412.687,1499.9863,1410.4702L1499.9863,1410.4702L1243.9861,994.4701C1242.622,992.2533,1243.313,989.35034,1245.5298,987.98615C1247.7468,986.62195,1250.6497,987.3132,1252.0138,989.52997 Z"/>
</g>
<g style="fill:rgb(0,0,0); fill-opacity:1.0; stroke-linejoin: miter">
<path d="M1719.9862,989.52997L1719.9862,989.52997L1463.9861,1405.5298C1462.6218,1407.7467,1463.3129,1410.6497,1465.5298,1412.0139C1467.7466,1413.3779,1470.6495,1412.687,1472.0137,1410.4702L1472.0137,1410.4702L1728.0139,994.4701C1729.378,992.2533,1728.687,989.35034,1726.4702,987.98615C1724.2532,986.62195,1721.3503,987.3132,1719.9862,989.52997 Z"/>
</g>
<g style="fill:rgb(0,0,0); fill-opacity:1.0; stroke-linejoin: miter">
<path d="M1117.3585,987.1482L1117.3585,987.1482L1489.9745,1561.3071C1491.3915,1563.4905,1490.7703,1566.4092,1488.5868,1567.8262C1486.4033,1569.2432,1483.4846,1568.6218,1482.0676,1566.4385L1482.0676,1566.4385L1109.4517,992.27954C1108.0347,990.0962,1108.6559,987.1775,1110.8394,985.7604C1113.0228,984.3434,1115.9415,984.9647,1117.3585,987.1482 Z"/>
</g>
<g style="fill:rgb(0,0,0); fill-opacity:1.0; stroke-linejoin: miter">
<path d="M1854.6415,987.1482L1854.6415,987.1482L1482.0255,1561.3071C1480.6085,1563.4905,1481.2297,1566.4092,1483.4132,1567.8262C1485.5967,1569.2432,1488.5154,1568.6218,1489.9324,1566.4385L1489.9324,1566.4385L1862.5483,992.27954C1863.9653,990.0962,1863.3441,987.1775,1861.1606,985.7604C1858.9772,984.3434,1856.0585,984.9647,1854.6415,987.1482 Z"/>
</g>
<g style="fill:rgb(0,0,0); fill-opacity:1.0; stroke-linejoin: miter">
<path d="M1490.641,1370.7806L1490.3279,1370.7892Q1487.1359,1371.1162,1484.6692,1373.2583Q1483.1274,1372.4723,1482.1656,1372.5469Q1480.339,1372.5842,1478.75,1373.938Q1476.665,1372.2366,1474.1721,1373.6266Q1473.0471,1374.2177,1472.0392,1375.6195Q1471.2505,1376.9069,1471.4557,1378.5465Q1469.1366,1379.5562,1467.7683,1381.3418Q1466.7755,1383.097,1467.0149,1384.443Q1467.0668,1385.8088,1468.4097,1387.3132Q1468.2471,1387.5492,1474.6621,1390.9789Q1475.5754,1393.8173,1479.2819,1395.7166Q1479.8162,1398.6578,1482.1819,1405.0409Q1485.1305,1411.7563,1486.0386,1412.9934Q1489.8612,1419.2325,1491.3306,1420.8386Q1493.0011,1422.5194,1495.0813,1422.3851Q1497.2236,1422.24,1498.5887,1420.5204Q1498.8678,1420.3096,1499.3839,1418.8842Q1499.6948,1417.6951,1499.3892,1416.4891Q1499.2354,1415.894,1498.9211,1415.3419Q1496.6948,1412.5135,1493.9001,1407.7444Q1492.2861,1404.8429,1491.0337,1401.8203Q1493.0331,1401.5348,1494.2052,1399.9718Q1495.3134,1398.6633,1495.9645,1394.7219Q1500.6998,1393.5303,1500.8776,1389.844Q1500.4752,1385.7778,1496.2784,1383.3738Q1496.0732,1380.923,1495.6943,1380.8463Q1496.2905,1378.0245,1496.111,1376.3358Q1496.1006,1375.5157,1495.4542,1374.1456Q1493.6122,1370.752,1490.641,1370.7806"/>
</g>
<g style="fill:rgb(0,0,0); fill-opacity:1.0; stroke-linejoin: miter">
<path d="M1487.2825,1533.9688L1487.2825,1533.9688Q1486.8064,1534.2983,1486.648,1534.4436L1486.6469,1534.4445Q1486.6481,1534.4434,1486.6511,1534.4406L1486.65,1534.4415Q1487.3752,1533.761,1487.5337,1533.1029L1487.5336,1533.1035Q1487.5258,1533.1359,1487.5148,1533.2075L1487.5148,1533.2074Q1487.4613,1533.5549,1487.48,1533.7029L1487.48,1533.7028Q1487.4797,1533.7003,1487.4791,1533.6967L1487.4791,1533.6967Q1487.5997,1534.4181,1487.8351,1535.4261L1487.8351,1535.4261Q1488.13,1536.6895,1488.4304,1538.3221L1488.4437,1538.398L1488.4438,1538.3987L1488.4305,1538.323Q1488.739,1539.9995,1488.9897,1542.1572L1488.9897,1542.1572Q1489.237,1544.2847,1489.3367,1545.8748L1489.3389,1545.9104L1489.339,1545.914L1489.3369,1545.8783Q1489.4315,1547.3888,1489.49,1548.7654L1489.49,1548.7654Q1489.5461,1550.0852,1489.5897,1551.0284L1489.5896,1551.0281Q1489.6031,1551.3206,1489.6064,1551.5134L1489.6064,1551.5132Q1489.6876,1556.2412,1485.1066,1556.455L1485.1047,1556.4551Q1480.8372,1556.6525,1480.1924,1552.2856L1480.1925,1552.2865Q1480.1699,1552.133,1480.1436,1551.9171L1480.1434,1551.9167Q1480.0437,1551.1007,1479.6917,1548.5425L1479.6917,1548.5425Q1479.3063,1545.7439,1479.1936,1543.4755L1479.1936,1543.4755Q1479.0967,1541.5255,1478.9268,1539.7925L1478.9268,1539.7925Q1478.7562,1538.0531,1478.6116,1537.05L1478.6116,1537.0502Q1478.6085,1537.0288,1478.6068,1537.0189L1478.6067,1537.0184Q1479.303,1541.0381,1483.7314,1540.4001L1483.7316,1540.4Q1486.6488,1539.9796,1487.4044,1537.3965L1487.4045,1537.3962Q1487.2639,1537.877,1487.0826,1539.1506L1487.0826,1539.1506Q1486.9156,1540.3242,1487.0071,1542.3813L1487.0071,1542.3813Q1487.1111,1544.7202,1487.2974,1546.394L1487.2974,1546.394Q1487.4895,1548.119,1487.6643,1549.2336L1487.6643,1549.2336Q1487.8062,1550.1389,1488.0637,1551.002L1488.0637,1551.0018Q1488.0983,1551.1174,1488.1189,1551.167L1488.1189,1551.167Q1487.8987,1550.6394,1487.2158,1550.1204L1487.216,1550.1204Q1483.7609,1547.4938,1481.0536,1551.0548L1481.0533,1551.0552Q1480.3826,1551.9375,1480.2507,1552.9247L1480.2507,1552.9246Q1480.3138,1552.4521,1480.3474,1551.6965L1480.3474,1551.6965Q1480.3845,1550.863,1480.3688,1549.4397L1480.3688,1549.4397Q1480.3534,1548.0598,1480.2888,1547.3014L1480.2888,1547.3008Q1480.2842,1547.2454,1480.2816,1547.2224L1480.2815,1547.2212Q1480.7678,1551.5475,1485.3167,1551.1586L1485.3113,1551.159Q1489.2401,1550.8276,1489.5667,1547.1082L1489.5667,1547.1091Q1489.5627,1547.1531,1489.557,1547.2632L1489.557,1547.263Q1489.4928,1548.4752,1489.3293,1549.7776L1489.3293,1549.7776Q1489.2054,1550.7659,1489.1243,1552.064L1489.1243,1552.064Q1489.0536,1553.1926,1489.1268,1554.2139L1489.1268,1554.2139Q1489.2087,1555.3555,1489.3511,1556.2698L1489.3512,1556.27Q1489.3625,1556.3427,1489.3704,1556.375L1489.3704,1556.3751Q1489.2175,1555.7485,1488.5305,1555.0872L1488.5304,1555.0872Q1485.3628,1552.0382,1482.3298,1555.1895L1482.3302,1555.189Q1481.8813,1555.6553,1481.7168,1556.055L1481.7168,1556.0549Q1481.9299,1555.5371,1482.1024,1554.4921L1482.1024,1554.4921Q1482.3428,1553.0358,1482.4941,1551.698L1482.5085,1551.583L1482.5088,1551.5819L1482.4943,1551.697Q1482.6438,1550.3743,1482.7224,1548.9628L1482.7224,1548.9628Q1482.8019,1547.5367,1482.8052,1546.8396L1482.805,1546.8411Q1482.8052,1546.8247,1482.805,1546.8174L1482.805,1546.8175Q1482.8634,1551.1426,1487.453,1551.1636L1487.4536,1551.1636Q1491.1199,1551.1797,1491.9402,1547.8704L1491.9401,1547.871Q1491.938,1547.8799,1491.934,1547.8973L1491.9341,1547.8967Q1491.7576,1548.6743,1491.593,1549.4487L1491.593,1549.4487Q1491.4463,1550.1401,1491.2648,1551.27L1491.2648,1551.27Q1491.0878,1552.3726,1491.0032,1553.239L1491.0032,1553.239Q1490.9285,1554.0028,1490.9331,1554.5566L1490.9331,1554.5566Q1490.93,1554.1925,1490.6731,1553.7151L1490.6729,1553.7148Q1488.6047,1549.873,1484.7139,1551.9678L1484.7141,1551.9675Q1483.8967,1552.4075,1483.5085,1552.9817L1483.5085,1552.9817Q1483.8551,1552.4691,1484.0667,1551.9796L1484.0667,1551.9796Q1484.439,1551.1183,1484.8348,1550.1633L1484.8348,1550.1633Q1485.2137,1549.2491,1485.8655,1547.5132L1485.8655,1547.5132Q1486.4984,1545.8269,1486.8164,1544.8088L1486.8164,1544.8088Q1487.2039,1543.5681,1487.8397,1541.8022L1487.8397,1541.8022Q1488.4812,1540.0204,1489.3931,1537.8389L1489.3931,1537.8389Q1490.2546,1535.7776,1490.779,1534.5088L1490.7808,1534.5046L1490.7827,1534.5L1490.7809,1534.5044Q1491.2765,1533.3054,1491.4432,1532.8611C1492.3577,1530.4241,1495.0746,1529.1897,1497.5116,1530.1042C1499.9486,1531.0187,1501.1829,1533.7356,1500.2684,1536.1726L1500.2684,1536.1726Q1500.0476,1536.7611,1499.4921,1538.105L1499.4904,1538.1094L1499.4885,1538.1139L1499.4902,1538.1096Q1498.9604,1539.3911,1498.09,1541.4739L1498.09,1541.4739Q1497.2698,1543.4364,1496.7084,1544.9954L1496.7084,1544.9954Q1496.1414,1546.5703,1495.814,1547.6188L1495.814,1547.6188Q1495.4169,1548.8899,1494.6902,1550.8259L1494.6902,1550.8259Q1493.982,1552.7123,1493.5425,1553.7727L1493.5425,1553.7727Q1493.1198,1554.7925,1492.719,1555.7195L1492.719,1555.7195Q1492.1577,1557.0184,1491.3173,1558.2614L1491.3171,1558.2615Q1490.4064,1559.6085,1489.1816,1560.2677L1489.182,1560.2675Q1484.7732,1562.641,1482.3733,1558.1831L1482.373,1558.1829Q1481.5236,1556.6046,1481.5073,1554.6345L1481.5073,1554.6345Q1481.4987,1553.5824,1481.6218,1552.3223L1481.6218,1552.3223Q1481.7349,1551.1648,1481.958,1549.7755L1481.958,1549.7755Q1482.1768,1548.4137,1482.3727,1547.4907L1482.3727,1547.4907Q1482.551,1546.6505,1482.742,1545.8096L1482.7422,1545.8088Q1482.767,1545.6997,1482.7913,1545.6018L1482.7911,1545.6024Q1483.7533,1541.721,1487.4954,1541.7375L1487.4961,1541.7375Q1492.1637,1541.7588,1492.2302,1546.6903L1492.2302,1546.6904Q1492.2314,1546.7825,1492.231,1546.8816L1492.2311,1546.883Q1492.2268,1547.821,1492.1339,1549.4868L1492.1339,1549.4868Q1492.0404,1551.166,1491.8606,1552.7561L1491.8462,1552.8713L1491.8461,1552.8723L1491.8605,1552.7573Q1491.6823,1554.3335,1491.4026,1556.0273L1491.4026,1556.0273Q1491.0552,1558.1321,1490.4332,1559.6431L1490.4332,1559.643Q1489.9153,1560.9011,1489.1208,1561.7263L1489.1213,1561.726Q1485.6174,1565.3663,1481.9937,1561.8784L1481.9935,1561.8783Q1480.7086,1560.6414,1480.2129,1558.6088L1480.2129,1558.6089Q1480.1101,1558.1875,1480.0374,1557.7201L1480.0374,1557.7202Q1479.835,1556.4202,1479.725,1554.8882L1479.725,1554.8882Q1479.6064,1553.2356,1479.7166,1551.4753L1479.7166,1551.4753Q1479.8162,1549.8843,1479.9767,1548.6044L1479.9767,1548.6044Q1480.0979,1547.6384,1480.144,1546.7645L1480.144,1546.7644Q1480.1587,1546.4893,1480.1769,1546.2826L1480.1768,1546.2836Q1480.5441,1542.1017,1484.519,1541.7664L1484.5138,1541.7668Q1489.1095,1541.3739,1489.6484,1546.1682L1489.6483,1546.167Q1489.6654,1546.3186,1489.6812,1546.5032L1489.681,1546.5026Q1489.7749,1547.6067,1489.7942,1549.3351L1489.7942,1549.3351Q1489.813,1551.02,1489.7642,1552.1152L1489.7642,1552.1152Q1489.712,1553.2883,1489.5936,1554.1737L1489.5938,1554.1736Q1489.3954,1555.657,1488.5576,1556.7592L1488.5574,1556.7595Q1485.56,1560.7021,1481.5112,1557.6243L1481.5114,1557.6243Q1480.1763,1556.6094,1479.4202,1554.7975L1479.4202,1554.7976Q1479.2078,1554.2888,1479.0312,1553.6973L1479.0312,1553.6973Q1478.5923,1552.2261,1478.352,1550.6937L1478.352,1550.6937Q1478.1445,1549.3706,1477.9292,1547.4373L1477.9292,1547.4373Q1477.7083,1545.4525,1477.5903,1542.7998L1477.5903,1542.7998Q1477.46,1539.8652,1477.7507,1537.8226L1477.7507,1537.8226Q1478.0271,1535.8799,1478.3574,1534.7505L1478.3574,1534.7502Q1479.304,1531.5146,1482.3871,1531.0703L1482.3873,1531.0703Q1487.0271,1530.4019,1487.8945,1535.4097L1487.8944,1535.4093Q1487.919,1535.5508,1487.9412,1535.7047L1487.9412,1535.7048Q1488.1165,1536.9202,1488.3079,1538.8726L1488.3079,1538.8726Q1488.4999,1540.8312,1488.6079,1543.0077L1488.6079,1543.0077Q1488.7003,1544.8657,1489.0295,1547.2571L1489.0295,1547.2571Q1489.3918,1549.8887,1489.4999,1550.7738L1489.4998,1550.7734Q1489.5117,1550.8704,1489.5172,1550.908L1489.5173,1550.9089Q1488.9171,1546.8425,1484.6691,1547.0391L1484.6672,1547.0392Q1480.106,1547.252,1480.1819,1551.6748L1480.1819,1551.6747Q1480.1809,1551.6198,1480.1737,1551.4636L1480.1737,1551.4634Q1480.1295,1550.5068,1480.0725,1549.1654L1480.0725,1549.1654Q1480.0181,1547.884,1479.9293,1546.4679L1479.9272,1546.4321L1479.927,1546.4287L1479.9291,1546.4644Q1479.8451,1545.1241,1479.6267,1543.2454L1479.6267,1543.2454Q1479.4121,1541.3977,1479.1602,1540.0288L1479.1469,1539.9531L1479.1467,1539.9524L1479.16,1540.0281Q1478.9,1538.6149,1478.6558,1537.569L1478.6558,1537.569Q1478.352,1536.2678,1478.1821,1535.2511L1478.1821,1535.2511Q1478.1517,1535.0697,1478.1284,1534.8845L1478.1283,1534.8843Q1477.9442,1533.4269,1478.1982,1531.775L1478.1982,1531.7749Q1478.2694,1531.312,1478.3699,1530.8953L1478.3698,1530.8958Q1478.8707,1528.8153,1480.1995,1527.5684L1480.1985,1527.5693Q1480.2405,1527.5299,1480.2823,1527.4915L1480.2814,1527.4924Q1480.9136,1526.9135,1481.9172,1526.2186C1484.0573,1524.737,1486.9933,1525.271,1488.4749,1527.4111C1489.9564,1529.5511,1489.4226,1532.4872,1487.2825,1533.9688 Z"/>
</g>
<g style="fill:rgb(0,0,0); fill-opacity:1.0; stroke-linejoin: miter">
<path d="M1723.9421,999.0279L1723.9409,999.02563Q1723.9402,999.0242,1723.9401,999.02405L1723.9402,999.0243Q1726.0486,1002.8778,1730.1383,1000.6817L1730.1368,1000.6825Q1733.3948,998.9345,1732.5042,995.597L1732.504,995.59644Q1732.5066,995.6058,1732.5115,995.62286L1732.5116,995.6233Q1732.5586,995.7864,1732.5938,995.853L1732.594,995.8535Q1732.5928,995.8512,1732.5908,995.84784L1732.5911,995.84827Q1731.1799,993.39624,1728.729,993.94025L1729.2229,993.8579L1729.2231,993.85785L1728.729,993.94025Q1728.9478,993.89166,1729.0808,993.8147L1729.0809,993.81464Q1729.3289,993.6712,1729.459,993.5991L1729.4597,993.59875Q1733.571,991.32324,1735.8893,995.3235L1735.9028,995.34705Q1738.1466,999.21857,1734.2975,1001.6947L1734.2975,1001.6947Q1734.1603,1001.78296,1733.8678,1001.963L1734.1023,1001.80884Q1734.102,1001.80896,1734.1019,1001.8091L1733.8672,1001.96344Q1732.8033,1002.6184,1731.4415,1003.2329L1731.4415,1003.2329Q1731.031,1003.4182,1730.8821,1003.5294L1730.8821,1003.5294Q1730.8933,1003.52106,1730.9141,1003.5029L1730.9142,1003.5028Q1730.8892,1003.5247,1730.8784,1003.5344L1730.8784,1003.53436Q1734.1328,1000.573,1731.1093,997.11005L1731.1107,997.1117Q1728.4938,994.1116,1725.2739,996.1044L1725.2732,996.1048Q1725.3112,996.0813,1725.4053,996.0187L1725.405,996.0188Q1726.3329,995.40094,1727.0906,995.03784L1727.0912,995.0375Q1727.3176,994.92896,1727.5377,994.83856C1729.9452,993.8491,1732.699,994.9987,1733.6885,997.40625C1734.678,999.8138,1733.5283,1002.56757,1731.1208,1003.557L1731.1208,1003.557Q1731.1494,1003.5453,1731.1637,1003.53845L1731.1643,1003.5381Q1731.0051,1003.6144,1730.6293,1003.8646L1730.6289,1003.86487Q1730.405,1004.0139,1730.2352,1004.119L1730.2345,1004.1195Q1726.6503,1006.33777,1724.0073,1003.30786L1724.0088,1003.3096Q1720.959,999.81647,1724.5344,996.56287L1724.5344,996.5628Q1724.6177,996.487,1724.7163,996.4009L1724.7166,996.40076Q1724.9666,996.1826,1725.2424,995.9766L1725.2424,995.9766Q1726.2161,995.24963,1727.5645,994.6412L1727.5645,994.6412Q1728.3757,994.2751,1728.9255,993.9366L1728.6908,994.09094Q1728.691,994.0908,1728.6912,994.0907L1728.9257,993.9365Q1729.1362,993.8069,1729.1971,993.7677L1729.1971,993.7677Q1725.4792,996.15936,1727.7203,1000.0264L1727.7339,1000.0499Q1730.0496,1004.0457,1734.0243,1001.8458L1734.0249,1001.84546Q1733.9731,1001.8741,1733.8014,1001.9735L1733.8015,1001.9735Q1732.4098,1002.7787,1730.7717,1003.14233L1730.2777,1003.22473L1730.2775,1003.22473L1730.7714,1003.14233Q1726.4635,1004.0985,1724.4214,1000.55L1724.4216,1000.5504Q1724.3367,1000.40314,1724.2563,1000.25073L1724.2566,1000.25116Q1723.7681,999.3251,1723.4526,998.2283L1723.4528,998.22876Q1723.4222,998.12244,1723.397,998.02747L1723.3967,998.027Q1722.3639,994.1559,1725.6804,992.37646L1725.679,992.37726Q1729.8289,990.1488,1732.2095,994.5L1732.2096,994.5003Q1732.229,994.53564,1732.2487,994.5723C1733.4785,996.86346,1732.6172,999.7206,1730.3237,1000.9516C1728.0303,1002.1826,1725.1731,1001.32135,1723.9421,999.0279 Z"/>
</g>
<g style="fill:rgb(0,0,0); fill-opacity:1.0; stroke-linejoin: miter">
<path d="M1853.849,994.8263L1853.849,994.8263Q1853.2905,995.47345,1852.5577,996.3788L1852.5577,996.3788Q1851.8623,997.2378,1850.9973,998.4405L1851.0051,998.42957L1851.0046,998.43024L1850.9968,998.44104Q1850.2019,999.54626,1849.7662,1000.3146L1849.7662,1000.31445L1849.2051,1001.30396C1847.9211,1003.5682,1845.0447,1004.3628,1842.7805,1003.07874C1840.5164,1001.79474,1839.7217,998.91833,1841.0057,996.6542L1841.0057,996.6542L1841.5669,995.6647L1841.5669,995.66455Q1842.2532,994.45447,1843.3445,992.93713L1843.3368,992.948L1843.3373,992.94727L1843.3452,992.9363Q1844.3671,991.5156,1845.2312,990.44806L1845.2312,990.44806Q1846.0579,989.4269,1846.7122,988.6686C1848.4126,986.6979,1851.3887,986.47864,1853.3594,988.1791C1855.3302,989.8794,1855.5493,992.8555,1853.849,994.8263 Z"/>
</g>
<g style="fill:rgb(0,0,0); fill-opacity:1.0; stroke-linejoin: miter">
<path d="M1119.2103,986.92566C1117.8673,986.92566,1116.5334,987.49664,1115.6011,988.605Q1115.0826,989.2214,1114.6902,989.8609L1114.6901,989.8612Q1111.6749,994.7759,1115.5178,999.0743L1115.5178,999.0743Q1115.9923,999.6049,1116.5745,1000.0947L1116.5759,1000.09595Q1116.6947,1000.1958,1116.8175,1000.2936L1116.8174,1000.2936Q1117.7028,1001.00446,1118.7528,1001.5279L1118.8562,1001.5779L1120.3689,1002.2864L1120.3577,1002.2864Q1122.6461,1003.5449,1123.49,1003.9144L1123.4913,1003.915Q1123.86,1004.07623,1124.206,1004.1827L1124.1948,1004.1827Q1126.9484,1005.18164,1129.0217,1005.2118L1129.0215,1005.2118Q1129.0896,1005.21277,1129.1573,1005.21277Q1129.6927,1005.21277,1130.1982,1005.15063C1132.7817,1004.83295,1134.6184,1002.48114,1134.3008,999.89764C1134.0072,997.50946,1131.9753,995.75934,1129.629,995.75934C1129.4634,995.75934,1129.2961,995.76807,1129.1279,995.7859L1129.1279,995.7859Q1128.5955,995.7644,1127.2749,995.27216C1127.2574,995.2657,1127.24,995.2593,1127.2225,995.253L1127.2113,995.253Q1126.6682,995.00287,1124.7092,993.922L1124.7094,993.922C1124.6184,993.8718,1124.5258,993.82465,1124.4316,993.7806L1123.5963,993.3893L1123.5851,993.3893C1124.3201,991.55237,1123.8385,989.37537,1122.2418,988.03217C1121.3582,987.28876,1120.2814,986.92566,1119.2103,986.92566 Z"/>
</g>
<g style="fill:rgb(0,0,0); fill-opacity:1.0; stroke-linejoin: miter">
<path d="M1245.1912,992.03534Q1245.5713,992.2398,1245.8806,992.47925L1245.8682,992.47925Q1246.3073,992.86163,1246.6882,993.39496L1246.6882,993.39496C1246.289,992.83594,1245.7732,992.3725,1245.1787,992.03534 Z M1244.0718,1000.976L1244.1572,1000.9768Q1244.1544,1000.9768,1244.1516,1000.9768Q1244.1049,1000.9768,1244.0593,1000.976 Z M1244.1836,1003.4516L1244.1836,1003.4516C1244.2355,1003.5932,1244.2943,1003.7324,1244.3597,1003.8688L1244.3484,1003.8688Q1244.249,1003.6681,1244.1711,1003.4516 Z M1242.506,990.5746C1240.2466,990.5746,1238.2512,992.2042,1237.8639,994.5064Q1237.1691,998.6357,1240.7338,1000.34656L1240.7213,1000.34656Q1241.6046,1000.7932,1242.7401,1000.9088L1242.7277,1000.9088L1243.227,1002.182C1243.3002,1002.36847,1243.3851,1002.5502,1243.4816,1002.72595Q1243.6257,1002.9891,1243.7336,1003.171L1243.7354,1003.1739Q1244.0677,1003.73364,1244.4408,1004.13464L1244.4373,1004.13464Q1244.4779,1004.1816,1244.5138,1004.2232L1244.5013,1004.2232C1245.1711,1006.09534,1246.9565,1007.3437,1248.9323,1007.3437C1249.2301,1007.3437,1249.5322,1007.3153,1249.8354,1007.2565C1252.3907,1006.7605,1254.0602,1004.287,1253.5642,1001.73175Q1253.4197,1000.98694,1253.0468,1000.17474L1253.0461,1000.1736Q1252.9371,999.9362,1252.8044,999.6821L1252.8022,999.6821Q1252.5557,999.19257,1252.1918,998.7225L1252.1918,998.7225Q1252.0474,998.5359,1251.8359,998.2841L1251.8234,998.2841L1251.0052,996.19836L1251.0048,996.19836Q1250.7826,995.63055,1250.4,995.05255L1250.3997,995.052Q1250.2694,994.8552,1250.0974,994.61743L1250.0973,994.61725C1250.0322,994.5273,1249.9642,994.44,1249.893,994.35486Q1248.4762,992.66156,1246.2927,991.9429C1246.2335,991.9234,1246.174,991.905,1246.114,991.88794Q1245.8597,991.8153,1245.6523,991.7624L1245.6399,991.7624C1245.0007,991.1942,1244.1992,990.79297,1243.2936,990.6406C1243.0289,990.59607,1242.7657,990.5746,1242.506,990.5746 Z"/>
</g>
<g style="fill:rgb(0,0,0); fill-opacity:1.0; stroke-linejoin: miter">
<path d="M1730.9967,993.2829Q1731.3716,993.7091,1731.7134,994.26984L1731.6969,994.26984Q1731.0251,993.7279,1730.2098,993.5812L1730.1926,993.5812Q1730.5966,993.3977,1730.9794,993.2829 Z M1849.1952,994.9623L1843.8522,1003.1961C1843.5394,1003.10284,1843.2324,1002.97314,1842.9358,1002.80493C1840.823,1001.60675,1840.0812,998.9225,1841.2795,996.80945L1841.8407,995.81995C1841.8407,995.8199,1841.8407,995.8199,1841.8408,995.8198L1841.8407,995.8198Q1842.0441,995.4613,1842.2837,995.0758L1842.2653,995.0758L1849.1952,994.9623 Z M1238.1819,996.8664L1245.1626,996.98254L1251.0247,1006.5094L1251.0122,1006.5094C1250.634,1006.7115,1250.2192,1006.8614,1249.7755,1006.94745C1249.4933,1007.0022,1249.209,1007.02893,1248.9323,1007.02893C1247.1299,1007.02893,1245.4966,1005.91473,1244.8408,1004.23334L1244.8284,1004.23334C1244.8309,1004.15576,1244.8047,1004.0785,1244.7522,1004.0177Q1244.7158,1003.97546,1244.673,1003.92706L1244.6775,1003.92706C1244.6754,1003.92474,1244.6733,1003.9225,1244.6713,1003.9202Q1244.321,1003.5438,1244.006,1003.0132L1244.006,1003.0131L1244.0032,1003.00824Q1243.8973,1002.8299,1243.7576,1002.5747L1243.7496,1002.561L1243.7482,1002.5586L1243.7487,1002.5586C1243.6622,1002.39905,1243.5862,1002.23566,1243.5201,1002.06714L1243.52,1002.067L1243.0668,1000.9125L1243.0548,1000.9125C1243.0566,1000.7496,1242.9341,1000.6122,1242.772,1000.5957Q1241.7545,1000.4921,1240.9563,1000.1122L1240.944,1000.1122C1240.9221,1000.09265,1240.8973,1000.0759,1240.87,1000.0628Q1238.6042,998.97534,1238.1696,996.8664 Z M1499.9299,1392.9939L1507.7458,1405.6947C1509.0189,1407.7634,1508.3739,1410.4729,1506.3053,1411.7458C1505.5858,1412.1886,1504.791,1412.3989,1504.0045,1412.3989C1502.5271,1412.3989,1501.0848,1411.6548,1500.2544,1410.3053L1494.2098,1400.484L1494.195,1400.484Q1494.3247,1400.3358,1494.446,1400.1752L1494.4454,1400.1752Q1495.5797,1398.8359,1496.2404,1394.9795L1496.2253,1394.9795Q1498.6685,1394.3281,1499.9149,1392.9939 Z M1850.2827,986.7196C1848.8723,986.7196,1847.4683,987.31055,1846.4739,988.46295Q1845.816,989.2254,1844.9866,990.25Q1844.1172,991.3241,1843.0897,992.7525L1843.0898,992.7525C1843.087,992.7561,1843.0842,992.75977,1843.0815,992.76355Q1842.4373,993.6599,1841.9325,994.452L1841.9141,994.452L1736.6666,996.19073Q1736.4717,995.701,1736.1757,995.1901L1736.1621,995.16656L1736.1616,995.16565Q1734.593,992.4589,1732.2054,992.4589Q1731.7155,992.4589,1731.1954,992.57574Q1730.106,991.49396,1728.7543,991.3358L1728.7177,991.3337L1728.7003,991.3337C1728.6127,991.3337,1728.529,991.37024,1728.4695,991.43445C1728.4099,991.49866,1728.3799,991.58484,1728.3865,991.6722C1728.4524,992.54456,1728.2593,993.4451,1727.7783,994.2527C1727.716,994.35736,1727.7203,994.4869,1727.7854,994.58624L1727.7665,994.58624C1727.7616,994.6083,1727.759,994.63116,1727.759,994.6546L1727.7604,994.6546C1727.7604,994.70874,1727.7743,994.76324,1727.803,994.8125C1727.8572,994.9058,1727.9539,994.96265,1728.0573,994.9685L1728.0399,994.9685C1728.0511,994.9697,1728.0625,994.97034,1728.0737,994.97034C1728.1039,994.97034,1728.1338,994.966,1728.1627,994.9575L1728.1592,994.9575C1728.5468,994.85004,1728.9396,994.7983,1729.3274,994.7983C1730.4305,994.7983,1731.4973,995.2161,1732.3068,995.9602C1732.3469,995.99713,1732.3949,996.02216,1732.4458,996.0344L1732.4286,996.0344C1732.4532,996.13,1732.5205,996.206,1732.607,996.24396L1732.5897,996.24396C1732.7297,996.39825,1732.856,996.5591,1732.9753,996.7373C1733.0349,996.8262,1733.1339,996.8769,1733.2369,996.8769C1733.2456,996.8769,1733.2545,996.8765,1733.2633,996.8758L1733.246,996.8758L1736.2073,996.8278L1736.2246,996.8278Q1737.0577,999.5447,1734.1272,1001.43Q1734.0542,1001.477,1733.9481,1001.54407L1733.932,1001.54407C1733.931,1001.54474,1733.9299,1001.5454,1733.929,1001.5461L1733.6942,1001.70044L1733.694,1001.70044Q1733.0145,1002.1181,1732.2109,1002.5205C1732.1536,1002.54926,1732.1082,1002.5937,1732.0782,1002.64655L1732.0609,1002.64655C1731.7461,1002.89557,1731.3912,1003.1057,1731.0006,1003.2671C1730.9636,1003.28235,1730.9309,1003.3041,1730.9033,1003.3304L1730.886,1003.3304Q1730.7195,1003.4264,1730.4548,1003.6026L1730.4547,1003.6027L1730.4543,1003.60297L1730.4542,1003.60297Q1730.2343,1003.74945,1730.0696,1003.8514L1730.0607,1003.8571L1730.0603,1003.8571Q1728.6263,1004.7424,1727.3728,1004.7424Q1725.6813,1004.7424,1724.253,1003.1117L1724.2535,1003.1117L1724.2449,1003.1013Q1723.8032,1002.5955,1723.5087,1002.0992C1723.4552,1002.0091,1723.3605,1001.9515,1723.2559,1001.94556L1723.2386,1001.9446C1723.2327,1001.9442,1723.2267,1001.9441,1723.2208,1001.9441C1723.1119,1001.9441,1723.0103,1002.0004,1722.9528,1002.0939L1494.6383,1373.1057C1494.5767,1373.2059,1494.5759,1373.3323,1494.6367,1373.4331C1494.662,1373.475,1494.6962,1373.5096,1494.7358,1373.5352L1494.7208,1373.5352Q1494.9573,1373.8899,1495.1776,1374.2958L1495.177,1374.2958Q1495.7867,1375.5928,1495.7963,1376.3398L1495.798,1376.3691Q1495.9723,1378.0082,1495.3864,1380.7812C1495.369,1380.8634,1495.3851,1380.949,1495.4313,1381.0192C1495.4701,1381.0781,1495.5272,1381.1221,1495.5935,1381.1445L1495.5786,1381.1445Q1495.8024,1381.4597,1495.9648,1383.4C1495.9735,1383.5032,1496.0321,1383.5955,1496.122,1383.6469Q1500.178,1385.9702,1500.5643,1389.875L1500.5608,1389.875Q1500.4971,1391.0002,1499.978,1391.8708L1491.802,1378.5859L1491.8026,1378.5859C1491.7623,1378.5199,1491.698,1378.4692,1491.6196,1378.447C1491.5912,1378.439,1491.5624,1378.435,1491.5339,1378.435C1491.4266,1378.435,1491.3242,1378.4901,1491.2659,1378.585L1485.7322,1387.578C1485.6699,1387.6792,1485.6699,1387.8066,1485.7322,1387.9078L1493.4176,1400.3976L1493.4027,1400.3976Q1492.4264,1401.3035,1490.9891,1401.5087C1490.8928,1401.5225,1490.8083,1401.58,1490.7603,1401.6644C1490.7122,1401.7489,1490.7057,1401.851,1490.7522,1401.961L1490.7513,1401.961Q1492.0074,1404.9895,1493.6251,1407.8973L1493.6285,1407.9036Q1496.434,1412.6909,1498.6738,1415.5366L1498.6696,1415.5366Q1498.9465,1416.0344,1499.0845,1416.5679Q1499.3696,1417.6943,1499.0793,1418.8046L1499.078,1418.8046Q1498.6045,1420.108,1498.3988,1420.2694L1498.3995,1420.2694L1498.3662,1420.2979L1498.3657,1420.2983L1498.3418,1420.3252Q1497.0634,1421.9353,1495.06,1422.071L1495.0612,1422.071Q1494.9167,1422.0803,1494.7758,1422.0803Q1493.0144,1422.0803,1491.5634,1420.6262L1491.5627,1420.6262Q1490.1141,1419.0428,1486.307,1412.829L1486.2924,1412.8071Q1485.4055,1411.599,1482.4756,1404.9268L1482.4752,1404.9268L1482.4735,1404.9224L1482.4736,1404.9224Q1480.8461,1400.53,1480.0903,1397.7804C1480.0548,1397.6511,1479.9414,1397.5585,1479.8076,1397.5497L1479.7928,1397.5487C1479.7859,1397.5482,1479.7789,1397.548,1479.7721,1397.548C1479.6633,1397.548,1479.5615,1397.6045,1479.504,1397.6979L1471.7456,1410.3053C1470.9149,1411.655,1469.4731,1412.3989,1467.9955,1412.3989C1467.2086,1412.3989,1466.4142,1412.1886,1465.6947,1411.7458C1463.6261,1410.4729,1462.9811,1407.7634,1464.2542,1405.6947L1473.6328,1390.4554L1473.6469,1390.4554C1473.6654,1390.4257,1473.6791,1390.3923,1473.6869,1390.3566C1473.7168,1390.2196,1473.6523,1390.0793,1473.529,1390.0127Q1469.2601,1387.7048,1468.729,1387.2339L1468.7144,1387.2339C1468.702,1387.1868,1468.6787,1387.142,1468.6445,1387.1036Q1467.3771,1385.6837,1467.3295,1384.431L1467.3248,1384.3878Q1467.1077,1383.167,1468.0217,1381.5332L1468.0182,1381.5332Q1469.3369,1379.8121,1471.5813,1378.8351C1471.7094,1378.7794,1471.7854,1378.646,1471.7681,1378.5074Q1471.5781,1376.9895,1472.2959,1375.8032L1472.2948,1375.8032Q1473.2593,1374.4618,1474.3185,1373.9053L1474.3254,1373.9015Q1475.3749,1373.3163,1476.3314,1373.3163Q1476.6222,1373.3163,1476.9056,1373.3712C1476.9255,1373.375,1476.9456,1373.377,1476.9656,1373.377C1477.038,1373.377,1477.1089,1373.3519,1477.1658,1373.305C1477.2383,1373.2452,1477.2802,1373.1562,1477.2802,1373.0623L1477.2802,1373.0613C1477.2802,1373.003,1477.264,1372.9459,1477.2335,1372.8964L1251.8881,1006.71124L1251.8756,1006.71124C1253.4165,1005.6005,1254.259,1003.6599,1253.8732,1001.6718Q1253.7214,1000.8899,1253.3328,1000.0434L1253.3253,1000.02814L1253.3247,1000.027L1253.3251,1000.027Q1253.216,999.7902,1253.0851,999.5405L1253.0834,999.5405Q1252.8231,999.0239,1252.4407,998.5298L1252.4407,998.52985Q1252.3042,998.35364,1252.1107,998.12286L1252.0981,998.12286L1251.2982,996.08435L1251.2867,996.0586L1251.2863,996.0576L1251.2876,996.0576Q1251.2056,995.8509,1251.1045,995.64606C1251.0553,995.5464,1250.9573,995.4801,1250.8466,995.4715L1250.834,995.4705C1250.8258,995.4699,1250.8177,995.4696,1250.8097,995.4696C1250.7422,995.4696,1250.6763,995.4912,1250.6218,995.5317C1249.8888,996.07666,1248.9819,996.3983,1248.0015,996.3983C1247.9816,996.3983,1247.9474,996.398,1247.9272,996.3977L1245.518,996.3588L1244.2542,994.3051C1243.5961,993.2358,1243.4503,991.99567,1243.7491,990.8714L1243.7367,990.8714C1243.7745,990.823,1243.7985,990.76324,1243.8027,990.69806C1243.8129,990.54193,1243.7068,990.402,1243.5537,990.3696C1243.4869,990.3555,1243.4137,990.3417,1243.346,990.33026L1243.3458,990.33026C1243.0635,990.2827,1242.7834,990.2598,1242.506,990.2598C1240.0955,990.2598,1237.9667,991.9979,1237.5535,994.45416Q1237.3948,995.3972,1237.4501,996.22473L1126.1578,994.3882L1126.1526,994.3881L1126.1412,994.3881C1125.997,994.3881,1125.8711,994.4863,1125.8359,994.6263C1125.8008,994.76624,1125.8654,994.9122,1125.9926,994.98035Q1126.7622,995.39264,1127.0789,995.5395C1127.1095,995.5537,1127.142,995.5628,1127.1753,995.56665L1127.164,995.56665C1127.1644,995.56683,1127.1649,995.567,1127.1654,995.5672L1127.1653,995.5672Q1128.5327,996.0769,1129.1152,996.1004L1129.1611,996.0989C1129.3179,996.0823,1129.4747,996.0741,1129.629,996.0741C1131.8184,996.0741,1133.7145,997.7075,1133.9884,999.93604C1134.2848,1002.3469,1132.5708,1004.5418,1130.1598,1004.83826Q1129.6737,1004.898,1129.1573,1004.898Q1129.1298,1004.898,1129.1031,1004.89844C1129.096,1004.89795,1129.0889,1004.8977,1129.0818,1004.8977C1128.9719,1004.8977,1128.8693,1004.9552,1128.8121,1005.0504C1128.7502,1005.1535,1128.7524,1005.28296,1128.8179,1005.38385L1477.3035,1542.3617C1477.3625,1542.4528,1477.4629,1542.505,1477.5675,1542.505C1477.5972,1542.505,1477.6273,1542.5009,1477.6569,1542.4921C1477.7905,1542.4525,1477.8822,1542.3297,1477.8822,1542.1903L1477.8822,1542.1893L1477.8821,1542.1798Q1477.8062,1539.6672,1478.0624,1537.867Q1478.253,1536.5264,1478.4686,1535.5824L1478.4526,1535.5824C1478.5078,1535.5123,1478.5306,1535.4221,1478.5155,1535.3342Q1478.5052,1535.2749,1478.4926,1535.199L1478.4926,1535.1991Q1478.4631,1535.0233,1478.4407,1534.8452L1478.4406,1534.8448Q1478.2621,1533.4314,1478.5094,1531.8229L1478.513,1531.775L1478.513,1531.7749L1478.5168,1531.7749Q1478.5839,1531.3505,1478.6757,1530.9706L1478.6844,1530.8967L1478.6844,1530.8958L1478.6938,1530.8958Q1479.178,1528.9592,1480.4137,1527.7998C1480.4141,1527.7994,1480.4144,1527.7992,1480.4147,1527.7988L1480.4138,1527.7988Q1480.451,1527.7639,1480.4913,1527.7278C1480.4926,1527.7267,1480.4937,1527.7257,1480.4949,1527.7246L1480.4939,1527.7246Q1481.1102,1527.1602,1482.0964,1526.4774C1482.861,1525.9481,1483.7316,1525.695,1484.5956,1525.695C1485.9912,1525.695,1487.3623,1526.357,1488.2161,1527.5903C1489.5538,1529.5227,1489.131,1532.1504,1487.2928,1533.5721C1487.1864,1533.6545,1487.144,1533.7955,1487.1876,1533.923C1487.1974,1533.9515,1487.2109,1533.978,1487.2277,1534.0018L1487.2129,1534.0018Q1487.224,1534.0638,1487.2351,1534.1229C1487.2465,1534.1835,1487.2745,1534.2369,1487.3138,1534.2793L1487.2991,1534.2793Q1487.4733,1534.8217,1487.5844,1535.4642L1487.5845,1535.4642Q1487.6083,1535.6013,1487.6296,1535.7498Q1487.6741,1536.0585,1487.7205,1536.4215C1487.7275,1536.4774,1487.749,1536.5282,1487.7808,1536.5706L1487.7659,1536.5706Q1487.942,1537.408,1488.1208,1538.3792L1488.1335,1538.4526C1488.1394,1538.4866,1488.1506,1538.5186,1488.1663,1538.5477L1488.1514,1538.5477Q1488.2509,1539.1007,1488.3434,1539.7012C1488.3672,1539.8557,1488.5001,1539.968,1488.6542,1539.968C1488.6622,1539.968,1488.6703,1539.9677,1488.6785,1539.967C1488.8063,1539.9573,1488.9113,1539.8722,1488.9515,1539.7573Q1489.294,1538.892,1489.6835,1537.9602Q1490.5219,1535.9545,1491.038,1534.7065L1491.0231,1534.7065C1491.0433,1534.682,1491.0599,1534.6544,1491.0721,1534.6246L1491.0718,1534.6246Q1491.5692,1533.4213,1491.7379,1532.9717C1492.4,1531.207,1494.0754,1530.1172,1495.8564,1530.1172C1496.3689,1530.1172,1496.892,1530.2079,1497.401,1530.3989C1498.7107,1530.8904,1499.6481,1531.9392,1500.0449,1533.1766C1500.0873,1533.3085,1500.2096,1533.3954,1500.3445,1533.3954C1500.3606,1533.3954,1500.3768,1533.3942,1500.3932,1533.3916C1500.4847,1533.3773,1500.5619,1533.3243,1500.6093,1533.251L1500.6086,1533.251L1844.1346,1003.9171L1844.1531,1003.9171C1844.4678,1003.97784,1844.785,1004.0077,1845.1011,1004.0077C1846.8514,1004.0077,1848.5532,1003.09174,1849.4789,1001.4592L1850.0399,1000.46985L1850.04,1000.46985Q1850.4536,999.7405,1851.2017,998.69543L1851.1831,998.69543C1851.2103,998.67554,1851.234,998.6515,1851.2534,998.62427L1851.2528,998.62427Q1852.1122,997.4293,1852.8024,996.57684L1852.8024,996.5768Q1853.5316,995.67584,1854.0873,995.0319L1854.0874,995.03186C1854.1622,994.9451,1854.2418,994.846,1854.3088,994.7574C1854.379,994.6645,1854.3922,994.5404,1854.3431,994.4348C1854.2941,994.3292,1854.1907,994.25934,1854.0743,994.25323L1854.0558,994.25226L1854.0339,994.2519L1850.3668,994.3133L1850.3668,994.3133L1853.993,988.72656L1854.0109,988.72656C1854.0219,988.7098,1854.0314,988.69183,1854.0391,988.6728C1854.0851,988.55975,1854.0615,988.4303,1853.9788,988.34064C1853.8516,988.20294,1853.71,988.06586,1853.5651,987.9408L1853.565,987.94073C1852.615,987.12115,1851.4458,986.7196,1850.2827,986.7196 Z"/>
</g>
</g>
</svg>