<svg xmlns="http://www.w3.org/2000/svg" viewBox="0 0 99.86 124.825" x="0px" y="0px"><title>k</title><g data-name="Layer 1"><path d="M68.62,54c-4.85-7-3-13.16-1.94-15.44a2.22,2.22,0,0,0,.61-1.46A2.62,2.62,0,0,0,66.05,35a20.24,20.24,0,0,1,.84-3.22,2.21,2.21,0,0,0,.4-1.24A2.16,2.16,0,0,0,66.62,29a.08.08,0,0,1,0,0,19.64,19.64,0,0,0-1.91-1.79,5.25,5.25,0,0,0-4.28-1c-.26.06-.55.12-.87.21s-.62-.1-1.27-.74a4.17,4.17,0,0,0-1.37-1,3.37,3.37,0,0,0-2.73.26l-.06,0a6.35,6.35,0,0,0-3.55-.87,8,8,0,0,0-3.94,1.18,8.16,8.16,0,0,1-.71-.42,5.74,5.74,0,0,0-2.86-1.13,8.25,8.25,0,0,0-6,3.3,12.06,12.06,0,0,0-1,1.9,4.39,4.39,0,0,1-1.18,1.81A3.62,3.62,0,0,0,33.41,33a3.2,3.2,0,0,0,.76,2.37,2.67,2.67,0,0,0,2,.94,3.8,3.8,0,0,0,1.57-.38,1.19,1.19,0,0,0,.08.2,2.07,2.07,0,0,0-.24.93,2.16,2.16,0,0,0,.58,1.43,14.87,14.87,0,0,1,1,3.3,11.31,11.31,0,0,0-6.8-.19c-2.67.65-7.85,3.93-8.29,11.74-.62,11.22,9.88,13.57,12.3,14a21.27,21.27,0,0,0,4.87,5.06v0c.22.15.46.29.69.43A2.88,2.88,0,0,0,40.85,75c0,3.12,5.84,4.76,11.61,4.76S64.06,78.1,64.06,75A2.86,2.86,0,0,0,63,72.83a8.85,8.85,0,0,0,1.1-.75h0c1.63-1.27,5.65-4.82,6.56-9.64A11,11,0,0,0,68.62,54ZM37.77,33.64c-.56.4-1.59,1-2.07.45a1.16,1.16,0,0,1-.3-.88,1.59,1.59,0,0,1,.67-1.06,6.09,6.09,0,0,0,1.76-2.57,10.3,10.3,0,0,1,.84-1.6A6.07,6.07,0,0,1,43,25.57a4.15,4.15,0,0,1,1.85.82c.81.51,1.72,1.09,2.68.52a6.12,6.12,0,0,1,3.19-1,4.35,4.35,0,0,1,2.46.65,1.63,1.63,0,0,0,1.54.24l.14-.07a1.8,1.8,0,0,1,1.34-.29,3,3,0,0,1,.68.57,3.23,3.23,0,0,0,3.2,1.24c.27-.07.51-.13.73-.17a3.19,3.19,0,0,1,2.64.63,17,17,0,0,1,1.68,1.57s0,0,.07.06h0a.17.17,0,0,1,.06.07c0,.1-.09.24-.14.39a9.36,9.36,0,0,1-3.76,1.54,7,7,0,0,1-1.62-.08l-.89-.1a5.85,5.85,0,0,0-3.64.89,8.49,8.49,0,0,1-2.11.54A6.84,6.84,0,0,1,50,33a3.61,3.61,0,0,0-2.83,0,3.74,3.74,0,0,0-1.76,1.9c-.2.41-.42.49-.91.68a4.31,4.31,0,0,0-1.84,1.17,1.32,1.32,0,0,1-1.21.35,2.23,2.23,0,0,1-1.64-1.39,2.07,2.07,0,0,1-.19-1.37s0,0,0,0a5.31,5.31,0,0,1,.41-1,6.35,6.35,0,0,0,.7-1.91,1.89,1.89,0,0,1,.79-1.27,2.36,2.36,0,0,1,1.78-.35,7.46,7.46,0,0,0,3.71-.29c.52-.24,2.19-.78,3-.12a1,1,0,1,0,1.24-1.57c-1.92-1.53-4.78-.27-5-.15a5.67,5.67,0,0,1-2.58.16,4.31,4.31,0,0,0-3.28.68A3.9,3.9,0,0,0,38.8,31.1a4.61,4.61,0,0,1-.52,1.36A7.61,7.61,0,0,0,37.77,33.64Zm26.1,4.47c-1.93.83-5.8,1.72-11.41,1.72a37.56,37.56,0,0,1-9.26-1,3.24,3.24,0,0,0,1-.71,2.28,2.28,0,0,1,1.07-.64,3.26,3.26,0,0,0,2-1.71l0-.1a1.74,1.74,0,0,1,.75-.83,1.66,1.66,0,0,1,1.24,0,8.56,8.56,0,0,0,4.11.74,12.4,12.4,0,0,0,1.82-.39,40.18,40.18,0,0,0,6.57-.89l.12,0,0,0a17.32,17.32,0,0,0,2.34-.72A15.73,15.73,0,0,0,63.87,38.11ZM31.19,63.38c-3.62-2.16-5.33-5.49-5.08-9.92.38-6.88,5-9.48,6.76-9.9,3.59-.87,5.68,0,6.56.57a16.4,16.4,0,0,1-.1,2.06c-1.58-1.14-4.11-2-6.18-1.23-3.25,1.22-5.33,4.37-5.55,8.42-.18,3.14.48,5.55,1.93,7.15a7,7,0,0,0,4.84,2.13A12.81,12.81,0,0,0,35.13,65,15.81,15.81,0,0,1,31.19,63.38Zm7.7-14.89A18,18,0,0,1,36.3,54a11.25,11.25,0,0,0-2.15,6.66A4.86,4.86,0,0,1,31,59.18c-1.08-1.19-1.56-3.1-1.41-5.69.17-3.23,1.77-5.73,4.26-6.66C35.84,46.08,38.59,47.89,38.89,48.49ZM52.46,77.74c-6.22,0-9.61-1.82-9.61-2.76,0-.24.31-.69,1.17-1.16a23.44,23.44,0,0,0,8.44,1.45,23.55,23.55,0,0,0,8.44-1.44c.85.46,1.16.9,1.16,1.15C62.06,75.92,58.67,77.74,52.46,77.74ZM68.63,62.05c-.92,4.89-5.84,8.47-6.35,8.83l-.05,0h0c-2.24,1.47-5.82,2.34-9.77,2.34s-7.52-.85-9.79-2.35h0c-.06,0-5.43-3.73-6.4-8.86a9.05,9.05,0,0,1,1.66-6.94c4.15-6,3.87-11.5,3-14.91a35.55,35.55,0,0,0,11.54,1.63A35.59,35.59,0,0,0,64,40.2c-.9,3.41-1.18,8.87,3,14.91A9,9,0,0,1,68.63,62.05Z"/><path d="M44.81,30.92A3.28,3.28,0,0,0,42,32.32a1,1,0,0,0,1.69,1.07,1.33,1.33,0,0,1,1.05-.47,1,1,0,0,0,1-1A1,1,0,0,0,44.81,30.92Z"/><path d="M53.74,32.06a1,1,0,0,0,.73-.31c.06-.06,1.51-1.53,4.17-.25A1,1,0,0,0,60,31a1,1,0,0,0-.47-1.34c-4-1.93-6.4.6-6.5.71a1,1,0,0,0,.06,1.39A1,1,0,0,0,53.74,32.06Z"/></g></svg>