<svg xmlns="http://www.w3.org/2000/svg" version="1.1" viewBox="-5.0 -10.0 110.0 135.0">
 <path d="m50 68.055c-9.957 0-18.055-8.1016-18.055-18.055 0-9.957 8.1016-18.055 18.055-18.055 9.957 0 18.055 8.1016 18.055 18.055 0 9.957-8.0977 18.055-18.055 18.055zm0-33.332c-8.4258 0-15.277 6.8555-15.277 15.277 0 8.4258 6.8555 15.277 15.277 15.277 8.4258 0 15.277-6.8555 15.277-15.277 0-8.4258-6.8516-15.277-15.277-15.277z"/>
 <path d="m94.414 48.352c-0.38281-10.543-4.5273-20.629-11.676-28.41-1.2852-1.3984-3.1523-2.0391-5.0039-1.7188-5.9062 1.0312-13.137 1.9375-19.105 1.9766-6.1797 0.035156-8.9492-0.79688-9.293-2.8047-0.31641-1.8711 1.6562-3.4414 6.5938-5.2617 3.875-1.4297 9.2891-2.8555 15.242-4.0156 0.75391-0.14844 1.4805 0.34375 1.6289 1.0977 0.14844 0.75391-0.34375 1.4805-1.0977 1.6289-5.2656 1.0312-10.172 2.2891-13.812 3.5469-3.3359 1.1523-4.7969 2.0117-5.4141 2.4805 0.82813 0.26953 2.8125 0.65234 7.2734 0.53906 5.5469-0.14062 12.074-0.97266 17.512-1.918 2.7852-0.48438 5.5977 0.47656 7.5234 2.5742 7.5938 8.2656 11.996 18.984 12.406 30.188 0.027344 0.76562-0.57031 1.4102-1.3359 1.4375-0.79297 0.023438-1.4141-0.58984-1.4414-1.3398z"/>
 <path d="m20.652 67.379c-4.3242 0-14.66-11.504-17.504-14.77-0.50391-0.57812-0.44141-1.457 0.13672-1.9609 0.57812-0.50391 1.457-0.44141 1.9609 0.13672 3.5234 4.0469 7.0664 7.668 9.9727 10.191 2.6641 2.3125 4.1367 3.1445 4.8516 3.4453-0.17969-0.85156-0.83984-2.7578-3.168-6.5703-2.8828-4.7148-6.8438-9.9297-10.426-14.215-1.8086-2.1641-2.3945-5.0508-1.5625-7.7188 3.3438-10.715 10.438-19.918 19.977-25.918 1.1055-0.69531 2.4766 0.39062 2.0547 1.625-1.7461 5.0781-3.1094 9.957-3.8398 13.734-0.67188 3.4648-0.65625 5.1602-0.55859 5.9297 0.64453-0.58203 1.9688-2.1055 4.1055-6.0312 2.6328-4.8359 5.168-10.871 7.0977-16.137 0.97656-2.6602 3.2266-4.6172 6.0195-5.2344 11-2.4297 22.527-0.82812 32.324 4.3672 0.67578 0.35938 0.9375 1.1992 0.57422 1.8789-0.35938 0.67578-1.1992 0.9375-1.8789 0.57422-9.1758-4.8672-20.027-6.4023-30.418-4.1055-1.8633 0.41406-3.3633 1.7109-4.0117 3.4766-2.082 5.6797-4.8945 12.359-7.8438 17.547-3.0508 5.3672-5.168 7.3516-7.0742 6.6406-1.7773-0.66016-2.1523-3.1562-1.2617-8.3398 0.53516-3.1172 1.5273-7.0195 2.8477-11.25-7.2891 5.5742-12.715 13.281-15.457 22.07-0.55078 1.7617-0.16016 3.6719 1.0391 5.1094 3.8516 4.6055 8.2617 10.43 11.273 15.566 3.1211 5.3242 3.7852 8.1523 2.2148 9.4492-0.41016 0.33594-0.88281 0.50781-1.4453 0.50781z"/>
 <path d="m92.215 58.613c-0.75781-0.12891-1.2656-0.84375-1.1367-1.6016 0.66406-3.918 0.76562-7.9648 0.30078-11.934-0.089844-0.76172 0.45703-1.4531 1.2188-1.543 0.76172-0.089844 1.4531 0.45312 1.543 1.2188 0.51562 4.3867 0.36328 8.6953-0.32031 12.727-0.13281 0.75391-0.85156 1.2617-1.6055 1.1328z"/>
 <path d="m23.105 16.348c-0.46094-0.61328-0.33594-1.4844 0.28125-1.9453 3.4258-2.5664 7.1875-4.6133 11.184-6.0938 0.71875-0.26562 1.5195 0.10156 1.7852 0.82031s-0.10156 1.5195-0.82031 1.7852c-3.7422 1.3828-7.2695 3.3047-10.48 5.7109-0.62109 0.46094-1.4883 0.33594-1.9492-0.27734z"/>
 <path d="m32.465 90.852c-3.9062-1.6797-7.5547-3.9141-10.84-6.6445-0.58984-0.48828-0.67188-1.3672-0.17969-1.957 0.48828-0.58984 1.3672-0.67188 1.957-0.17969 3.082 2.5586 6.5 4.6562 10.164 6.2266 0.70312 0.30469 1.0312 1.1211 0.72656 1.8242-0.30469 0.70312-1.1211 1.0312-1.8281 0.73047z"/>
 <path d="m5.8633 55.25c-0.5-4.2344-0.39062-8.5469 0.32031-12.723 0.12891-0.75781 0.84375-1.2656 1.6016-1.1367 0.75781 0.12891 1.2656 0.84375 1.1367 1.6016-0.66406 3.9023-0.76953 7.9492-0.30078 11.934 0.089844 0.76172-0.45703 1.4531-1.2188 1.543-0.76172 0.085938-1.4492-0.46094-1.5391-1.2188z"/>
 <path d="m76.602 17.93c-3.082-2.5586-6.5-4.6562-10.164-6.2266-0.70312-0.30469-1.0312-1.1211-0.72656-1.8242 0.30469-0.70312 1.1211-1.0312 1.8242-0.72656 3.9062 1.6797 7.5547 3.9141 10.84 6.6445 0.58984 0.48828 0.67188 1.3672 0.17969 1.957-0.48828 0.58203-1.3633 0.66797-1.9531 0.17578z"/>
 <path d="m63.648 90.867c-0.26563-0.71875 0.10156-1.5195 0.82031-1.7852 3.7422-1.3828 7.2695-3.3047 10.48-5.7109 0.61328-0.46094 1.4844-0.33594 1.9453 0.28125 0.46094 0.61328 0.33594 1.4844-0.28125 1.9453-3.4258 2.5664-7.1875 4.6133-11.184 6.0938-0.71875 0.26562-1.5156-0.10938-1.7812-0.82422z"/>
 <path d="m27.195 90.781c-0.14844-0.75391 0.34375-1.4805 1.0977-1.6289 5.2695-1.0273 10.18-2.2852 13.82-3.543 3.3359-1.1523 4.7969-2.0117 5.4141-2.4805-0.82812-0.26953-2.8125-0.65234-7.2734-0.53906-5.5469 0.14062-12.074 0.97266-17.512 1.918-2.7852 0.48438-5.5977-0.47656-7.5234-2.5742-7.5938-8.2656-11.996-18.984-12.406-30.188-0.027344-0.76562 0.57031-1.4102 1.3359-1.4375 0.76562-0.027344 1.4102 0.57031 1.4375 1.3359 0.38281 10.543 4.5273 20.629 11.676 28.41 1.2812 1.3984 3.1523 2.0391 5.0039 1.7188 5.9062-1.0312 13.137-1.9375 19.105-1.9766 6.1758-0.039063 8.9492 0.79688 9.293 2.8047 0.31641 1.8711-1.6562 3.4414-6.5938 5.2617-3.875 1.4297-9.2891 2.8555-15.242 4.0156-0.75781 0.14844-1.4883-0.34375-1.6328-1.0977z"/>
 <path d="m27.906 91.742c-0.67578-0.35938-0.9375-1.1992-0.57422-1.8789 0.35938-0.67969 1.1992-0.9375 1.8789-0.57422 9.0898 4.8203 19.926 6.4258 30.422 4.1094 1.8672-0.41016 3.3672-1.7148 4.0156-3.4805 2.0625-5.6406 4.9023-12.367 7.8438-17.547 3.0508-5.3672 5.1641-7.3516 7.0742-6.6406 1.7773 0.66016 2.1523 3.1562 1.2617 8.3438-0.69922 4.0703-2.1719 9.4688-4.1406 15.207-0.25 0.72656-1.0391 1.1133-1.7656 0.86328s-1.1133-1.0391-0.86328-1.7656c1.7461-5.0781 3.1094-9.957 3.8398-13.738 0.67187-3.4648 0.65625-5.1602 0.55859-5.9297-0.64453 0.58203-1.9688 2.1055-4.1055 6.0312-2.6523 4.8711-5.1914 10.934-7.0977 16.137-0.97656 2.6602-3.2266 4.6211-6.0234 5.2383-11.09 2.4414-22.605 0.78125-32.324-4.375z"/>
 <path d="m73.191 89.566c-0.41016-0.64844-0.21484-1.5078 0.4375-1.9141 8.9805-5.6484 15.66-14.312 18.805-24.395 0.55078-1.7617 0.16016-3.6719-1.0391-5.1055-3.8672-4.625-8.2617-10.43-11.277-15.57-3.1211-5.3242-3.7852-8.1523-2.2148-9.4492 1.4609-1.207 3.8086-0.28516 7.8516 3.0781 3.1719 2.6406 7.1133 6.6133 11.094 11.184 0.50391 0.57812 0.44141 1.457-0.13672 1.9609-0.57813 0.50391-1.457 0.44141-1.9609-0.13672-3.5234-4.0469-7.0664-7.668-9.9727-10.191-2.6641-2.3125-4.1367-3.1445-4.8516-3.4453 0.17969 0.85156 0.83984 2.7578 3.168 6.5703 2.8945 4.7344 6.8477 9.9297 10.43 14.219 1.8086 2.1641 2.3906 5.0469 1.5586 7.7148-3.3438 10.715-10.438 19.918-19.977 25.918-0.64844 0.40625-1.5039 0.21094-1.9141-0.4375z"/>
 <path d="m42.074 14.871c-0.54297-0.54297-0.54297-1.4219 0-1.9648l1.3906-1.3906c0.54297-0.54297 1.4219-0.54297 1.9648 0 0.54297 0.54297 0.54297 1.4219 0 1.9648l-1.3906 1.3906c-0.54297 0.54297-1.4219 0.54297-1.9648 0z"/>
 <path d="m36.52 23.203-1.3906-1.3906c-0.54297-0.54297-0.54297-1.4219 0-1.9648 0.54297-0.54297 1.4219-0.54297 1.9648 0l1.3906 1.3906c0.54297 0.54297 0.54297 1.4219 0 1.9648-0.54688 0.54297-1.4258 0.54297-1.9648 0z"/>
 <path d="m46.238 25.98c-0.54297-0.54297-0.54297-1.4219 0-1.9648l1.3906-1.3906c0.54297-0.54297 1.4219-0.54297 1.9648 0s0.54297 1.4219 0 1.9648l-1.3906 1.3906c-0.54297 0.54297-1.4219 0.54297-1.9648 0z"/>
 <path d="m33.738 32.926-1.3906-1.3906c-0.54297-0.54297-0.54297-1.4219 0-1.9648 0.54297-0.54297 1.4219-0.54297 1.9648 0l1.3906 1.3906c0.54297 0.54297 0.54297 1.4219 0 1.9648s-1.4219 0.54297-1.9648 0z"/>
 <path d="m13.914 38.316-0.50781-1.8984c-0.19922-0.74219 0.24219-1.5039 0.98047-1.6992 0.74219-0.19922 1.5039 0.24219 1.6992 0.98047l0.50781 1.8984c0.19922 0.74219-0.24219 1.5039-0.98047 1.6992-0.73828 0.20312-1.5-0.23828-1.6992-0.98047z"/>
 <path d="m16.453 47.805c-0.19922-0.74219 0.24219-1.5039 0.98047-1.6992l1.8984-0.50781c0.74219-0.19922 1.5039 0.24219 1.6992 0.98047 0.19922 0.74219-0.24219 1.5039-0.98047 1.6992l-1.8984 0.50781c-0.73438 0.19922-1.5-0.23828-1.6992-0.98047z"/>
 <path d="m25.617 40.266-0.50781-1.8984c-0.19922-0.74219 0.24219-1.5039 0.98047-1.6992 0.74219-0.19922 1.5039 0.24219 1.6992 0.98047l0.50781 1.8984c0.19922 0.74219-0.24219 1.5039-0.98047 1.6992-0.73438 0.19922-1.5-0.23828-1.6992-0.98047z"/>
 <path d="m23.484 55.07c-0.19922-0.74219 0.24219-1.5039 0.98047-1.6992l1.8984-0.50781c0.74219-0.19922 1.5039 0.24219 1.6992 0.98047 0.19922 0.74219-0.24219 1.5039-0.98047 1.6992l-1.8984 0.50781c-0.73828 0.19922-1.5-0.23828-1.6992-0.98047z"/>
 <path d="m21.84 75.41-1.8984-0.50781c-0.74219-0.19922-1.1797-0.96094-0.98047-1.6992 0.19922-0.74219 0.96094-1.1797 1.6992-0.98047l1.8984 0.50781c0.74219 0.19922 1.1797 0.96094 0.98047 1.6992-0.19922 0.74219-0.96094 1.1797-1.6992 0.98047z"/>
 <path d="m31.324 77.953c-0.74219-0.19922-1.1797-0.96094-0.98047-1.6992l0.50781-1.8984c0.19922-0.74219 0.96094-1.1797 1.6992-0.98047 0.74219 0.19922 1.1797 0.96094 0.98047 1.6992l-0.50781 1.8984c-0.19531 0.74219-0.96094 1.1797-1.6992 0.98047z"/>
 <path d="m29.379 66.246-1.8984-0.50781c-0.74219-0.19922-1.1797-0.96094-0.98047-1.6992 0.19922-0.74219 0.96094-1.1797 1.6992-0.98047l1.8984 0.50781c0.74219 0.19922 1.1797 0.96094 0.98047 1.6992-0.19531 0.74219-0.96094 1.1797-1.6992 0.98047z"/>
 <path d="m41.133 75.496c-0.74219-0.19922-1.1797-0.96094-0.98047-1.6992l0.50781-1.8984c0.19922-0.74219 0.96094-1.1797 1.6992-0.98047 0.74219 0.19922 1.1797 0.96094 0.98047 1.6992l-0.50781 1.8984c-0.19531 0.74219-0.96094 1.1797-1.6992 0.98047z"/>
 <path d="m54.574 88.48c-0.54297-0.54297-0.54297-1.4219 0-1.9648l1.3906-1.3906c0.54297-0.54297 1.4219-0.54297 1.9648 0 0.54297 0.54297 0.54297 1.4219 0 1.9648l-1.3906 1.3906c-0.54297 0.54297-1.4219 0.54297-1.9648 0z"/>
 <path d="m62.906 80.148-1.3906-1.3906c-0.54297-0.54297-0.54297-1.4219 0-1.9648s1.4219-0.54297 1.9648 0l1.3906 1.3906c0.54297 0.54297 0.54297 1.4219 0 1.9648-0.54297 0.54297-1.4219 0.54297-1.9648 0z"/>
 <path d="m51.391 77.777c-1.2266 0-1.8594-1.4922-0.98047-2.3711l1.3906-1.3906c0.54297-0.54297 1.4219-0.54297 1.9648 0s0.54297 1.4219 0 1.9648l-1.3906 1.3906c-0.27344 0.26953-0.62891 0.40625-0.98438 0.40625z"/>
 <path d="m65.684 70.426-1.3906-1.3906c-0.54297-0.54297-0.54297-1.4219 0-1.9648 0.54297-0.54297 1.4219-0.54297 1.9648 0l1.3906 1.3906c0.54297 0.54297 0.54297 1.4219 0 1.9648-0.54297 0.54297-1.4219 0.54297-1.9648 0z"/>
 <path d="m83.914 64.297-0.50781-1.8984c-0.19922-0.74219 0.24219-1.5039 0.98047-1.6992 0.74219-0.19922 1.5039 0.24219 1.6992 0.98047l0.50781 1.8984c0.19922 0.74219-0.24219 1.5039-0.98047 1.6992-0.73828 0.20312-1.5039-0.23828-1.6992-0.98047z"/>
 <path d="m78.965 53.422c-0.19922-0.74219 0.24219-1.5039 0.98047-1.6992l1.8984-0.50781c0.74219-0.19922 1.5039 0.24219 1.6992 0.98047 0.19922 0.74219-0.24219 1.5039-0.98047 1.6992l-1.8984 0.50781c-0.73828 0.20312-1.5-0.23828-1.6992-0.98047z"/>
 <path d="m72.207 62.352-0.50781-1.8984c-0.19922-0.74219 0.24219-1.5039 0.98047-1.6992 0.74219-0.19922 1.5039 0.24219 1.6992 0.98047l0.50781 1.8984c0.19922 0.74219-0.24219 1.5039-0.98047 1.6992-0.73828 0.19922-1.5-0.23828-1.6992-0.98047z"/>
 <path d="m71.934 46.156c-0.19922-0.74219 0.24219-1.5039 0.98047-1.6992l1.8984-0.50781c0.74219-0.19922 1.5039 0.24219 1.6992 0.98047 0.19922 0.74219-0.24219 1.5039-0.98047 1.6992l-1.8984 0.50781c-0.73828 0.19922-1.5-0.23828-1.6992-0.98047z"/>
 <path d="m79.34 27.781-1.8984-0.50781c-0.74219-0.19922-1.1797-0.96094-0.98047-1.6992 0.19922-0.74219 0.96094-1.1797 1.6992-0.98047l1.8984 0.50781c0.74219 0.19922 1.1797 0.96094 0.98047 1.6992-0.19922 0.73828-0.96094 1.1797-1.6992 0.98047z"/>
 <path d="m67.445 26.629c-0.74219-0.19922-1.1797-0.96094-0.98047-1.6992l0.50781-1.8984c0.19922-0.74219 0.96094-1.1797 1.6992-0.98047 0.74219 0.19922 1.1797 0.96094 0.98047 1.6992l-0.50781 1.8984c-0.19531 0.73828-0.96094 1.1758-1.6992 0.98047z"/>
 <path d="m71.801 36.945-1.8984-0.50781c-0.74219-0.19922-1.1797-0.96094-0.98047-1.6992 0.19922-0.74219 0.96094-1.1797 1.6992-0.98047l1.8984 0.50781c0.74219 0.19922 1.1797 0.96094 0.98047 1.6992-0.19922 0.73828-0.96094 1.1797-1.6992 0.98047z"/>
 <path d="m57.637 29.082c-0.74219-0.19922-1.1797-0.96094-0.98047-1.6992l0.50781-1.8984c0.19922-0.74219 0.96094-1.1797 1.6992-0.98047 0.74219 0.19922 1.1797 0.96094 0.98047 1.6992l-0.50781 1.8984c-0.19531 0.74219-0.96094 1.1797-1.6992 0.98047z"/>
 <path d="m50 62.5c-6.8945 0-12.5-5.6055-12.5-12.5s5.6055-12.5 12.5-12.5 12.5 5.6055 12.5 12.5-5.6055 12.5-12.5 12.5zm0-22.223c-5.3594 0-9.7227 4.3633-9.7227 9.7227s4.3633 9.7227 9.7227 9.7227 9.7227-4.3633 9.7227-9.7227-4.3633-9.7227-9.7227-9.7227z"/>
</svg>