<svg xmlns="http://www.w3.org/2000/svg" version="1.1" viewBox="-5.0 -10.0 110.0 135.0">
 <path d="m95 38.801c0-0.10156 0-0.19922-0.10156-0.30078 0-0.10156-0.10156-0.10156-0.10156-0.19922 0-0.10156-0.10156-0.10156-0.10156-0.19922-0.10156-0.10156-0.19922-0.19922-0.30078-0.19922l-53.695-22.902c1-1.3008 2.3008-2.5 4.1016-2.8984 0.5-0.10156 0.89844-0.60156 0.80078-1.1992-0.10156-0.60156-0.60156-0.89844-1.1992-0.80078-2.6016 0.5-4.3984 2.1992-5.6016 4l-6-2.6016c-0.39844-0.19922-0.80078-0.10156-1.1016 0.19922l-26.398 26.5c-0.10156 0.10156-0.19922 0.19922-0.19922 0.30078-0.10156 0.10156-0.10156 0.19922-0.10156 0.39844v50c0 0.60156 0.39844 1 1 1h88c0.60156 0 1-0.39844 1-1v-50.098 0 0zm-62.398-25.102 5.1992 2.1992c-0.69922 1.6016-1.1016 3.1016-1.3008 4-2.8984 0.39844-5.1992 2.8984-5.1992 6 0 3.3008 2.6992 6 6 6s6-2.6992 6-6c0-2.8984-2.1016-5.3984-4.8008-5.8984 0.19922-0.80078 0.5-2 1.1016-3.1992l49.398 21.199h-80.602zm8.7969 12.102c0 2.1992-1.8008 4-4 4-2.1992 0-4-1.8008-4-4s1.8008-4 4-4c2.2031 0 4 1.8008 4 4zm51.602 52.398h-71.102v-8.5h71.102zm0-20.098h-71.102v-8.5h71.102zm0-10.5h-72.102c-0.60156 0-1 0.39844-1 1v10.5c0 0.60156 0.39844 1 1 1h72.102v7.6016l-72.102-0.003906c-0.60156 0-1 0.39844-1 1v10.5c0 0.60156 0.39844 1 1 1h72.102v7.6992h-86v-48h86z"/>
</svg>