<svg xmlns="http://www.w3.org/2000/svg" version="1.1" viewBox="-5.0 -10.0 110.0 135.0">
 <path d="m96.539 56.938c-0.070312-1.9492-0.33984-3.8438-0.74609-5.6719 0-0.085937-0.019531-0.16797-0.054688-0.24219-2.6797-11.676-11.035-20.383-11.133-20.484-0.16797-0.17187-0.42188-0.22266-0.64453-0.13281l-0.29297 0.12109c-0.21875 0.089844-0.35938 0.30078-0.36328 0.53906-0.011719 1.8125-0.23828 3.2539-0.71094 4.5391-0.80859 2.2031-2.4727 3.8672-4.3398 4.3398-1.5352 0.39063-3.3242 0.042969-4.9023-0.95312-0.97266-0.61328-1.8672-1.4492-2.7383-2.5625-0.16406-0.21094-0.45312-0.28125-0.69531-0.17578-4.6211 2.0195-9.1992 4.1914-13.719 6.4844-1.9141-10.336-4.0508-17.801-6.3555-22.18-1.0547-2.0078-2.8438-3.543-5.0352-4.3203-3.4102-1.1992-8.8672-2.6758-15.508-2.8984h-0.011719c-0.050781 0-0.10547 0.003906-0.15625 0.019531-0.003906 0-0.007812 0-0.011718 0.003906-0.03125 0.007813-0.058594 0.019531-0.089844 0.03125-0.011719 0.007813-0.023438 0.015625-0.039062 0.023438-0.011719 0.007812-0.023438 0.011719-0.035157 0.019531-0.085937 0.058594-0.15625 0.13672-0.19922 0.22656 0 0.003907-0.007812 0.011719-0.011718 0.015626-0.058594 0.12891-5.9883 12.973-10.484 23.93-0.078125 0.1875-0.050781 0.39844 0.066406 0.5625 0.85547 1.1992 1.4766 2.4297 1.8398 3.6602 0.79688 2.6641 0.35156 5.4648-1.1562 7.3125-1.2305 1.5-3.3008 2.3086-5.1484 2.0039-0.027343-0.003907-0.058593-0.007813-0.089843-0.007813-0.078126 0-0.15234 0.015625-0.21875 0.046875-0.16016 0.066406-0.28906 0.20703-0.33594 0.38281-2.8047 9.957-3.9648 20.664-3.9766 20.773-0.023438 0.22266 0.082031 0.4375 0.26953 0.55859 0.35547 0.22656 8.168 5.0781 19.402 5.0781 0.90625 0 1.8359-0.039063 2.7852-0.10547l1.9297 6.2773c0.074219 0.24609 0.30469 0.41406 0.55859 0.41406h0.019531l8.375-0.30078c0.25391-0.007813 0.47266-0.17969 0.54297-0.42188 0.29297-1.0156 0.72656-1.8945 1.293-2.6055 0.87109-1.1016 2.1211-1.8164 3.3438-1.9141 1.9922-0.15625 3.7305 1.2109 4.6914 2.5469 0.35547 0.49609 0.67578 1.0508 0.95312 1.6523 0.097656 0.21484 0.32031 0.34766 0.55469 0.33984l35.965-1.2891c0.19531-0.007813 0.37109-0.10938 0.47656-0.27344 0.066406-0.10547 6.6797-10.875 6.1484-25.355zm-26.562-19.426c0.86719 1.043 1.7695 1.8555 2.75 2.4727 1.8477 1.168 3.9688 1.5703 5.8164 1.1016 2.2695-0.57813 4.1953-2.4727 5.1523-5.0742 0.42578-1.1562 0.66797-2.4141 0.75-3.9023 2.0273 2.3203 8.0078 9.7695 10.156 19.184-0.80078 3.7891-2.4023 5.8164-5.5039 6.9844-0.65234 0.24609-3.2734 0.59766-11.973 0.90234-1.4375-1.8398-3.75-2.9766-6.082-2.9766-2.0547 0-4.1445 1.1914-5.7773 3.2773-14.18 0.26172-30.562 0.30469-36.258 0.30859l9.6328-5.9023c10.035-6.1484 20.574-11.656 31.34-16.383zm6.0781 22.203c-1.1406 1.6406-3.1836 2.7344-5.082 2.7266-2.0586-0.023437-3.7148-0.85156-4.707-2.3398 1.3945-1.7383 3.1172-2.7266 4.7773-2.7266 1.8984 0 3.7852 0.88672 5.0117 2.3398zm-27.25-38.605c2.2773 4.3242 4.3984 11.789 6.3047 22.188-3.9023 2.0039-7.7539 4.1094-11.547 6.3047-0.99219-3.3008-2.1211-6.7734-3.375-10.34 1.293-1.9531 1.5625-4.4688 0.70312-6.5781-0.82812-2.0352-2.6211-3.6016-4.7344-4.168-2.6914-6.7773-5.0273-11.969-5.9414-13.953 6.0547 0.32031 11.031 1.6758 14.199 2.7891 1.9102 0.67969 3.4688 2.0117 4.3867 3.7578zm-13.066 8.5039c1.793 0.44531 3.375 1.8047 4.0703 3.5117 0.67188 1.6484 0.49219 3.6758-0.44922 5.2578-1.918-0.21875-3.707-1.5547-4.4336-3.3438-0.71484-1.7656-0.375-3.9375 0.8125-5.4297zm-25.301 42.48c0.22656-1.9336 1.3711-11.051 3.7617-19.727 2.1055 0.15234 4.3477-0.80469 5.7227-2.4805 1.75-2.1445 2.2773-5.3594 1.375-8.3906-0.375-1.2617-0.98828-2.5195-1.8242-3.7383 3.6836-8.9492 8.2734-19.07 9.8125-22.434 0.97266 2.125 3.168 7.0352 5.6914 13.375-1.5859 1.8359-2.0469 4.5195-1.1328 6.7734 0.87109 2.1523 2.9141 3.7148 5.1953 4.0391 1.3008 3.6914 2.4688 7.2812 3.4844 10.684-1.5078 0.88281-3.0117 1.7773-4.4961 2.6875l-11.406 6.9883-0.007813 0.003906c-0.046875 0.03125-0.089843 0.070312-0.12891 0.11328-0.007813 0.007813-0.015625 0.015625-0.019531 0.023438-0.035156 0.042969-0.0625 0.089843-0.082032 0.14453 0 0.007812-0.003906 0.015625-0.007812 0.023438-0.015625 0.046874-0.027344 0.097656-0.03125 0.15234v0.023438 0.011719c0 0.054687 0.007812 0.10547 0.023438 0.15625v0.015624l0.73437 2.3945c0.066407 0.21094 0.24219 0.36719 0.45703 0.40625 1.0586 0.19141 2 0.51953 2.7891 0.98047 1.3984 0.81641 2.3828 2.1211 2.6289 3.4922 0.20313 1.1289-0.058593 2.4219-0.73828 3.6484-0.375 0.68359-0.87109 1.3555-1.5664 2.1094-0.14062 0.15234-0.19141 0.37109-0.12891 0.57031l0.79297 2.5742c-10.906 0.69922-19.215-3.668-20.895-4.6289zm79.117 9.3125-35.262 1.2656c-0.26562-0.53125-0.56641-1.0312-0.89453-1.4883-1.4688-2.0352-3.668-3.1953-5.7383-3.0312-1.5664 0.125-3.0859 0.98047-4.1719 2.3516-0.58203 0.73438-1.043 1.6094-1.375 2.6016l-7.5117 0.26953-2.8438-9.2539c0.64453-0.72656 1.125-1.3945 1.5039-2.082 0.8125-1.457 1.1172-3.0312 0.86719-4.4258-0.30859-1.7031-1.5-3.3086-3.1914-4.2969-0.82031-0.47656-1.7656-0.83203-2.8164-1.0508l-0.39844-1.3008c3.9609 0 22.035-0.023438 37.512-0.30859 1.1914 1.8555 3.2578 2.9297 5.7266 2.957h0.066406c2.2656 0 4.668-1.3125 6.0117-3.2539 10.859-0.375 12.078-0.82812 12.477-0.98047 2.7734-1.043 4.5234-2.7539 5.5703-5.5156 0.14844 1.0234 0.25 2.0625 0.28516 3.1211 0.47266 12.867-4.8281 22.715-5.8164 24.43zm-6.5156-29.371c3.8398 0 6.8516-1.6172 6.8516-3.6836 0-2.0664-3.0078-3.6836-6.8516-3.6836s-6.8516 1.6172-6.8516 3.6836c0 2.0664 3.0078 3.6836 6.8516 3.6836zm0-6.1992c3.3477 0 5.6797 1.3242 5.6797 2.5117s-2.332 2.5117-5.6797 2.5117c-3.3477 0-5.6797-1.3242-5.6797-2.5117s2.332-2.5117 5.6797-2.5117zm-29.98 10.32c2.6289 0 5.2852-0.83594 5.2852-2.4375s-2.6602-2.4375-5.2852-2.4375-5.2852 0.83594-5.2852 2.4375 2.6602 2.4375 5.2852 2.4375zm0-3.7031c2.5508 0 4.1133 0.82031 4.1133 1.2656s-1.5625 1.2656-4.1133 1.2656c-2.5508 0-4.1133-0.82031-4.1133-1.2656s1.5625-1.2656 4.1133-1.2656zm10.746 18.75c-1.6172 0-2.9336 1.3164-2.9336 2.9336 0 1.6172 1.3164 2.9336 2.9336 2.9336 1.6172 0 2.9336-1.3164 2.9336-2.9336 0-1.6172-1.3164-2.9336-2.9336-2.9336zm0 4.6992c-0.97266 0-1.7617-0.79297-1.7617-1.7617s0.79297-1.7617 1.7617-1.7617 1.7617 0.79297 1.7617 1.7617-0.79297 1.7617-1.7617 1.7617zm21.879-8.0195c-1.5742 0-2.8555 1.3945-2.8555 3.1094 0 1.7148 1.2812 3.1094 2.8555 3.1094 1.5742 0 2.8555-1.3945 2.8555-3.1094 0-1.7148-1.2812-3.1094-2.8555-3.1094zm0 5.0508c-0.92578 0-1.6836-0.87109-1.6836-1.9375s0.75391-1.9375 1.6836-1.9375c0.92969 0 1.6836 0.87109 1.6836 1.9375s-0.75391 1.9375-1.6836 1.9375zm-54.602-25.465c1.6562 0 3.0039-1.3477 3.0039-3.0039s-1.3477-3.0039-3.0039-3.0039-3.0039 1.3477-3.0039 3.0039 1.3477 3.0039 3.0039 3.0039zm0-4.8359c1.0117 0 1.832 0.82031 1.832 1.832 0 1.0117-0.82031 1.832-1.832 1.832s-1.832-0.82031-1.832-1.832c0-1.0117 0.82031-1.832 1.832-1.832zm-12.402 21.453c-1.9336 0-3.5078 1.3203-3.5078 2.9453s1.5742 2.9492 3.5078 2.9492c1.9336 0 3.5078-1.3203 3.5078-2.9492s-1.5742-2.9453-3.5078-2.9453zm0 4.7227c-1.2891 0-2.3359-0.79688-2.3359-1.7773s1.0469-1.7734 2.3359-1.7734c1.2891 0 2.3359 0.79688 2.3359 1.7734s-1.0469 1.7773-2.3359 1.7773zm18.238 1.5508c-0.046875 1.3828-0.85156 2.7266-2.0508 3.4219-0.09375 0.054688-0.19531 0.078125-0.29297 0.078125-0.20312 0-0.39844-0.10547-0.50781-0.29297-0.16406-0.28125-0.066406-0.63672 0.21094-0.80078 0.85547-0.49609 1.4336-1.457 1.4648-2.4492 0.011718-0.32422 0.28516-0.58203 0.60547-0.56641 0.32422 0.011719 0.57812 0.28125 0.56641 0.60547zm16.941 5.8867c0.19922 0.25391 0.16016 0.62109-0.09375 0.82422-0.10938 0.085938-0.23438 0.125-0.36328 0.125-0.17188 0-0.34375-0.074218-0.46094-0.22266-0.65625-0.82812-1.7617-1.2773-2.8125-1.1406-0.32422 0.042969-0.61328-0.18359-0.65625-0.50391-0.042968-0.32031 0.18359-0.61328 0.50391-0.65625 1.4492-0.1875 2.9727 0.42969 3.8789 1.5742zm2.7148 2.6602c0.18359 0.26562 0.11719 0.63281-0.15234 0.81641-0.10156 0.070313-0.21875 0.10156-0.33203 0.10156-0.1875 0-0.37109-0.089844-0.48438-0.25391l-0.71484-1.0391c-0.18359-0.26562-0.11719-0.63281 0.15234-0.81641 0.26562-0.18359 0.63281-0.11719 0.81641 0.15234zm1.4141-28.348c-0.054687-0.32031 0.16406-0.62109 0.48047-0.67578 0.82812-0.13672 1.6953 0.10938 2.3242 0.66016 0.62891 0.55078 0.99219 1.3789 0.96484 2.2188-0.011718 0.31641-0.26953 0.56641-0.58594 0.56641h-0.019531c-0.32422-0.011719-0.57812-0.28125-0.56641-0.60547 0.015624-0.48438-0.20313-0.98047-0.56641-1.2969-0.36328-0.31641-0.88281-0.46484-1.3633-0.38672-0.31641 0.054688-0.62109-0.16406-0.67578-0.48047zm-18.203-23.824c0.050782-0.32031 0.35156-0.53906 0.67188-0.48828 1.7305 0.27734 3.2344 1.5859 3.7461 3.2617 0.09375 0.30859-0.078125 0.63672-0.39062 0.73047-0.058594 0.015625-0.11328 0.027344-0.17188 0.027344-0.25 0-0.48438-0.16406-0.55859-0.41406-0.37891-1.2383-1.5352-2.2422-2.8125-2.4453-0.32031-0.050781-0.53906-0.35156-0.48828-0.67188zm4.707 5.9414c-0.035157-0.32031 0.19531-0.61328 0.51562-0.64844 0.32422-0.035156 0.61328 0.19531 0.64844 0.51562l0.1875 1.625c0.035156 0.32031-0.19531 0.61328-0.51562 0.64844h-0.066406c-0.29297 0-0.54688-0.21875-0.58203-0.51953l-0.1875-1.625zm-18.293 14.707c-0.046875-0.32031 0.17578-0.61719 0.49609-0.66406 0.32031-0.046875 0.61719 0.17578 0.66406 0.49609 0.12109 0.83594 0.90625 1.5547 1.75 1.6016 0.32422 0.019532 0.57031 0.29688 0.55078 0.61719-0.019531 0.3125-0.27734 0.55469-0.58594 0.55469h-0.035157c-1.3906-0.078125-2.6406-1.2227-2.8438-2.6016zm7.0352 2.2266c0.035156 0.32031-0.19531 0.60938-0.51953 0.64453l-1.2344 0.13672h-0.066407c-0.29297 0-0.54687-0.22266-0.58203-0.52344-0.035156-0.32031 0.19531-0.60938 0.51953-0.64844l1.2344-0.13672c0.32031-0.035156 0.60937 0.19531 0.64453 0.51953z"/>
</svg>