<svg xmlns="http://www.w3.org/2000/svg" viewBox="0 0 100 125" x="0px" y="0px"><g data-name="Layer 2"><path d="M50,88a1,1,0,0,0,1-1V65.451a1,1,0,0,0-2,0V87A1,1,0,0,0,50,88Z"/><path d="M73.077,87.8a.962.962,0,0,0,.184.017A1,1,0,0,0,74.243,87l3.942-21.18a1,1,0,0,0-1.967-.366L72.276,86.63A1,1,0,0,0,73.077,87.8Z"/><path d="M61.658,87.969c.023,0,.045,0,.068,0a1,1,0,0,0,1-.933l1.43-21.5a1,1,0,0,0-2-.133l-1.43,21.5A1,1,0,0,0,61.658,87.969Z"/><path d="M26.744,87.813a.962.962,0,0,0,.184-.017,1,1,0,0,0,.8-1.166L23.788,65.45a1,1,0,0,0-1.967.366L25.762,87A1,1,0,0,0,26.744,87.813Z"/><path d="M38.28,87.971c.023,0,.045,0,.068,0a1,1,0,0,0,.931-1.064l-1.43-21.5a1,1,0,0,0-2,.133l1.43,21.5A1,1,0,0,0,38.28,87.971Z"/><path d="M78.851,33.9q-.359,0-.711.017a15.142,15.142,0,0,0-19.176-13.4A9.084,9.084,0,0,0,50.612,9.74C49.737,8.283,46.834,4.5,40.253,4.5a1,1,0,0,0,0,2c4.467,0,6.882,2.009,8.012,3.38a9.089,9.089,0,0,0-7.224,10.631,15.156,15.156,0,0,0-19.18,13.4q-.354-.017-.712-.017A14.448,14.448,0,0,0,6.717,48.329a14.265,14.265,0,0,0,4.037,9.985L16.9,94.666a1,1,0,0,0,.987.834H82.119a1,1,0,0,0,.986-.834l6.147-36.358a14.266,14.266,0,0,0,4.031-9.979A14.448,14.448,0,0,0,78.851,33.9ZM50,11.709h.005a7.123,7.123,0,1,1-6.5,10.035c-.008-.021-.02-.04-.029-.061A7.114,7.114,0,0,1,50,11.709ZM21.149,35.9c.366,0,.728.015,1.083.045a1,1,0,0,0,1.581-.814V35A13.217,13.217,0,0,1,37,21.954a12.955,12.955,0,0,1,4.837.93,9.1,9.1,0,0,0,16.322,0,12.953,12.953,0,0,1,4.849-.934A13.206,13.206,0,0,1,76.187,35v.132a1,1,0,0,0,1.581.814c.355-.03.717-.045,1.083-.045A12.446,12.446,0,0,1,91.283,48.329a12.273,12.273,0,0,1-3.249,8.352H11.966a12.273,12.273,0,0,1-3.249-8.352A12.446,12.446,0,0,1,21.149,35.9ZM81.274,93.5H18.73L12.845,58.681H87.16Z"/></g></svg>