<svg xmlns="http://www.w3.org/2000/svg" data-name="Слой 1" viewBox="0 0 512 640" x="0px" y="0px"><title>1</title><path d="M256,454.9c-109.68,0-198.9-89.23-198.9-198.9S146.33,57.1,256,57.1,454.9,146.33,454.9,256,365.68,454.9,256,454.9Zm0-391.8c-106.37,0-192.9,86.54-192.9,192.9S149.64,448.9,256,448.9,448.9,362.36,448.9,256,362.37,63.1,256,63.1Z"/><path d="M283.19,364.45c-5.88,0-10.92-2.49-16.87-5.45-6.87-3.4-15.41-7.63-28.77-9.58-12.51-1.83-19.22-.2-26.33,1.52-6.81,1.64-13.85,3.35-25.89,2.33-19.59-1.65-59.5-12.19-70.28-40.25-3.87-10.06-1.79-16.91.85-25.59a104.84,104.84,0,0,0,5.34-35.52,120.68,120.68,0,0,0-4.13-30.14c-2.22-9.1-3.82-15.67.59-24.87,9.23-19.26,37.08-31.6,58.43-25.89,6.73,1.8,9.81,4.6,13.06,7.56a40.56,40.56,0,0,0,11.71,8c13.3,6.13,24,4.38,33.38,2.84,8.86-1.45,17.23-2.82,25.73,2.45,10,6.19,11,15.63,12.24,27.58,1.16,11,2.6,24.78,11.81,41.24,6.81,12.19,13.71,18.54,19.8,24.14,7.1,6.53,13.23,12.16,15.05,24.17,3.39,22.35-10.66,48.81-28.92,54.43A22.87,22.87,0,0,1,283.19,364.45Zm-55.85-21.83a77.17,77.17,0,0,1,11.08.86c14.3,2.09,23.32,6.56,30.56,10.15,7.45,3.69,12.37,6.13,19.24,4,15.44-4.75,27.7-28.43,24.76-47.8-1.51-9.92-6.4-14.42-13.18-20.65-6.1-5.62-13.7-12.6-21-25.63C269,246,267.5,231.61,266.28,220c-1.17-11.12-1.94-18.47-9.43-23.11-6.6-4.09-13.21-3-21.6-1.63-9.75,1.6-21.89,3.59-36.86-3.31a46.65,46.65,0,0,1-13.23-9c-3.06-2.77-5.26-4.78-10.58-6.2-18.49-4.95-43.51,6.08-51.47,22.68-3.49,7.27-2.24,12.38-.17,20.86a126.11,126.11,0,0,1,4.3,31.49,111.4,111.4,0,0,1-5.6,37.34c-2.57,8.45-4.12,13.55-1,21.68,9,23.46,43.92,34.64,65.18,36.43,11.07.93,17.34-.58,24-2.19A68.53,68.53,0,0,1,227.34,342.62Z"/><path d="M271.41,169.27c-12.31,0-27.35-3.57-42.61-15.84a3,3,0,0,1-.71-3.85c.52-.89,13-22,34.54-23.64,15.53-1.18,31.35,8.07,47,27.53a3,3,0,0,1,.64,2.27,3,3,0,0,1-1.21,2A68.27,68.27,0,0,1,284.29,168,65.71,65.71,0,0,1,271.41,169.27Zm-36.7-18.85c30.3,22.69,59.3,9.31,68.13,4.21-13.62-16-27-23.69-39.75-22.71C248.44,133,238.3,145.34,234.71,150.42Z"/><path d="M210.24,172.82a3,3,0,0,1-2.48-4.68c.22-.32,22-31.6,61.84-23.52a3,3,0,0,1-1.19,5.88c-35.83-7.28-54.89,19.86-55.69,21A3,3,0,0,1,210.24,172.82Z"/><path d="M362.35,266.52a3.05,3.05,0,0,1-.6-.06A68.58,68.58,0,0,1,337.49,255c-11.24-8.22-25-23.69-26.7-50.77a3,3,0,0,1,2.36-3.12c1-.22,25-5.24,40.76,9.54,11.35,10.67,15.19,28.59,11.41,53.29a3,3,0,0,1-3,2.55ZM317,206.59c1.79,18.5,9.8,33.11,23.84,43.45a66.19,66.19,0,0,0,19,9.68c2.66-20.88-.72-35.9-10.05-44.66C339.09,205,323.17,205.81,317,206.59Z"/><path d="M342.25,233a3,3,0,0,1-2.58-1.46c-18.8-31.36-51.69-27.12-53.08-26.93a3,3,0,0,1-.85-5.94c.38-.06,38.18-5.06,59.08,29.78a3,3,0,0,1-2.57,4.55Z"/><path d="M343.23,387.37a2.88,2.88,0,0,1-.65-.07,3,3,0,0,1-1.92-1.38,68.37,68.37,0,0,1-8.06-25.57c-1.58-13.83.47-34.43,19.2-54.06a3,3,0,0,1,3.89-.38c.85.59,20.82,14.83,20.64,36.42-.14,15.58-10.71,30.56-31.42,44.53A3,3,0,0,1,343.23,387.37Zm11.06-74.93c-12.37,13.86-17.67,29.66-15.75,47A66.29,66.29,0,0,0,344.32,380c17.15-12.21,25.89-24.87,26-37.68C370.45,327.59,359.05,316.44,354.29,312.44Z"/><path d="M354.24,349.85a3.12,3.12,0,0,1-.85-.12,3,3,0,0,1-2-3.73c10.32-35.2-15.95-57-16.21-57.26a3,3,0,1,1,3.78-4.66c.3.24,29.62,24.63,18.19,63.61A3,3,0,0,1,354.24,349.85Z"/><path d="M357.16,175.79a13,13,0,1,1,13-13A13,13,0,0,1,357.16,175.79Zm0-20a7,7,0,1,0,7,7A7,7,0,0,0,357.16,155.83Z"/><path d="M303.81,266.12a13,13,0,1,1,13-13A13,13,0,0,1,303.81,266.12Zm0-20a7,7,0,1,0,7,7A7,7,0,0,0,303.81,246.16Z"/><path d="M383.31,301.57a13,13,0,1,1,13-13A13,13,0,0,1,383.31,301.57Zm0-20a7,7,0,1,0,7,7A7,7,0,0,0,383.31,281.61Z"/><path d="M185.61,142.28a13,13,0,1,1,13-13A13,13,0,0,1,185.61,142.28Zm0-20a7,7,0,1,0,7,7A7,7,0,0,0,185.61,122.31Z"/><path d="M174.29,270.42a34.31,34.31,0,1,1,34.32-34.31A34.35,34.35,0,0,1,174.29,270.42Zm0-62.62a28.31,28.31,0,1,0,28.32,28.31A28.34,28.34,0,0,0,174.29,207.8Z"/><path d="M178.42,255a3,3,0,0,1-.35-6c1.41-.18,13.56-2.22,11.52-18.41a3,3,0,0,1,6-.75c.91,7.28-.42,13.27-4,17.79a20.67,20.67,0,0,1-12.81,7.33Z"/><path d="M250.52,335.07a34.32,34.32,0,1,1,34.31-34.31A34.35,34.35,0,0,1,250.52,335.07Zm0-62.63a28.32,28.32,0,1,0,28.31,28.32A28.35,28.35,0,0,0,250.52,272.44Z"/><path d="M254.65,319.6a3,3,0,0,1-.36-6c1.41-.19,13.56-2.22,11.53-18.41a3,3,0,1,1,5.95-.75c.92,7.28-.42,13.26-4,17.79a20.54,20.54,0,0,1-12.8,7.32A2.06,2.06,0,0,1,254.65,319.6Z"/></svg>