<svg xmlns="http://www.w3.org/2000/svg" version="1.1" viewBox="-5.0 -10.0 110.0 135.0">
 <path d="m27.48 39.121c0.035156 0.054687 0.050781 0.050781 0.039062-0.015625-0.054687-0.43359-0.22266-0.91406-0.26562-1.3047-0.054687-0.44531-0.17578-0.80078-0.20312-1.2422-0.007812-0.15625-0.046875-0.46094-0.11328-0.89844-0.050781-0.34375-0.082031-0.64453-0.089844-0.89453-0.019531-0.80859-0.023437-1.6133-0.007812-2.4219 0.003906-0.43359 0.050781-0.73828 0.13281-0.92188 0.19922-0.43359 0.58594-0.66016 1.1562-0.67578 0.17188-0.011719 0.41797-0.007813 0.74219 0.007812 0.16016 0.011719 0.39844 0.042969 0.72266 0.10547 0.27734 0.046875 0.51562 0.082031 0.72266 0.10938 0.36719 0.035156 0.6875 0.14453 1.0156 0.18359 0.21094 0.023437 0.44922 0.070312 0.71875 0.14062 0.015625 0 0.25 0.050781 0.71484 0.14844 0.99609 0.21875 1.9375 0.48047 2.832 0.78125 0.089844 0.03125 0.13281 0 0.13281-0.09375 0-0.20703 0.007812-0.35156 0.03125-0.44531 0.12891-0.57031 0.28516-1.1484 0.51953-1.6641 0.28125-0.625 0.59766-1.1641 0.95312-1.6289 0.72266-0.94141 1.6836-1.6367 2.8867-2.0664 0.39062-0.14844 0.83203-0.24219 1.3203-0.28906 1.3672-0.12891 2.6875 0.054688 3.9688 0.55469 0.35156 0.12891 0.88281 0.34766 1.6016 0.64453 0.19531 0.078125 0.39453 0.12891 0.60156 0.15234 0.085938 0.003906 0.13672-0.03125 0.15234-0.12109 0.015625-0.078125 0.027344-0.16797 0.03125-0.26953 0.03125-0.53906 0.0625-0.94922 0.09375-1.2344 0.003906-0.070313 0.003906-0.17969-0.011719-0.33594-0.035156-0.47656-0.050781-0.72266-0.050781-0.72656-0.015625-0.23047-0.050781-0.46875-0.10938-0.71484-0.35938-1.5469-1.125-2.8594-2.2969-3.9375-0.26172-0.23828-0.61328-0.45703-0.88672-0.66797-0.22266-0.17188-0.35156-0.375-0.39062-0.60156-0.035156-0.23047 0.007813-0.44922 0.13672-0.65234 0.17188-0.27734 0.45312-0.40625 0.84766-0.37891 0.13672 0.003906 0.3125 0.070312 0.53906 0.20312 0.34375 0.20312 0.71875 0.48438 1.0312 0.78125 0.53906 0.52344 0.98438 1.0469 1.3281 1.5664 0.035156 0.050781 0.082031 0.125 0.14062 0.21875 0.007812 0.015625 0.019531 0.015625 0.03125 0 0.53516-1.0195 1.2227-1.9492 2.0547-2.7812 0.71094-0.70703 1.5-1.2305 2.375-1.5742 0.21484-0.082031 0.54688-0.17969 1.0117-0.28906 0.40234-0.09375 0.74609-0.14844 1.0352-0.15234 0.67188-0.019531 1.2891-0.035156 1.9062 0.17188 0.44531 0.14453 0.74609 0.37109 0.90625 0.79688 0.17188 0.45312 0.16797 0.87891 0.15625 1.3633-0.003906 0.23438-0.023437 0.46484-0.0625 0.69531-0.13281 0.81641-0.32812 1.5625-0.57031 2.2266-0.32422 0.875-0.84375 1.6094-1.5625 2.1992-0.27734 0.23047-0.60938 0.4375-1.0078 0.62109-0.44141 0.20703-0.8125 0.34766-1.1094 0.42188-0.13281 0.035156-0.50391 0.097656-1.1133 0.1875-0.28516 0.039062-0.55859 0.046875-0.82422 0.015625-0.67969-0.085938-1.1719-0.14062-1.75-0.35938-0.09375-0.039063-0.13281-0.007813-0.11719 0.09375 0.015625 0.10938 0.0625 0.20703 0.0625 0.34375 0.019531 0.53906 0.023437 1.1133 0.007812 1.7109-0.003906 0.34375-0.0625 0.6875-0.16406 1.0273-0.007813 0.019531 0 0.042969 0.007812 0.058594 0.03125 0.050781 0.085938 0.066406 0.15625 0.046875 0.80859-0.21094 1.5156-0.38281 2.1211-0.52734 0.37109-0.082031 0.6875-0.089844 1.0586-0.16016 0.5625-0.10938 1.1758-0.14844 1.8477-0.11719 0.1875 0.011719 0.40625 0.042969 0.65234 0.089844 0.23438 0.046875 0.59766 0.10938 0.85156 0.18359 1.3594 0.39453 2.5938 1.2695 3.4961 2.3594 0.58203 0.70703 1.0586 1.4531 1.4219 2.2266 0.26953 0.57422 0.48828 1.2188 0.66016 1.9375 0.027344 0.12109 0.011719 0.27734 0.078125 0.35938 0.03125 0.042969 0.0625 0.042969 0.089844-0.003906 0.11328-0.18359 0.24609-0.35938 0.39453-0.53516 0.14844-0.16797 0.22656-0.25 0.22656-0.25781 0.28516-0.33203 0.61328-0.67188 0.98438-1.0156 1.6445-1.5195 3.5469-2.5938 5.6953-3.207 0.77344-0.22266 1.4141-0.36328 1.9297-0.42578 0.070312-0.011719 0.48828-0.042969 1.2422-0.09375 0.44531-0.03125 0.85938-0.039063 1.25-0.015625 0.79297 0.039062 1.3438 0.082031 1.6562 0.12891 0.37109 0.050781 0.98438 0.19141 1.8555 0.41797 0.49609 0.125 1.1055 0.35156 1.8242 0.67969 2.3359 1.0742 4.2188 2.6797 5.6445 4.8203 0.39062 0.58594 0.75 1.25 1.0742 1.9883 0.085937 0.20312 0.1875 0.45312 0.28516 0.75 0.15234 0.42188 0.24609 0.67188 0.32812 1.0156 0.20312 0.83203 0.32812 1.5117 0.37891 2.043 0.054688 0.50781 0.058594 1.3516 0.015625 2.5312-0.007812 0.28125-0.039062 0.54688-0.10156 0.79688-0.078125 0.33203-0.089844 0.69531-0.19531 1.0508-0.023437 0.082031-0.10938 0.40625-0.25391 0.96875-0.027344 0.089844-0.027344 0.16797-0.003906 0.23047 0.003906 0.019531 0.019531 0.03125 0.046875 0.023437 0.48438-0.078125 0.94141-0.085937 1.375-0.03125 0.19141 0.027344 0.41016 0.10547 0.59766 0.21094 0.10938 0.0625 0.40234 0.23438 0.87109 0.51953 0.71094 0.43359 1.2344 1.043 1.5547 1.8242 0.23438 0.57031 0.29688 1.1641 0.39844 1.8906 0.007812 0.066406 0.007812 0.13281 0 0.21094-0.13672 1.2109-0.39062 2.3242-1.2148 3.1367-0.26562 0.26172-0.60938 0.5625-1.0273 0.90625-0.29688 0.23438-0.63281 0.27734-1.0156 0.28516-0.58203 0.015625-1.2852 0.011719-2.125-0.003906-0.085937 0-0.14062 0.042969-0.16016 0.12891-0.0625 0.27734-0.11328 0.57031-0.18359 0.82031-0.39844 1.5156-0.74219 2.7422-1.0234 3.6953-0.50781 1.6953-1.0547 3.2891-1.6484 4.7812-0.32812 0.82031-0.71094 1.6562-1.1602 2.5117-0.59766 1.1406-1.3008 2.1992-2.1211 3.168-0.75781 0.90625-1.5664 1.7344-2.4219 2.4844-1.7188 1.5039-3.6133 2.7656-5.6914 3.7734-0.46875 0.23047-0.87891 0.41797-1.2305 0.57422-0.89844 0.38672-1.7891 0.69141-2.6797 0.92188-0.45312 0.12109-1.0469 0.25-1.7891 0.39453-0.28516 0.054688-0.64453 0.10547-1.0781 0.15234-0.38281 0.042969-0.74219 0.089844-1.0781 0.15234-0.11719 0.019531-0.1875 0.082031-0.20312 0.19141-0.019531 0.15625-0.03125 0.25391-0.03125 0.30859 0 0.53906-0.015625 1.0352-0.046875 1.4844-0.046875 0.78125-0.039062 1.4414-0.09375 2.2031-0.050781 0.75391-0.3125 1.3828-1.1758 1.4414-0.14062 0.011719-0.37891 0.011719-0.71484 0.011719-2.5039-0.03125-4.9883-0.070313-7.457-0.11719-0.51953-0.007812-0.97266-0.015625-1.3633-0.015625-3.6953-0.007812-7.3867-0.023437-11.086-0.046875-0.35938 0-0.62891-0.019531-0.81641-0.050781-0.35547-0.066406-0.61328-0.14062-0.79297-0.21875-0.32812-0.15234-0.53125-0.45312-0.60156-0.91016-0.046875-0.28125-0.074219-0.59375-0.078125-0.92969-0.023438-1.2109-0.03125-2.2031-0.03125-2.957 0-0.0625-0.03125-0.09375-0.09375-0.089844-0.078125 0.007813-0.15625 0-0.23047-0.007812-0.51953-0.10156-0.88672-0.16797-1.0938-0.19922-0.42188-0.0625-0.78125-0.125-1.0742-0.19141-1.0352-0.23047-2.0312-0.51562-2.9922-0.85938-0.78125-0.27734-1.5156-0.59375-2.2031-0.95312-1.6797-0.875-3.1875-1.9062-4.5273-3.0938-0.76953-0.6875-1.5938-1.5625-2.4727-2.625-1.4961-1.8086-2.793-3.625-3.8984-5.4531-0.64062-1.0586-1.1797-2.0391-1.625-2.9375-0.67578-1.375-1.207-2.7188-1.5938-4.0312-0.23828-0.80859-0.44141-1.7266-0.60156-2.7578-0.023438-0.12891-0.03125-0.23438-0.03125-0.32031 0-0.12109-0.011719-0.23047-0.027344-0.32031-0.015625-0.070312-0.058594-0.10156-0.125-0.10156-0.82812 0.007812-1.4336 0.007812-1.8125 0.007812-0.28516-0.003906-0.55078-0.03125-0.80859-0.082031-0.11328-0.019531-0.23828-0.082031-0.36719-0.17578-0.26562-0.1875-0.59375-0.44531-0.98438-0.75-0.77734-0.62109-1.4531-1.4766-1.5781-2.4805-0.039063-0.33984-0.039063-0.72266 0.003906-1.1562 0.035156-0.37109 0.14062-0.74609 0.30078-1.125 0.15625-0.34766 0.35938-0.73438 0.62109-1.1445 0.34766-0.55469 0.76562-1.0117 1.25-1.3711 0.12109-0.089844 0.25391-0.14453 0.39453-0.17188 0.0625-0.011719 0.085938-0.042969 0.0625-0.097656-0.050781-0.15234-0.12891-0.30859-0.23828-0.46875-1.0898-1.6328-2-3.3086-2.7461-5.0469-0.73438-1.7266-1.2656-3.5156-1.5859-5.3711-0.039063-0.20703-0.085938-0.55859-0.14062-1.0508-0.023438-0.21094-0.054688-0.44531-0.089844-0.69922-0.035156-0.26172-0.0625-0.49609-0.074219-0.70312-0.023437-0.53516-0.03125-1.5898-0.007812-3.1523 0.003906-0.41016 0.03125-0.80078 0.082031-1.1719 0.046875-0.36328 0.074219-0.54688 0.074219-0.55078 0.10938-0.82422 0.19531-1.4023 0.27344-1.7305 0.54688-2.3008 1.4062-4.4727 2.5859-6.5078 0.29688-0.52344 0.55078-0.89062 0.76562-1.1211 0.42188-0.45312 0.87891-0.78516 1.3633-1.0039 0.625-0.27734 1.2656-0.30859 1.9102-0.089844 1.0742 0.35547 1.8594 1.3711 2.2031 2.418 0.15625 0.48828 0.1875 0.87891 0.29297 1.5664 0.050781 0.35547 0.050781 0.625 0.0625 1.0508 0.003906 0.26172 0.035156 0.55859 0.10547 0.88672 0.16016 0.80859 0.42578 1.6211 0.79688 2.4375 0.33594 0.74609 0.6875 1.4336 1.0391 2.0625 0.76562 1.3555 1.6328 2.7617 2.6016 4.2148 1.3633 2.0547 2.9102 4.3125 4.6289 6.7656 0.14453 0.20312 0.23438 0.33203 0.27734 0.39062zm23.016-19.039c-0.41406 0.54297-0.73438 1.0586-0.96875 1.5625-0.027344 0.054688-0.03125 0.10938-0.015625 0.16797 0.007812 0.046875 0.039062 0.089844 0.09375 0.125 0.39453 0.28125 0.78906 0.45703 1.1875 0.52734 0.42969 0.070312 0.96094 0.082031 1.5938 0.035156 0.38281-0.03125 0.8125-0.1875 1.1445-0.33203 0.55859-0.24609 1-0.59375 1.3281-1.043 0.16016-0.23047 0.31641-0.55078 0.46875-0.98047 0.17188-0.5 0.27734-0.84766 0.30859-1.0469 0.11328-0.74219 0.17578-1.0508 0.17188-1.4414 0-0.074219-0.039063-0.10938-0.10547-0.12109-1.0586-0.11328-2.0469 0.0625-2.9727 0.53125-0.20312 0.10547-0.39844 0.22656-0.58594 0.36719-0.60938 0.46094-1.1562 1.0078-1.6484 1.6484zm-38.281 2.1953c0.17578 0.34375 0.45703 0.64062 0.84375 0.89062 0.55469 0.35938 1.1094 0.59766 1.6484 0.71094 0.70312 0.15625 1.2148 0.24609 1.5312 0.28125 0.054688 0.007813 0.10547-0.003906 0.15625-0.023437 0.027344-0.011719 0.039063-0.03125 0.027344-0.0625-0.042969-0.13281-0.078125-0.26172-0.10938-0.40234-0.027344-0.125-0.042969-0.26172-0.050781-0.40625-0.089844-1.1992-0.17188-2.0312-0.24609-2.5-0.078125-0.48828-0.27734-0.92188-0.58984-1.293-0.19141-0.22266-0.57812-0.49219-0.89453-0.41016-0.70312 0.1875-1.1289 0.76172-1.4805 1.3711-0.25391 0.45703-0.53516 0.98828-0.82812 1.5859-0.046875 0.089844-0.046875 0.17969-0.007812 0.25781zm17.973 23.312c0.09375 0.03125 0.17188 0.035156 0.23828 0.019531 0.015625-0.003906 0.023438-0.015625 0.007813-0.03125-0.36719-0.42578-0.64062-0.73047-0.83594-0.90234-0.20312-0.1875-0.39062-0.37891-0.5625-0.57812-1.0391-1.2031-2.0625-2.5078-3.0664-3.9141-1.6289-2.2812-3.2383-4.6211-4.832-7.0234-0.35938-0.53906-0.85156-1.3008-1.4766-2.2812-0.85156-1.3516-1.6289-2.7422-2.3164-4.1875-0.14062-0.28906-0.23828-0.53906-0.29688-0.75781-0.027344-0.089844-0.082031-0.12109-0.17188-0.09375-0.24609 0.0625-0.49609 0.078125-0.75 0.039062-0.19922-0.023437-0.29688-0.039062-0.30078-0.039062-0.68359-0.078125-1.2891-0.19531-1.8125-0.33984-0.72656-0.20703-1.4219-0.55859-2.0898-1.0469-0.12109-0.089844-0.26562-0.21484-0.42578-0.375-0.0625-0.066406-0.11719-0.058594-0.14844 0.03125-0.40625 1.1289-0.70703 2.3086-0.90625 3.5273-0.015625 0.09375-0.03125 0.24219-0.039062 0.45312-0.011719 0.15625-0.027344 0.30469-0.046875 0.45312-0.125 0.90625-0.17188 1.9219-0.13672 3.0469 0.019531 0.53906 0.050781 0.96094 0.10547 1.2656 0.078125 0.47266 0.0625 0.92188 0.13281 1.375 0.17969 1.0938 0.41797 2.1602 0.71484 3.2031 0.23047 0.79688 0.46484 1.5 0.70703 2.0977 0.75 1.8789 1.7109 3.6992 2.8711 5.4492 0.003906 0.003906 0.046875 0.066406 0.125 0.19141 0.09375 0.14453 0.25391 0.34766 0.41797 0.34766 5.0352-0.007812 9.8906-0.007812 14.555 0 0.0625 0 0.12109 0.011719 0.17188 0.023438 0.074219 0.019531 0.13281 0.035156 0.16797 0.046875zm20.816-0.085938c0.015625 0.039063 0.039063 0.046875 0.074219 0.046875 0.24609-0.023437 0.42188-0.035156 0.52734-0.035156 1.3516 0 2.8008 0 4.3477 0.011719 0.089844 0 0.16016-0.023438 0.21484-0.070313 0.28516-0.23828 0.53906-0.57812 0.75781-0.83594 0.49609-0.58984 0.94531-1.2578 1.3438-2.0117 0.71484-1.3477 1.2266-2.7188 1.5312-4.1055 0.085938-0.35938 0.10547-0.67188 0.17969-0.95312 0.054687-0.21875 0.09375-0.45703 0.10156-0.71094 0.054688-0.92969 0.046875-1.6211-0.003906-2.0781-0.19141-1.7031-0.87109-3.2266-2.0273-4.5625-0.67969-0.78906-1.6953-1.4648-2.7227-1.6719-0.46875-0.09375-0.89453-0.14062-1.2812-0.14062-0.33984 0-0.68359 0.078125-0.99609 0.097656-0.21875 0.015625-0.46875 0.050781-0.73828 0.10938-0.52734 0.10547-0.85547 0.17188-0.98047 0.20703-1.0469 0.29297-1.8438 0.46094-2.3945 0.51562-0.53125 0.054688-0.97266 0.046875-1.3281-0.015625-0.4375-0.070312-0.91797-0.21094-1.4492-0.41016-0.070312-0.027344-0.48438-0.19141-1.2344-0.49609-0.33594-0.14062-0.76953-0.28125-1.2969-0.42188-0.17578-0.050781-0.35938-0.082031-0.55078-0.09375-0.35938-0.023437-0.74609-0.097656-1.0977-0.078125 0 0-0.18359 0.023438-0.54297 0.058594-0.29688 0.035156-0.57812 0.097656-0.83203 0.19141-1.0117 0.37109-1.7891 1.0117-2.3398 1.918-0.39062 0.65234-0.67188 1.3398-0.83984 2.0742-0.050781 0.24219-0.085937 0.47656-0.10156 0.69531-0.007813 0.078125 0.03125 0.13281 0.10156 0.16406 1.1094 0.44531 2.168 0.95703 3.1797 1.5195 2.2852 1.2852 4.3203 2.9219 6.0977 4.918 1.3594 1.5234 2.5117 3.0234 3.4688 4.6406 0.29688 0.5 0.50391 0.84375 0.62109 1.0312 0.097656 0.16016 0.14062 0.29688 0.21094 0.49219zm11.875 0.042969c0.074219 0.019531 0.13672 0.03125 0.19531 0.035156 0.0625 0.007813 0.085937-0.023437 0.070312-0.085937-0.023437-0.10938-0.039062-0.21094-0.054687-0.30469-0.054688-0.36328-0.19922-0.75391-0.21484-1.0352-0.03125-0.46875-0.10938-1.207-0.09375-1.7383 0.015625-0.60938 0.058594-1.1328 0.12109-1.5703 0.13281-0.84766 0.37891-1.6875 0.74219-2.5156 1.0898-2.4727 2.9961-4.3516 5.4648-5.4297 0.27734-0.12109 0.61328-0.24219 1.0156-0.36719 0.50391-0.14844 0.85547-0.23828 1.0469-0.25781 0.85938-0.10938 1.418-0.17188 1.6602-0.19531 0.23438-0.019531 0.42188-0.019531 0.57031 0 0.52344 0.0625 0.85156 0.10547 0.98438 0.12109 0.39062 0.046875 0.71875 0.10547 0.97656 0.16797 0.72656 0.17188 1.4023 0.41016 2.0273 0.70703 1.625 0.78125 2.9492 1.9102 3.9688 3.3906 0.54297 0.78516 0.95703 1.6094 1.2617 2.4844 0.125 0.375 0.25 0.81641 0.36719 1.332 0.042969 0.1875 0.074219 0.39062 0.09375 0.60938 0.054688 0.59375 0.10156 1.0586 0.09375 1.5312 0 0.32812-0.03125 0.78906-0.085937 1.3711-0.058594 0.56641-0.21875 1.0977-0.32031 1.6914-0.015625 0.089844 0.023438 0.12109 0.10547 0.10156 0.29297-0.070313 0.60938-0.085938 0.94141-0.042969 0.09375 0.011719 0.15625-0.011719 0.1875-0.0625 0.10547-0.16797 0.19922-0.36328 0.28125-0.59375 0.046875-0.14062 0.14844-0.49609 0.28906-1.0586 0.039062-0.15625 0.070312-0.32031 0.097656-0.50781 0.0625-0.42969 0.15625-0.92188 0.1875-1.293 0.046875-0.63672 0.035156-1.3164-0.066406-1.9688-0.042969-0.25391-0.070313-0.42188-0.085938-0.49609-0.046875-0.3125-0.09375-0.55469-0.13281-0.73828-0.47656-1.9688-1.3867-3.6836-2.7461-5.1367-1.2461-1.332-2.7305-2.3164-4.4531-2.9531-1.0898-0.39844-2.1055-0.64453-3.0508-0.72266-0.35938-0.03125-1.0078-0.035156-1.9375-0.019531-0.35938 0.003906-0.73047 0.039062-1.0938 0.10156-0.60156 0.10938-0.96094 0.17969-1.0898 0.21094-0.91016 0.22266-1.7852 0.55078-2.625 0.97266-1.9648 0.99609-3.543 2.4023-4.7344 4.2305-0.078125 0.125-0.21484 0.34766-0.40234 0.67578-0.125 0.22266-0.25781 0.44922-0.39844 0.67188-0.12109 0.17578-0.14062 0.30078-0.16797 0.53125-0.03125 0.25-0.046875 0.39062-0.050781 0.41797-0.14062 0.78125-0.29297 1.4609-0.45312 2.0547-0.058594 0.21094-0.089844 0.38672-0.10156 0.52734-0.019531 0.39062-0.046875 0.79688-0.097656 1.2539-0.035156 0.3125-0.046875 0.55469-0.027344 0.73047 0.03125 0.29688 0.058594 0.55078 0.078125 0.76562 0.03125 0.30859 0.070313 0.5625 0.10938 0.76562 0.12109 0.55078 0.32031 1.0781 0.60156 1.5742 0.03125 0.054687 0.082031 0.082031 0.14844 0.078125 0.21094-0.023438 0.41797-0.03125 0.60938-0.03125 0.0625 0 0.125 0.003906 0.1875 0.019531zm-14.066 0.046875c0.058594 0.011719 0.074219-0.015625 0.050781-0.066406-0.085937-0.24219-0.1875-0.44922-0.29688-0.625-0.44141-0.71875-0.96875-1.4844-1.582-2.3125-0.58203-0.78125-1.3125-1.6406-2.1992-2.5781-1.3672-1.4609-2.9531-2.7109-4.7422-3.7617-2.2812-1.3398-4.7734-2.3164-7.4609-2.9375-0.78125-0.17578-1.2734-0.28516-1.4844-0.32422-0.37891-0.0625-0.60156-0.10156-0.66406-0.11719-0.25-0.058594-0.47656-0.09375-0.67188-0.11719-0.36719-0.035156-0.69922-0.097656-1-0.17969-0.078125-0.023438-0.12109 0.007812-0.125 0.09375-0.007813 0.42969-0.007813 0.97656 0 1.6445 0.007812 0.51953 0.035156 0.90234 0.082031 1.1445 0.042969 0.18359 0.089844 0.57422 0.14453 1.1641 0.054688 0.53125 0.21094 1.3594 0.47656 2.4883 0.21094 0.89453 0.37891 1.5742 0.49219 2.0352 0.15625 0.58984 0.28125 1.0078 0.38281 1.2461 0.082031 0.20312 0.17578 0.37109 0.28125 0.49609 0.26953 0.32812 0.60938 0.67578 0.99219 1.0547 0.40625 0.40625 0.83984 0.88672 1.3086 1.4492 0.089844 0.10938 0.1875 0.16016 0.29297 0.15234 0.21875-0.015625 0.37891-0.027344 0.47656-0.027344 6.1484-0.003906 11.078-0.003906 14.797 0.003906 0.16406 0 0.29688 0.058594 0.44922 0.074219zm24.781-5.1055c0.003906 0.011719 0.011719 0.011719 0.019531 0.007813 0.16406-0.14844 0.32422-0.36719 0.5-0.54297 2.168-2.1211 3.5391-3.4648 4.1211-4.0273 0.050781-0.050781 0.050781-0.10156-0.011719-0.14844-0.74219-0.58984-1.5469-1.0312-2.4102-1.3398-0.68359-0.24609-1.3789-0.42578-2.1094-0.4375-0.035156 0-0.058594 0.015625-0.066406 0.046875-0.039063 0.12891-0.011719 0.30078-0.011719 0.40625-0.050781 1.9492-0.078125 3.9023-0.078125 5.8438 0 0.066406 0.015625 0.13672 0.046875 0.19141zm-1.9258-0.59766c0.015625 0.003906 0.023437 0.003906 0.03125-0.003906 0.023437-0.039063 0.035156-0.085938 0.035156-0.14062 0.003906-0.29688 0.019531-2.168 0.035156-5.6016 0-0.085937-0.039062-0.11719-0.125-0.09375-0.39062 0.125-0.80078 0.19531-1.207 0.32812-1.0195 0.35547-1.9375 0.875-2.7617 1.5586-0.03125 0.027344-0.03125 0.046875-0.003906 0.074219 0.89062 0.84375 2.1055 2.0156 3.6445 3.5 0.042969 0.039062 0.10547 0.10156 0.17969 0.19531 0.097656 0.10938 0.14844 0.17188 0.17188 0.18359zm7.9414-2.6602c-0.019531-0.007813-0.035156-0.007813-0.058594 0.015625-0.80078 0.78125-1.2266 1.1953-1.2812 1.2422-0.53906 0.53906-1.5664 1.5391-3.082 3-0.015625 0.015625-0.015625 0.03125-0.003906 0.046875 0.019531 0.039063 0.050781 0.054688 0.09375 0.054688 0.53906 0 1.3672-0.023438 2.4922-0.0625 0.28906-0.015625 0.89062-0.054688 1.8125-0.12109 0.60938-0.042969 1.1484-0.058594 1.6094-0.042969 0.054688 0 0.085938-0.023437 0.085938-0.078125-0.007813-0.12891-0.023438-0.25-0.054688-0.36719-0.078125-0.30469-0.17969-0.84375-0.3125-1.2188-0.29688-0.875-0.70703-1.6836-1.2383-2.418-0.015625-0.027344-0.035156-0.042969-0.0625-0.050781zm-13.238 0.13281c-0.027344 0.015625-0.042969 0.03125-0.058594 0.054688-0.65625 0.87891-1.125 1.8672-1.4062 2.9688l-0.1875 0.82812c-0.058594 0.23828-0.074219 0.46094-0.082031 0.69531-0.007813 0.054688-0.007813 0.089844 0.003906 0.10938 0.019531 0.054688 0.058594 0.078125 0.10938 0.070313 0.13672-0.023438 0.27734-0.039063 0.42578-0.054688 0.17969-0.015625 0.32031-0.023437 0.42969-0.03125 1.0938-0.007812 1.9102-0.03125 2.4453-0.050781 0.60547-0.019531 1.3047-0.074219 2.1055-0.14062 0.18359-0.015625 0.42188-0.019531 0.71875-0.011719 0.03125 0.007813 0.058594-0.007812 0.074219-0.03125 0.015625-0.019531 0.015625-0.039062 0-0.0625-1.5703-1.4688-3.0469-2.8906-4.4453-4.2578-0.066406-0.070313-0.11328-0.09375-0.13281-0.085938zm14.66 5.8125c-0.65234 0.054688-1.0117 0.085938-1.0664 0.089844-0.375 0.03125-0.73047 0.050781-1.0625 0.0625-0.62109 0.011719-1.6641 0.019531-2.5078 0.074219-0.3125 0.019531-0.58594 0.03125-0.82812 0.035156h-0.019531c-0.066406 0.03125-0.074219 0.074219-0.015625 0.12891 0.8125 0.77344 1.3867 1.3242 1.7188 1.6562 0.10547 0.10156 0.23438 0.18359 0.39062 0.24609 0.097656 0.035156 0.24609 0.058594 0.4375 0.050781 0.80859-0.007812 1.6367-0.003906 2.4844 0.015625 0.097656 0.007813 0.17188-0.039062 0.20703-0.12891 0.22656-0.5 0.28125-0.82812 0.44922-1.5508 0.046875-0.20312 0.074219-0.40234 0.074219-0.60156 0-0.0625-0.03125-0.09375-0.10156-0.085937-0.09375 0.003906-0.14453 0.003906-0.16016 0.007812zm-10.754 0.5625c0.003906-0.003906 0.003906-0.015625-0.007813-0.019531-0.13281-0.050781-0.39844 0.011719-0.42578 0.011719-0.097656 0.007812-0.20703 0.015625-0.33984 0.015625-1.2227 0.015625-2.3125 0.050781-3.2656 0.10156-0.30078 0.015625-0.64062 0.042969-1.0195 0.085938-0.13672 0.015625-0.28125 0-0.40625 0-0.074219 0-0.097656 0.035156-0.078125 0.10156 0.050781 0.18359 0.097656 0.375 0.13672 0.57812 0.050781 0.27734 0.15625 0.57422 0.26562 0.79688 0.046875 0.09375 0.11328 0.13672 0.21875 0.13672 0.1875-0.003906 0.41406-0.035156 0.61719-0.035156 0.60156 0.003906 1.2344 0.007812 1.9023 0.015625 0.20312 0 0.35938-0.023438 0.46875-0.0625 0.14453-0.058594 0.28125-0.14062 0.40625-0.26172 0.75391-0.74609 1.2656-1.2305 1.5273-1.4648zm-11.656 1.793c-0.007813 0.011719-0.007813 0.019531 0.003906 0.03125 0.027344 0.03125 0.066406 0.042969 0.12109 0.03125 0.25-0.042969 0.42969-0.066406 0.54688-0.066406 0.16406-0.007813 0.3125 0.035156 0.45703 0.0625 0.078125 0.007812 0.10938-0.027344 0.089844-0.10547l-0.28125-1.1133c-0.039063-0.14844-0.089844-0.16406-0.16406-0.039063-0.03125 0.054688-0.054687 0.14844-0.10156 0.21484-0.37109 0.54688-0.58984 0.875-0.67188 0.98438zm16.242 0.003906c-0.078125-0.085937-0.17188-0.1875-0.28125-0.29688-0.45312-0.44141-0.76562-0.75391-0.92578-0.92969-0.097656-0.10547-0.14453-0.085938-0.14453 0.054687 0.003906 0.27734 0.015625 0.62109 0.023437 1.0391 0.007813 0.12891 0.078125 0.1875 0.21875 0.16016 0.37109-0.058594 0.72656-0.035156 1.0586 0.058594 0.10938 0.03125 0.12891 0.003906 0.050781-0.085938zm-3.2891-0.5625-0.46484 0.60156v0.003906h0.003906c0.0625 0.050781 0.13672 0.0625 0.22656 0.035156 0.085937-0.019531 0.16016-0.070312 0.22656-0.15625l0.007813-0.015625c0.15625-0.19141 0.15625-0.34766 0.007812-0.46094l-0.003906-0.007813h-0.003906zm16.879 3.3398c-0.10938-0.13672-0.21484-0.23438-0.3125-0.29688-0.24609-0.16016-0.51562-0.27734-0.8125-0.34375-0.19141-0.042969-0.48438-0.066406-0.87109-0.066406h-70.488c-0.31641 0-0.5625 0.003906-0.73828 0.019531-0.10938 0.003906-0.35938 0.015625-0.73438 0.027344-0.40625 0.007812-0.66406 0.23438-0.91406 0.53906-0.4375 0.52734-0.75391 1.1328-0.95312 1.8086-0.11719 0.40625-0.085937 0.6875 0.09375 1.0469 0.27734 0.55078 0.69922 0.94922 1.25 1.1914 0.32422 0.13672 0.58594 0.23047 0.91406 0.23438 0.48828 0.011719 0.85938 0.015625 1.1016 0.015625 35.512-0.007812 58.855-0.003906 70.023 0 0.6875 0 1.1328-0.003906 1.332-0.015625 0.28125-0.015625 0.54297-0.13281 0.79297-0.35938 0.45703-0.41016 0.70703-0.91016 0.75-1.4883 0.03125-0.39453 0.03125-0.80078 0.003906-1.207-0.027344-0.40234-0.17188-0.77344-0.4375-1.1055zm-5 6.293c-0.003906-0.0625-0.035156-0.09375-0.10547-0.085938-0.09375 0.011719-0.19531 0.015625-0.30469 0.015625-1.1875 0.011719-2.6719 0.015625-4.4609 0.015625-31.844-0.003906-51.406-0.003906-58.703-0.003906-0.55078 0-1.0352-0.003906-1.4609-0.015625-0.15625-0.003906-0.21875 0.066406-0.1875 0.21875 0.12891 0.69141 0.29688 1.4258 0.49219 2.1992 0.27734 1.0469 0.72656 2.2188 1.3516 3.5234 0.5 1.0391 1.0312 2.0234 1.5977 2.9531 1 1.6484 2.125 3.2578 3.3633 4.8398 0.71094 0.90234 1.4375 1.7461 2.1953 2.5312 0.31641 0.33203 0.64062 0.63672 0.96875 0.91797 1.3633 1.1602 2.8594 2.1289 4.4766 2.8984 0.39062 0.1875 0.80859 0.35938 1.2578 0.52344 0.72266 0.25781 1.2852 0.44141 1.6953 0.54688 0.11719 0.03125 0.47656 0.11719 1.0898 0.26562 0.44922 0.10938 0.91797 0.14844 1.3633 0.25391 0.24219 0.058594 0.42969 0.089844 0.5625 0.09375 0.5625 0.03125 1.1094 0.089844 1.6484 0.17188 0.33594 0.058594 1.0195 0.089844 2.0469 0.097656 2.4688 0.023438 5.0977 0.011719 7.8906-0.023437 0.35938-0.007813 0.8125-0.027344 1.3594-0.070313 0.57812-0.039062 1.1289-0.050781 1.6484-0.019531 1.4023 0.074219 2.625 0.0625 3.6719-0.042969 0.93359-0.09375 1.6367-0.082031 2.6484-0.10156 0.32812-0.011719 0.82031-0.054688 1.4844-0.13672 0.3125-0.035156 0.54688-0.0625 0.70703-0.066406 0.63672-0.03125 1.1836-0.042969 1.7773-0.14062 0.36328-0.0625 0.67578-0.10938 0.9375-0.13281 0.28125-0.023437 0.58594-0.078125 0.92578-0.14844 0.76172-0.16797 1.3711-0.32031 1.832-0.45312 0.87109-0.25781 1.8047-0.62109 2.793-1.1016 2.1719-1.0391 4.1211-2.3516 5.8477-3.9414 1.7812-1.6367 3.1953-3.5586 4.2344-5.7617 0.60156-1.2812 1.168-2.7109 1.6953-4.2891 0.54688-1.6328 0.9375-2.8555 1.1641-3.6719 0.14844-0.50781 0.30469-1.0547 0.47656-1.6562 0.019531-0.070313 0.023437-0.13672 0.019531-0.20312zm-22.453 23.773c0.003906-0.082031-0.035156-0.125-0.12109-0.11328-0.36328 0.046875-0.75391 0.10547-1.1406 0.10938-0.24219 0.003906-0.75 0.015625-1.5195 0.035156-0.44922 0.011719-0.90234 0.039063-1.3594 0.070313-0.40234 0.023437-0.98828 0.0625-1.7695 0.10938-0.16797 0.003906-0.29297 0.003906-0.37109 0-0.40234-0.046875-0.82422-0.046875-1.2539 0.003906-0.30469 0.035156-0.54688 0.050781-0.72656 0.050781-0.58594 0-1.2891 0.023438-2.0078-0.003906-0.52734-0.019531-1.1406-0.027344-1.8438-0.015625-2.2578 0.035156-4.3398 0.042969-6.2422 0.019531-0.003906 0-0.25391 0.007813-0.75 0.015625-0.27344 0.007813-0.54688-0.007812-0.8125-0.035156-0.10938-0.015625-0.16016 0.035156-0.16016 0.14062v2.4844c0 0.14062 0.066406 0.20703 0.21484 0.20703 0.67578 0 1.5234 0.039063 2.2188 0.039063 3.7227 0.003906 7.4062 0.015625 11.035 0.039062 0.25 0 0.70312 0.015625 1.3594 0.042969 0.38672 0.019531 0.85938 0.03125 1.4336 0.042969 1.1914 0.019531 2.3672 0.03125 3.5352 0.023437 0.10938 0 0.17188-0.054687 0.17578-0.16406z"/>
</svg>