<svg xmlns="http://www.w3.org/2000/svg" version="1.1" viewBox="-5.0 -10.0 110.0 135.0">
 <path d="m83.055 3.6914c-1.8008-1.3555-4.3555-1-5.7188 0.79297l-16.004 21.16-3.2539-2.4609c-1.168-0.89062-2.7266-1.082-4.0781-0.5-1.3477 0.58203-2.2773 1.8477-2.4297 3.3086-1.1836-0.72656-2.6602-0.79297-3.9062-0.17578-1.2461 0.61719-2.0859 1.832-2.2266 3.2148-1.7812-1.082-4.0898-0.64062-5.3477 1.0234-1.2539 1.6602-1.0469 4.0039 0.48047 5.4219-1.2969 0.50781-2.2383 1.6484-2.4922 3.0156-0.25781 1.3711 0.21094 2.7734 1.2383 3.7148-0.6875 0.26562-1.2852 0.71875-1.7344 1.3047-1.25 1.6641-1.043 4.0039 0.47656 5.4219-1.3672 0.53906-2.3359 1.7773-2.5312 3.2383-0.19141 1.457 0.41797 2.9062 1.5977 3.7852l5.1562 3.8984c0.96875 2.1172 1.4609 4.4258 1.4336 6.7539-0.046875 2.5352-0.92188 7.0664-3.1367 9.1562h-0.003906c-0.66406 0.68359-1.5898 1.0547-2.543 1.0195-1.6875-0.070312-3.4062-0.25391-5.0742-0.43359-0.78516-0.085937-1.5703-0.17187-2.3594-0.24219h-0.015625c-0.78906-0.074219-1.5898-0.125-2.3945-0.16797-4.0273-0.17969-8.9648-0.035156-11.43 2.7461-1.3281 1.4727-1.4688 3.5039-1.4375 5.2969 0.023438 0.98438 0.074219 3.2891 1.8711 4.5117 0.48438 0.33203 0.96094 0.60547 1.4219 0.87109l0.003907-0.003907c0.87891 0.42578 1.668 1.0195 2.3125 1.75 0.35156 0.44531 0.66406 0.92578 0.99609 1.4336h0.003907c0.65234 1.1211 1.4961 2.125 2.4883 2.9648 1.3672 1.0039 3.0078 1.5664 4.707 1.6016 0.21875 0.011719 0.43359 0.015625 0.65234 0.015625 2.1836-0.089844 4.3438-0.47266 6.4258-1.1406 2.8008-0.76562 5.4453-1.4883 8.207-0.76172 0.52734 0.14063 1.0508 0.30469 1.5781 0.48047l-0.003906-0.003906c1.2969 0.48828 2.6562 0.78906 4.0352 0.89062 2.4297 0.078125 5.3984-0.96094 9.0078-3.1484 3.8203-2.3203 6.668-7.9609 4.8203-12.664-0.94922-2.4141-3.0625-3.832-4.918-5.082-0.26953-0.17969-0.54297-0.36328-0.80859-0.54688h-0.003906c-0.79688-0.53516-1.5469-1.1328-2.2461-1.793-0.54297-0.51172-1.0117-1.0977-1.3828-1.75-0.75781-1.2812-0.75391-2.8789 0.011719-4.1562 0.22266-0.34375 0.46484-0.67188 0.72266-0.98828 1.1055-1.0625 1.6094-2.6055 1.3516-4.1172-0.21484-0.98438-0.55469-1.9375-1.0195-2.832 1.3125-0.57422 2.2148-1.8125 2.3516-3.2422 0.62891 0.38281 1.3477 0.58984 2.0859 0.59375 0.19141 0 0.37891-0.015626 0.57031-0.039063 1.8477-0.25 3.2891-1.7344 3.4805-3.5898 1.7852 1.0781 4.0938 0.62891 5.3477-1.0352s1.043-4.0078-0.48438-5.4219c0.6875-0.26953 1.2852-0.71875 1.7344-1.3008 1.2539-1.668 1.043-4.0117-0.48438-5.4297 0.6875-0.26953 1.2891-0.71875 1.7383-1.3008 1.3555-1.7969 1-4.3555-0.79297-5.7148l-3.2578-2.4609 16.004-21.164c1.3555-1.7969 1-4.3555-0.79297-5.7188zm-45.094 47.777c0.67578-0.89844 1.957-1.0742 2.8555-0.39453l8.1406 6.1562c0.875 0.6875 1.0352 1.9453 0.36719 2.832-0.67188 0.88672-1.9297 1.0742-2.8281 0.42188l-8.1406-6.1562c-0.89844-0.67969-1.0742-1.957-0.39453-2.8594zm19.824 25.93c1.7695 1.1875 3.4375 2.3125 4.1523 4.1328 1.4531 3.6914-0.92969 8.3242-3.9805 10.172-3.2617 1.9766-5.8047 2.9336-7.8867 2.8555h0.003907c-1.1875-0.097656-2.3516-0.36719-3.4648-0.78906-0.5625-0.18359-1.1211-0.36328-1.6875-0.51172-3.2891-0.86328-6.3281-0.035156-9.2617 0.76953h-0.003906c-2.0742 0.69531-4.2461 1.0508-6.4336 1.0586-1.2773-0.023438-2.5195-0.43359-3.5586-1.1758-0.80859-0.71094-1.4922-1.5469-2.0234-2.4805-0.34375-0.52344-0.69922-1.0664-1.1055-1.582h-0.003906c-0.80469-0.9375-1.793-1.707-2.9023-2.2539-0.42188-0.24219-0.85156-0.48438-1.2812-0.78125-0.81641-0.55859-0.95703-1.7109-0.98438-2.8711-0.027343-1.3906 0.0625-2.9414 0.91797-3.8945 2.1445-2.4141 7.7148-2.1602 9.8047-2.0664h0.003906c-0.17969 0.20312-0.35156 0.41406-0.51172 0.63281-1.3242 1.8398-1.6133 4.2305-0.76562 6.3359 0.9375 2.1641 3.125 3.5195 5.4844 3.3984 0.76562-0.089844 1.5156-0.27734 2.2344-0.55859 0.21094-0.074218 0.42188-0.14453 0.63672-0.21484v0.003906c2.3945-0.75391 4.9727-0.6875 7.3281 0.1875 0.44922 0.16406 0.89062 0.35938 1.3281 0.55469 0.51172 0.22656 1.0195 0.45313 1.5508 0.64063v0.003906c1.1328 0.39844 2.3125 0.63672 3.5117 0.71484 0.19141 0.011718 0.37891 0.015624 0.5625 0.015624 1.2109 0.050782 2.4141-0.26172 3.4453-0.90234 1.125-0.82812 1.9375-2.0039 2.3164-3.3477 0.67578-2.4141 0.94531-4.918 0.80078-7.418v-1.0703c0-0.24219 0.011719-0.51562 0.019531-0.78125 0.28125 0.21484 0.57812 0.42969 0.90625 0.65625 0.28906 0.19141 0.56641 0.37891 0.84766 0.56641zm-4.1641-12.195c-0.30469 0.375-0.58984 0.76953-0.85156 1.1758-1.1484 1.9062-1.1758 4.2812-0.070312 6.2109 0.38672 0.6875 0.85938 1.3203 1.4062 1.8906-0.078125 0.86719-0.11328 1.7227-0.12109 2.4648v1.082-0.003906c0.14062 2.2773-0.09375 4.5625-0.69531 6.7656-0.23828 0.91016-0.77344 1.7188-1.5156 2.2969-0.83594 0.47656-1.8008 0.66797-2.7539 0.54687-1.0078-0.0625-1.9961-0.26172-2.9492-0.59375-0.47266-0.17187-0.94141-0.37891-1.4062-0.58594-0.46484-0.20703-0.96094-0.42578-1.4453-0.60547v0.003906c-2.7812-1.0312-5.8242-1.1094-8.6523-0.22266-0.23047 0.074219-0.46094 0.15234-0.6875 0.23047h-0.003906c-0.55469 0.22266-1.1367 0.375-1.7344 0.45312-1.4844 0.050781-2.8516-0.8125-3.4453-2.1797-0.57031-1.4453-0.35547-3.0859 0.5625-4.3398 0.375-0.50391 0.80859-0.96484 1.2852-1.3711l0.20312-0.17188 0.078125-0.066406c0.64062 0.0625 1.2812 0.12891 1.9219 0.19922 1.6992 0.18359 3.457 0.375 5.2109 0.44531h0.003907c1.5 0.058594 2.9609-0.51172 4.0273-1.5703 2.8828-2.7188 3.7305-8.125 3.7773-10.605h-0.003906c0.023437-1.543-0.16016-3.0781-0.53906-4.5703l0.046875 0.035157c1.168 0.89453 2.7266 1.0859 4.0742 0.50391 1.3516-0.57812 2.2773-1.8438 2.4297-3.3086 0.50781 0.30859 1.0742 0.5 1.6641 0.5625 0.51562 0.89844 0.90234 1.8672 1.1367 2.8789 0.19531 0.9375-0.1875 1.4844-0.95312 2.4492zm1.8711-8.1484c-0.67969 0.89844-1.9609 1.0742-2.8594 0.39453l-2.4414-1.8477-8.1406-6.1562-2.4375-1.8438h0.003907c-0.90234-0.67969-1.0781-1.9609-0.39844-2.8594 0.67578-0.89844 1.957-1.0781 2.8555-0.39844l13.023 9.8516h0.003906c0.89453 0.67969 1.0742 1.957 0.39453 2.8555zm6.1328-3.0352v-0.003906c-0.67969 0.89844-1.957 1.0781-2.8555 0.39844l-2.4414-1.8477-15.461-11.695c-0.90234-0.67578-1.082-1.957-0.40234-2.8555 0.67969-0.90234 1.9609-1.082 2.8594-0.40234l8.9531 6.7734 8.9531 6.7695v0.003906c0.89844 0.67969 1.0742 1.957 0.39453 2.8555zm6.1328-3.0391h0.003907c-0.67969 0.89844-1.957 1.0742-2.8594 0.39844l-13.566-10.262-6.7812-5.1289-2.4375-1.8438c-0.89844-0.68359-1.0781-1.9609-0.39453-2.8633 0.67969-0.89844 1.957-1.0742 2.8594-0.39453l2.4375 1.8438 17.281 13.07 3.0664 2.3203c0.89453 0.67969 1.0742 1.957 0.39453 2.8555zm1.2539-6.7305c-0.67969 0.89844-1.957 1.0742-2.8555 0.39844l-2.4609-1.8594-15.449-11.688c-0.65625-0.49609-0.94922-1.3438-0.73828-2.1406 0.20703-0.80078 0.875-1.3945 1.6914-1.5078 0.09375-0.011719 0.19141-0.019531 0.28516-0.019531 0.44141 0 0.87109 0.14844 1.2266 0.41406l2.4414 1.8477 6.5117 4.9219 8.9531 6.7695v0.003906c0.42969 0.32422 0.71484 0.80859 0.78906 1.3438 0.074219 0.53906-0.066406 1.082-0.39453 1.5117zm1.6445-8.2422c0.11328 0.82031-0.27344 1.625-0.98828 2.0391-0.71094 0.41797-1.6016 0.36719-2.2617-0.12891l-6.5117-4.9219-6.5078-4.9297c-0.65625-0.5-0.94922-1.3438-0.74219-2.1406 0.20703-0.80078 0.87891-1.3945 1.6953-1.5078 0.09375-0.011719 0.1875-0.019531 0.28516-0.019531 0.44141 0 0.87109 0.14453 1.2227 0.41406l8.9531 6.7695 4.0703 3.0781h-0.003906c0.43359 0.32422 0.71875 0.80859 0.78906 1.3477zm11.562-27.828-16.004 21.16-3.2539-2.4648 16.004-21.16c0.32422-0.4375 0.80859-0.72656 1.3477-0.80469s1.0859 0.0625 1.5234 0.39453c0.43359 0.32812 0.71875 0.81641 0.78906 1.3555 0.074219 0.53906-0.074219 1.0859-0.40625 1.5156z"/>
</svg> 