<svg xmlns="http://www.w3.org/2000/svg" version="1.1" viewBox="-5.0 -10.0 110.0 135.0">
 <path d="m20.418 46.105c-0.36719-0.074219-0.75391-0.17969-1.1758-0.32812-2.5078-0.87891-3.8125-2.2617-4.5039-3.5703-1.0859-2.0547-0.65234-4.0039-0.65234-4.0039 0.042968-0.20703 0.15234-0.39453 0.3125-0.53125l7.3672-6.375c0.011719-0.007813 0.019531-0.015625 0.03125-0.027344l0.63281-0.54688c-1.1445-1.1602-1.7344-1.9336-1.7344-3.8125v-0.78516c0-4.8047 3.8945-8.6953 8.6953-8.6953h41.527c2.3047 0 4.5156 0.91406 6.1484 2.5469 1.6289 1.6289 2.5469 3.8438 2.5469 6.1484v0.78516c0 1.875-0.58594 2.6484-1.7305 3.8047l0.36328 0.39844c0.007812 0.011719 0.015625 0.019531 0.027344 0.03125l7.4727 8.2266c0.19922 0.21875 0.28906 0.51562 0.23828 0.80859 0 0-0.29297 1.8398-1.3594 3.4883-0.99219 1.5352-2.6133 2.9219-5.1914 2.7188v24.742c0 3.0352-1.207 5.9453-3.3516 8.0898-2.1484 2.1484-5.0586 3.3516-8.0938 3.3516h-36.129c-3.0352 0-5.9453-1.2031-8.0898-3.3516-2.1484-2.1445-3.3516-5.0547-3.3516-8.0898zm2.1406-12.926c-2.3203 2.0078-6.6094 5.7188-6.6094 5.7188-0.035157 0.46094-0.019531 1.4141 0.50391 2.4023s1.543 1.9805 3.4297 2.6445c2.3516 0.82422 3.3906-0.12109 4.5781-0.75781 0.66797-0.35938 1.3672-0.65234 2.2227-0.72656 1.207-0.10156 2.7656 0.23437 5.0547 1.6719 1.4219 0.89844 2.4492 1.2578 3.3203 1.1797 0.58594-0.054688 1.0781-0.32422 1.5703-0.69922 0.61328-0.47266 1.2109-1.0977 1.9023-1.7891 1.25-1.2539 2.3359-1.6602 3.2852-1.5508 0.61719 0.074218 1.2188 0.36328 1.8047 0.89453 0.67578 0.61328 1.3594 1.5898 2.1172 2.875 1.6094 2.7344 6.0703 2.1523 8.2461-1.6289 1.0039-1.7539 2.1484-2.3906 3.2109-2.4609 1-0.066406 2.0078 0.39062 2.918 1.1641 1.125 0.96094 2.1172 2.4062 2.7695 3.4961 1.1367 1.8984 3.8867 1.1836 5.6328-2.0781 0.58203-1.0898 1.3047-1.6836 2.0742-1.9688 0.76953-0.28906 1.6094-0.27344 2.4805-0.035156 1.0664 0.29297 2.1914 0.92969 3.2461 1.5586 0.88281 0.52344 1.6992 1.0469 2.375 1.2109 2.6875 0.66016 4.0547-1.0312 4.7344-2.4648 0.28125-0.59766 0.45312-1.1602 0.54688-1.5273 0 0-4.6484-5.1172-6.6758-7.3516-0.93359 0.39062-2.0312 0.74219-3.2734 1.0547l3.0547 3.3867c0.35938 0.39844 0.32812 1.0117-0.070313 1.3711-0.39844 0.35938-1.0117 0.32812-1.3711-0.070312l-3.793-4.2031c-2.6797 0.52344-5.8203 0.91016-9.1992 1.1758l0.73047 2.0508c0.18359 0.50391-0.082031 1.0625-0.58594 1.2422-0.50391 0.17969-1.0586-0.085938-1.2383-0.58984l-0.91797-2.5625c-4.9688 0.30859-10.34 0.37109-15.465 0.22656l-0.41406 2.1914c-0.097656 0.52344-0.60938 0.87109-1.1328 0.77344-0.52734-0.10156-0.875-0.60547-0.77734-1.1328l0.35938-1.8984c-0.67188-0.023437-1.3359-0.054687-1.9922-0.085937-4.7461-0.23828-9.1094-0.64844-12.523-1.1875l-3.1914 3.9609c-0.33594 0.41797-0.94922 0.48047-1.3672 0.14453-0.41797-0.33594-0.48047-0.94922-0.14453-1.3633l2.5234-3.1289c-0.32031-0.0625-0.625-0.12891-0.91406-0.19531-1.2578-0.28516-2.2852-0.60547-3.0352-0.9375zm54.93 12.746c-1.1836-0.52734-2.6445-1.5625-4.0703-2.2031-0.75391-0.33594-1.4922-0.58594-2.1484-0.33984-0.39844 0.15234-0.73828 0.5-1.0391 1.0664-2.6953 5.0391-7.2578 5.0898-9.0117 2.1641-0.53906-0.89453-1.3242-2.0781-2.2383-2.9062-0.52344-0.47266-1.0742-0.85156-1.6562-0.81641-0.58594 0.039063-1.1055 0.52344-1.6562 1.4883-3.0312 5.2773-9.3594 5.4648-11.605 1.6484-0.53516-0.91406-1.0156-1.6484-1.5-2.1719-0.32812-0.35547-0.625-0.61328-0.97266-0.65234-0.51172-0.058594-1.0117 0.32031-1.6875 0.99609-1.6367 1.6367-2.918 2.8828-4.6641 3.0469-1.1797 0.10938-2.6094-0.25781-4.5352-1.4688-1.7617-1.1055-2.9297-1.457-3.8555-1.3789-0.91797 0.078124-1.5664 0.55859-2.2812 0.95703-0.66016 0.36328-1.3516 0.69922-2.207 0.82422v24.949c0 2.5195 1 4.9375 2.7812 6.7188s4.1992 2.7812 6.7188 2.7812h36.129c2.5195 0 4.9375-1 6.7188-2.7812s2.7812-4.1992 2.7812-6.7188zm-1.6875-15.875c0.03125-0.03125 0.0625-0.058593 0.09375-0.089843 1.0898-1.0938 1.7773-1.5078 1.7773-3.0508v-0.78516c0-1.793-0.71094-3.5117-1.9805-4.7773-1.2656-1.2656-2.9844-1.9766-4.7734-1.9766h-41.527c-3.7266 0-6.7539 3.0234-6.7539 6.7539v0.78516c0 1.543 0.6875 1.957 1.7812 3.0508 0.019531 0.023437 0.042969 0.046874 0.066406 0.066406 8.4766 1.1211 16.949 1.6953 25.426 1.7109h0.72266c8.3906-0.015625 16.781-0.57812 25.168-1.6875zm-25.895 3.6289c-8.0977-0.015626-16.191-0.53125-24.289-1.5469 0.60547 0.14453 1.2812 0.28516 2.0195 0.42188 0.26172 0.046874 0.52734 0.09375 0.80078 0.13672 0.007812 0.003906 0.015625 0.003906 0.019531 0.003906 3.4258 0.57031 7.9297 1.0039 12.848 1.25 1.0039 0.050782 2.0234 0.09375 3.0547 0.12891h0.078125c5.4961 0.18359 11.324 0.14062 16.625-0.20312 0.12109-0.03125 0.24219-0.039063 0.35938-0.023438 3.8828-0.26172 7.4648-0.6875 10.418-1.3008 0.10547-0.042969 0.22266-0.066406 0.33594-0.070313 0.082031-0.015624 0.16406-0.035156 0.24219-0.054687-7.2578 0.82812-14.52 1.2461-21.781 1.2578h-0.73047zm-21.676-11.02c-0.51172-0.15234-0.80078-0.69531-0.64453-1.2109 0.15625-0.51172 0.69922-0.80078 1.2109-0.64453 0 0 2.0781 0.62891 6.457 1.125 0.53125 0.058593 0.91406 0.54297 0.85547 1.0742s-0.54297 0.91406-1.0742 0.85547c-4.6172-0.52344-6.8047-1.1992-6.8047-1.1992zm13.832 1.7148c-0.53516-0.019531-0.95312-0.47266-0.93359-1.0078 0.023438-0.53516 0.47266-0.95313 1.0078-0.93359 4.0117 0.15625 8.9531 0.12891 14.887-0.26172 0.53516-0.035156 0.99609 0.37109 1.0312 0.90625 0.035156 0.53516-0.37109 0.99609-0.90234 1.0312-6.0156 0.39844-11.023 0.42188-15.09 0.26562zm22.066-0.85547c-0.53516 0.054688-1.0117-0.33203-1.0664-0.86719-0.054688-0.53125 0.33594-1.0078 0.86719-1.0625 2.1836-0.22656 4.4766-0.49609 6.875-0.81641 0.53125-0.074219 1.0234 0.30078 1.0938 0.83203 0.070312 0.53125-0.30078 1.0195-0.83203 1.0898-2.4219 0.32813-4.7344 0.59766-6.9375 0.82422zm-5.0469 39.836c0.03125 0.097656 0.054688 0.19922 0.082031 0.29688 0.52344 2.043 0.37109 4.2305-1.4102 5.8906-0.79297 0.74219-2.3086 1.4922-4.1289 2.0859-2.5898 0.84375-5.8125 1.3984-8.2656 1.3086-1.1602-0.039062-2.1641-0.23047-2.8906-0.56641-0.64062-0.29297-1.0977-0.70703-1.3633-1.2031-1.6094-2.9805-2.4336-10.754 3.625-15.656 2.8594-2.3125 5.543-1.9531 7.6484-0.82812 0.86328-2.2305 2.875-2.5625 2.875-2.5625 0.35938-0.070313 0.72656 0.066406 0.94922 0.35547 0.6875 0.87891 0.86719 2.1445 0.76953 3.3594-0.03125 0.39062-0.089844 0.77344-0.16016 1.125l3.3906-2.6445c0.42578-0.32812 1.0352-0.25391 1.3633 0.16797 0.33203 0.42578 0.25391 1.0352-0.16797 1.3633l-3.3906 2.6445c0.35938 0.023437 0.74219 0.058593 1.1289 0.12109 1.2031 0.19922 2.3867 0.68359 3.0742 1.5625 0.22266 0.28906 0.26953 0.67969 0.11328 1.0078 0 0-0.82422 1.8984-3.2422 2.1719zm-6.668-6.3594c-0.10156-0.074219-0.20703-0.14844-0.31641-0.21875-1.6016-1.0625-3.793-1.6602-6.1484 0.24609-5.1211 4.1445-4.4961 10.703-3.1367 13.223 0.12109 0.22656 0.39062 0.34766 0.71875 0.46094 0.51562 0.17578 1.1641 0.26562 1.8984 0.29297 2.2539 0.078125 5.2148-0.44141 7.5938-1.2188 1.4922-0.48438 2.7539-1.0508 3.4062-1.6562 1.1992-1.1172 1.207-2.6133 0.85547-3.9883-0.29297-1.1289-0.82422-2.1914-1.3047-3l-0.24219 1.0742c-0.11719 0.52344-0.63672 0.85547-1.1602 0.73828-0.51953-0.11719-0.85156-0.63672-0.73438-1.1602l0.34766-1.5508-1.5898-0.042969c-0.53516-0.011718-0.95703-0.45703-0.94141-0.99609 0.011719-0.53516 0.45703-0.95703 0.99219-0.94531l1.207 0.03125c-0.38281-0.40625-0.86328-0.85547-1.418-1.2656-0.007812-0.007812-0.019531-0.015625-0.027344-0.023437zm5.3906 3.4297c0.17969 0.3125 0.35937 0.65234 0.53516 1.0156 0.83203 0.019532 1.3945-0.26172 1.7461-0.54297-0.375-0.19141-0.82813-0.29688-1.2695-0.36719-0.34375-0.058594-0.69141-0.089844-1.0117-0.10547zm-2.8945-3.8398c0.054688-0.28516 0.10156-0.59375 0.125-0.90625 0.035156-0.44531 0.046875-0.90625-0.050781-1.3203-0.33984 0.26172-0.73047 0.71094-0.92578 1.4609 0.30859 0.25391 0.59375 0.51172 0.85156 0.76563zm-7.4922 1.0273c0.41797-0.33203 1.0312-0.26172 1.3633 0.15625 0.33594 0.41797 0.26562 1.0312-0.15234 1.3633l-0.26953 0.21484c-0.42188 0.33594-1.0312 0.26562-1.3672-0.15234-0.33203-0.42187-0.26172-1.0312 0.15625-1.3633zm-2.7031 9.3672c0.41797-0.33203 1.0273-0.26562 1.3633 0.15234 0.33203 0.42188 0.26562 1.0312-0.15625 1.3672l-0.26953 0.21484c-0.41797 0.33203-1.0312 0.26172-1.3633-0.15625-0.33203-0.41797-0.26562-1.0312 0.15625-1.3633zm5.668 0.10938c0.41797-0.33203 1.0312-0.26562 1.3633 0.15625 0.33594 0.41797 0.26562 1.0312-0.15234 1.3633l-0.26953 0.21484c-0.42188 0.33594-1.0312 0.26562-1.3672-0.15234-0.33203-0.42188-0.26172-1.0312 0.15625-1.3672zm4.1211-2.5039c0.41797-0.33594 1.0312-0.26563 1.3633 0.15234 0.33594 0.41797 0.26562 1.0312-0.15234 1.3633l-0.26953 0.21484c-0.41797 0.33594-1.0312 0.26562-1.3633-0.15234-0.33594-0.42187-0.26562-1.0312 0.15234-1.3633zm-4.1211-3.6719c0.41797-0.33594 1.0312-0.26562 1.3633 0.15234 0.33594 0.41797 0.26562 1.0312-0.15234 1.3633l-0.26953 0.21484c-0.42188 0.33594-1.0312 0.26562-1.3672-0.15234-0.33203-0.41797-0.26172-1.0312 0.15625-1.3633zm-5.4023 0.73438c0.42188-0.33203 1.0312-0.26172 1.3672 0.15625 0.33203 0.41797 0.26562 1.0312-0.15625 1.3633l-0.26953 0.21484c-0.41797 0.33594-1.0273 0.26563-1.3633-0.15234-0.33594-0.42188-0.26562-1.0312 0.15625-1.3633zm2.707 2.9375c0.41797-0.33594 1.0312-0.26563 1.3633 0.15234 0.33594 0.41797 0.26562 1.0312-0.15234 1.3633l-0.26953 0.21484c-0.42188 0.33594-1.0312 0.26562-1.3672-0.15234-0.33203-0.42187-0.26172-1.0312 0.15625-1.3633z" fill-rule="evenodd"/>
</svg>
