<svg xmlns="http://www.w3.org/2000/svg" xmlns:xlink="http://www.w3.org/1999/xlink" xmlns:serif="http://www.serif.com/" viewBox="0 0 101 125" version="1.1" xml:space="preserve" style="" x="0px" y="0px" fill-rule="evenodd" clip-rule="evenodd" stroke-linejoin="round" stroke-miterlimit="2"><g transform="matrix(1,0,0,1,-0.116,9.00793e-05)"><path d="M76.866,65L76.603,65C76.354,51.905 66.382,41.152 53.616,39.679L53.616,36.5C54.862,35.562 55.616,34.079 55.616,32.5C55.616,29.743 53.373,27.5 50.616,27.5C47.859,27.5 45.616,29.743 45.616,32.5C45.616,34.079 46.37,35.562 47.616,36.5L47.616,39.679C34.85,41.152 24.878,51.905 24.629,65L24.366,65C21.195,65 18.616,67.58 18.616,70.75C18.616,73.92 21.195,76.5 24.366,76.5L76.866,76.5C80.037,76.5 82.616,73.92 82.616,70.75C82.616,67.58 80.037,65 76.866,65ZM76.866,74.5L24.366,74.5C22.299,74.5 20.616,72.818 20.616,70.75C20.616,68.682 22.299,67 24.366,67L76.866,67C78.933,67 80.616,68.682 80.616,70.75C80.616,72.818 78.933,74.5 76.866,74.5ZM50.616,41.5C63.681,41.5 74.335,51.997 74.603,65L26.629,65C26.897,51.997 37.551,41.5 50.616,41.5ZM57.965,47.073C57.436,46.907 56.876,47.199 56.71,47.726C56.544,48.253 56.837,48.814 57.363,48.98C59.949,49.795 61.937,51.353 63.111,53.484C63.293,53.815 63.635,54.002 63.987,54.002C64.151,54.002 64.316,53.962 64.469,53.878C64.952,53.611 65.129,53.003 64.862,52.519C63.436,49.928 61.051,48.045 57.965,47.073ZM24.772,41.038C24.963,41.337 25.287,41.5 25.617,41.5C25.8,41.5 25.987,41.45 26.153,41.344C26.619,41.047 26.755,40.429 26.459,39.963C25.001,37.675 24.994,35.643 26.481,33.501C28.236,30.471 28.224,27.591 26.446,24.943C26.137,24.485 25.516,24.362 25.058,24.67C24.6,24.978 24.478,25.6 24.786,26.058C26.121,28.046 26.109,30.153 24.795,32.429C22.886,35.17 22.878,38.066 24.772,41.038ZM69.772,41.038C69.963,41.337 70.287,41.5 70.617,41.5C70.8,41.5 70.987,41.45 71.153,41.344C71.619,41.047 71.755,40.429 71.459,39.963C70.001,37.675 69.994,35.643 71.481,33.501C73.236,30.471 73.224,27.591 71.446,24.943C71.137,24.485 70.516,24.362 70.058,24.67C69.6,24.978 69.478,25.6 69.786,26.058C71.121,28.046 71.109,30.153 69.795,32.429C67.886,35.17 67.878,38.066 69.772,41.038ZM76.772,40.038C76.963,40.337 77.287,40.5 77.617,40.5C77.8,40.5 77.987,40.45 78.153,40.344C78.619,40.047 78.755,39.429 78.459,38.963C77.001,36.675 76.994,34.643 78.481,32.501C80.236,29.471 80.224,26.591 78.446,23.943C78.137,23.485 77.516,23.361 77.058,23.67C76.6,23.978 76.478,24.6 76.786,25.058C78.121,27.046 78.109,29.153 76.795,31.429C74.886,34.17 74.878,37.066 76.772,40.038ZM31.772,40.038C31.963,40.337 32.287,40.5 32.617,40.5C32.8,40.5 32.987,40.45 33.153,40.344C33.619,40.047 33.755,39.429 33.459,38.963C32.001,36.675 31.994,34.643 33.481,32.501C35.236,29.471 35.224,26.591 33.446,23.943C33.137,23.485 32.516,23.361 32.058,23.67C31.6,23.978 31.478,24.6 31.786,25.058C33.121,27.046 33.109,29.153 31.795,31.429C29.886,34.17 29.878,37.066 31.772,40.038ZM49.117,35.099C48.191,34.564 47.616,33.568 47.616,32.5C47.616,30.846 48.962,29.5 50.616,29.5C52.27,29.5 53.616,30.846 53.616,32.5C53.616,33.568 53.041,34.564 52.115,35.099C51.806,35.278 51.616,35.608 51.616,35.965L51.616,39.525C51.284,39.513 50.951,39.5 50.616,39.5C50.281,39.5 49.948,39.513 49.616,39.525L49.616,35.965C49.616,35.608 49.426,35.278 49.117,35.099Z" style="" fill-rule="nonzero"/></g></svg>