<svg xmlns="http://www.w3.org/2000/svg" viewBox="0 0 100 125" fill="none" x="0px" y="0px"><path fill-rule="evenodd" clip-rule="evenodd" d="M26 17C26 16.4477 26.4477 16 27 16H73C73.5523 16 74 16.4477 74 17V26C74 26.5523 73.5523 27 73 27H71.7995L76.9344 40.4636C76.9778 40.5774 77 40.6982 77 40.82V72.17C77 72.2463 76.9915 72.3205 76.9753 72.3919C76.5702 78.8643 71.2345 84 64.6957 84H35.3043C28.7655 84 23.4298 78.8643 23.0247 72.3919C23.0085 72.3205 23 72.2463 23 72.17V40.82C23 40.6982 23.0222 40.5774 23.0656 40.4636L28.2005 27H27C26.4477 27 26 26.5523 26 26V17ZM72 25V18H28V25H72ZM30.341 27L25.4516 39.82H74.5484L69.659 27H30.341ZM75 41.82H25V71.17H75V41.82ZM74.8834 73.17H25.1166C25.8669 78.1744 30.1487 82 35.3043 82H64.6957C69.8513 82 74.1331 78.1744 74.8834 73.17ZM46.4634 47.2775C46.6496 47.0994 46.8972 47 47.1548 47H64.2169C64.4773 47 64.7274 47.1015 64.914 47.2831L68.3985 50.6713C68.7637 51.0264 68.8036 51.5993 68.4911 52.0016L59.4725 63.6134C59.2831 63.8573 58.9916 64 58.6827 64H42.4511C42.0087 64.2623 41.5559 64.4893 41.097 64.6797C37.7721 66.0593 34.0044 65.5259 31.8868 62.4378C31.1765 61.4019 30.9846 60.0353 31.0009 58.7309C31.0176 57.3985 31.2551 55.9705 31.5515 54.6818C31.8494 53.3871 32.215 52.1984 32.505 51.3357C32.6504 50.9034 32.7775 50.5507 32.8688 50.3047C32.9144 50.1817 32.9512 50.0852 32.9769 50.0187L33.0068 49.9418L33.015 49.9209L33.018 49.9133C33.0181 49.9131 33.0184 49.9123 33.9472 50.2829C33.9362 49.2829 33.9364 49.2829 33.9365 49.2829L33.9384 49.2829L33.9426 49.2829L33.9574 49.2828L34.0114 49.2825C34.058 49.2824 34.1255 49.2825 34.2118 49.2832C34.3845 49.2846 34.6329 49.2883 34.9408 49.2978C35.5561 49.3168 36.4127 49.3589 37.3806 49.4513C39.0781 49.6135 41.2082 49.9383 42.9782 50.6123L46.4634 47.2775ZM44.8572 51.5825C45.191 51.8194 45.4975 52.0879 45.7599 52.393L48.302 49.9187C48.4887 49.737 48.739 49.6353 48.9995 49.6353H61.7941L62.2553 49H47.5562L44.8572 51.5825ZM64.3477 49.522L66.3628 51.4814L59.0618 60.8816L57.9568 57.3861L63.0707 51.2772C63.0854 51.2595 63.0996 51.2414 63.1131 51.2228L64.3477 49.522ZM56.371 56.1647L60.1626 51.6353H49.4058L46.7885 54.1828C47.0367 54.8304 47.1759 55.4961 47.214 56.1647H56.371ZM47.0336 58.1647C46.7062 59.552 45.9721 60.8673 44.9313 62H57.3178L56.1054 58.1647H47.0336ZM42.4598 61.5724C44.0776 60.2927 45.0293 58.6467 45.1976 57.0593C45.2931 56.1591 45.141 55.2594 44.7027 54.4126C44.6087 54.2309 44.5009 54.0504 44.3785 53.872C44.0928 53.4554 43.5645 53.0538 42.7819 52.6962C41.2249 51.9848 39.0514 51.6201 37.1904 51.4423C36.2747 51.3548 35.4622 51.3149 34.8792 51.2969C34.7936 51.2942 34.7131 51.2921 34.638 51.2903C34.5691 51.482 34.4886 51.7119 34.4008 51.973C34.1244 52.7952 33.7794 53.9181 33.5006 55.1302C33.2203 56.3484 33.015 57.6224 33.0008 58.7559C32.9862 59.9174 33.1754 60.7805 33.5363 61.3067C33.9228 61.8703 34.3958 62.3219 34.9331 62.6595C34.2875 61.9242 33.816 61.1278 33.5722 60.4629C33.382 59.9444 33.6482 59.3699 34.1667 59.1797C34.6852 58.9895 35.2597 59.2557 35.4499 59.7742C35.6875 60.422 36.353 61.43 37.2945 62.1454C38.2054 62.8377 39.2516 63.1732 40.3657 62.8177C40.4544 62.7805 40.543 62.7414 40.6315 62.7006C37.95 61.5542 36.1385 59.2611 35.7816 57.1941C35.6876 56.6499 36.0526 56.1325 36.5968 56.0385C37.1411 55.9446 37.6584 56.3096 37.7524 56.8538C37.9928 58.2464 39.4531 60.196 41.8771 61.0395C42.1469 61.1333 42.3509 61.3311 42.4598 61.5724ZM33.9472 50.2829L33.9365 49.2829C33.5314 49.2874 33.1686 49.5359 33.0184 49.9123L33.9472 50.2829ZM35.7908 52.783C35.9107 52.2439 36.4449 51.904 36.984 52.0238C37.0934 52.0482 37.2157 52.0745 37.3488 52.1031C38.474 52.3451 40.3781 52.7547 41.8865 53.5551C42.7378 54.0068 43.5843 54.6426 44.0725 55.5568C44.588 56.522 44.6267 57.6497 44.1227 58.8793C43.9133 59.3903 43.3292 59.6348 42.8182 59.4253C42.3071 59.2158 42.0627 58.6318 42.2721 58.1207C42.5849 57.3576 42.5025 56.8625 42.3084 56.499C42.087 56.0845 41.6353 55.6859 40.9491 55.3218C39.7063 54.6623 38.093 54.3119 36.9357 54.0606C36.8004 54.0312 36.6714 54.0032 36.55 53.9762C36.0108 53.8563 35.671 53.3221 35.7908 52.783Z" fill="black"/></svg>