<svg xmlns="http://www.w3.org/2000/svg" version="1.1" viewBox="-5.0 -10.0 110.0 135.0">
 <path d="m86.395 37.609c-10.848-9.3047-27.168-14.148-29.023-14.676-2.9883-1.8477-5.5312-4.1367-7.5508-6.8125-0.003906-0.003906-0.007812-0.003906-0.011718-0.007813-0.48438-1.7344-1.0117-3.3594-1.5742-4.832-0.007813-0.019531-0.015625-0.035156-0.023437-0.054688-0.50391-1.3125-1.0312-2.5039-1.5859-3.5352-0.26172-0.48438-0.86719-0.66797-1.3555-0.40625-0.48438 0.26172-0.66797 0.86719-0.40625 1.3555 0.48828 0.90625 0.95312 1.9414 1.3984 3.0742-0.45703 5.5898-2.1758 10.004-5.2109 13.457-2.5078-3.4844-6.4766-5.7539-11.352-6.4102-5.2891-0.71484-11.008 0.53906-16.098 3.5352-10.59 6.2266-15.176 18.148-10.219 26.574 2.9609 5.0352 8.6719 7.7031 15.047 7.7031 4.293 0 8.8906-1.2109 13.152-3.7148 5.0938-2.9961 8.9688-7.3828 10.914-12.352 1.875-4.7891 1.7266-9.5664-0.35156-13.562 2.75-2.9609 4.6055-6.668 5.5352-11.074 2.707 9.1875 4.2422 21.906 3.8672 30.008-9.8633 0.62109-17.734 10.91-17.734 23.465 0 12.957 8.3789 23.496 18.68 23.496 10.301 0 18.68-10.539 18.68-23.496 0-12.508-7.8125-22.766-17.625-23.457 0.30078-6.875-0.73438-16.965-2.6797-25.582 1.5742 1.5742 3.3359 2.9922 5.2891 4.2148 1.0195 2.2031 8.2227 17.203 18.871 26.336 9.5039 8.1523 18.578 8.9062 21.621 8.9062 0.61328 0 0.98047-0.03125 1.0586-0.035157 0.53516-0.050781 0.9375-0.51953 0.90625-1.0547-0.027343-0.45312-0.79688-11.266-12.219-21.062zm-45.762 2.1719c-1.7812 4.5547-5.3555 8.5859-10.066 11.355-9.6445 5.668-21.062 4.2031-25.461-3.2773-4.3945-7.4766-0.12891-18.172 9.5156-23.844 3.8516-2.2656 8.0703-3.457 12.133-3.457 0.90625 0 1.8008 0.058594 2.6836 0.17969 4.7578 0.64453 8.5352 2.9727 10.645 6.5508 2.1055 3.5859 2.3008 8.0195 0.55078 12.492zm28.539 29.562c0 11.852-7.4805 21.496-16.68 21.496-9.1992 0-16.68-9.6445-16.68-21.496s7.4844-21.496 16.68-21.496c9.1953 0 16.68 9.6445 16.68 21.496zm7.1602-20c-8.6211-7.3945-15.09-19.145-17.473-23.852 5.0156 1.6367 17.613 6.2422 26.234 13.637 8.7539 7.5078 10.891 15.77 11.383 18.629-2.9023-0.054687-11.395-0.90625-20.145-8.4141z"/>
 <path d="m66.734 32.246c-0.35938 0.41797-0.3125 1.0508 0.10547 1.4102l19.578 16.793c0.1875 0.16016 0.42188 0.24219 0.65234 0.24219 0.28125 0 0.5625-0.11719 0.75781-0.34766 0.35938-0.41797 0.3125-1.0508-0.10547-1.4102l-19.578-16.793c-0.41797-0.35938-1.0508-0.3125-1.4102 0.10547z"/>
 <path d="m47.434 83.648c0 2.2344 2.2227 3.9844 5.0586 3.9844 2.8359 0 5.0586-1.75 5.0586-3.9844 0-2.2344-2.2227-3.9844-5.0586-3.9844-2.8359 0-5.0586 1.75-5.0586 3.9844zm8.1172 0c0 1.0742-1.4023 1.9844-3.0586 1.9844s-3.0586-0.90625-3.0586-1.9844c0-1.0742 1.4023-1.9844 3.0586-1.9844s3.0586 0.91016 3.0586 1.9844z"/>
 <path d="m8.4727 40.266c-0.91797 0.53906-1.5156 1.5391-1.6406 2.7422-0.11328 1.1055 0.16797 2.3008 0.79688 3.3672s1.5352 1.8945 2.5547 2.3359c0.51953 0.22266 1.0469 0.33203 1.5586 0.33203 0.58594 0 1.1445-0.14453 1.6328-0.43359 0.91797-0.53906 1.5156-1.5391 1.6406-2.7422 0.11328-1.1055-0.16797-2.3008-0.79688-3.3672-1.375-2.3398-3.9023-3.3242-5.7461-2.2344zm4.5547 5.3984c-0.035156 0.33203-0.16406 0.92969-0.66406 1.2227-0.49609 0.29297-1.0859 0.11719-1.3906-0.015625-0.625-0.26953-1.2148-0.82031-1.6211-1.5117s-0.60156-1.4766-0.53125-2.1523c0.035157-0.33203 0.16406-0.92969 0.66406-1.2227 0.1875-0.10938 0.40234-0.16016 0.62891-0.16016 0.80078 0 1.7734 0.65234 2.3828 1.6875 0.40625 0.69141 0.60156 1.4766 0.53125 2.1523z"/>
</svg>