<svg xmlns="http://www.w3.org/2000/svg" xmlns:xlink="http://www.w3.org/1999/xlink" version="1.1" x="0px" y="0px" viewBox="0 0 100 125" style="enable-background:new 0 0 100 100;" xml:space="preserve"><g><g><g><path d="M55.3,60.5c-4.4,0-8.8-1.7-12.1-5c-5.4-5.4-5.4-14.3,0-19.7c4.4-4.4,11.6-4.4,16.1,0     c0.4,0.4,0.4,1.2,0,1.6c-0.4,0.4-1.2,0.4-1.6,0c-1.7-1.7-4-2.7-6.4-2.7c-2.4,0-4.7,0.9-6.4,2.7c-4.5,4.5-4.5,11.9,0,16.5     c5.8,5.8,15.2,5.8,21,0c1.7-1.7,3.1-3.7,4-6c0.2-0.6,0.9-0.9,1.5-0.6c0.6,0.2,0.9,0.9,0.6,1.5c-1.1,2.5-2.6,4.8-4.5,6.7     C64,58.8,59.6,60.5,55.3,60.5z"/></g><g><path d="M55.8,100c-13.1,0-28.3-4.4-41.1-20.1c-7.3-9-11.8-21.6-11.8-32.7C2.8,21.2,24,0,50,0     c26,0,47.2,21.2,47.2,47.2c0,14.3-5.7,20.2-5.9,20.4c-0.4,0.4-1.2,0.5-1.6,0c-0.4-0.4-0.5-1.2,0-1.6c0.1-0.1,5.3-5.6,5.3-18.8     C94.9,22.4,74.8,2.3,50,2.3S5.1,22.4,5.1,47.2c0,10.7,4.3,22.7,11.3,31.3c13.2,16.1,30.4,22.1,51.3,18     c14.4-3.2,19.7-9.7,21.6-14.6c1-2.6-0.2-4.8-1.6-5.9c-1.4-1.1-3.6-1.7-5.8-0.2l-0.1,0.1c-16,11.2-37.6,9.3-51.4-4.5     c-12.6-12.6-12.6-33.1,0-45.7c10.2-10.2,26.7-10.2,36.9,0c6.1,6.1,7.9,15.2,4.5,23.1c-0.2,0.6-0.9,0.9-1.5,0.6     c-0.6-0.2-0.9-0.9-0.6-1.5c3-7.1,1.4-15.2-4-20.6c-9.3-9.3-24.4-9.3-33.7,0C20.3,39,20.3,58,32.1,69.8c13,13,33.4,14.8,48.5,4.3     l0.1-0.1c2.7-1.8,6-1.7,8.6,0.3c2.6,2.1,3.5,5.4,2.3,8.5c-2.1,5.4-7.8,12.5-23.3,16C64.4,99.5,60.2,100,55.8,100z"/></g></g><circle cx="41.3" cy="62.9" r="1.6"/><g><circle cx="50.4" cy="68" r="1.6"/><circle cx="61.7" cy="68" r="1.6"/></g><circle cx="72.8" cy="62.9" r="1.6"/><g><circle cx="80.2" cy="53.6" r="1.6"/><circle cx="82.5" cy="42.7" r="1.6"/><circle cx="81" cy="32.4" r="1.6"/></g></g></svg>