<svg xmlns="http://www.w3.org/2000/svg" version="1.1" viewBox="-5.0 -10.0 110.0 135.0">
 <path d="m89.004 73.27h-11.875c-0.70703-7.5625-8.5547-13.449-18.039-13.449-2.8672 0-5.6875 0.55078-8.2227 1.5898-1.0039-1.3672-1.8125-2.4609-2.207-2.9922-0.40234-0.53906-0.84375-1.0898-1.2969-1.6562-1.6875-2.0977-3.4297-4.2695-3.9805-7.082-0.58984-2.3945-0.58203-4.8672-0.57031-7.4805 0.003906-0.63672 0.003906-1.2773 0-1.918-0.003906-0.21875-0.003906-1.6016-0.011719-3.6016-0.003906-1.8398-0.007812-3.5703-0.011719-5.207l4.5664 0.13672c4.7383 0 6.6484-3.5234 7.6289-6.5195l30.84 1.7188c0.92969 0.039062 1.7539-0.43359 2.3203-1.3672 1.1641-1.9219 1.1758-5.7227 0.019531-7.6758-0.56641-0.95312-1.3906-1.4531-2.3398-1.4141l-30.84 1.7188c-0.98438-2.9961-2.8906-6.5195-7.6602-6.5195l-23.496 0.73047c-0.53516 0.015625-0.96484 0.45703-0.96484 0.99219v3.1953c0 0.55078 0.44531 0.99609 0.99609 0.99609h3.3125c0.003906 0.41797 0.003906 0.94531 0.007813 1.5703h-3.3203c-0.55078 0-0.99609 0.44531-0.99609 0.99609v3.0977c0 0.55078 0.44531 0.99609 0.99609 0.99609h3.3359c0 0.51562 0.003907 1.0391 0.003907 1.5703h-3.3398c-0.55078 0-0.99609 0.44531-0.99609 0.99609v3.2266c0 0.53906 0.42969 0.98047 0.96484 0.99609l2.3359 0.070313c-0.20703 1.6797-0.53516 3.5977-1.3477 5.3867-0.83984 1.8555-2.1562 3.6328-3.4492 5.3711l-1.4375 1.9375c-1.3281 1.7891-3.0586 4.1133-4.6133 6.2188-3.0352 4.1055-3.9336 7.9648-4.3477 12.492-0.027344 0.27734 0.066406 0.55469 0.25781 0.76172 0.1875 0.20703 0.45313 0.32422 0.73438 0.32422h4.5352c0.51172 0 0.9375-0.38672 0.98828-0.89453 0.47656-4.6523 1.6445-6.9375 4.0781-10.301 0.65234-0.89844 1.2656-1.7305 1.8438-2.5117-1.043 3.168-1.9414 6.625-2.4453 9.4453-0.050782 0.28906 0.027343 0.58984 0.21484 0.8125 0.1875 0.22656 0.46875 0.35547 0.76562 0.35547h4.7695c0.47656 0 0.88672-0.33984 0.97656-0.80469 0.33594-1.7344 0.66797-3.3086 0.99609-4.7461 0.52734 1.9492 1.2539 3.5625 2.2578 5.2344-8.0039 1.1641-14.188 6.6172-14.812 13.219h-5.1406c-0.55078 0-0.99609 0.44531-0.99609 0.99609 0 8.8828 10.027 14.191 19.723 14.191h40.555c9.6953 0 19.723-5.3086 19.723-14.191 0.007812-0.56641-0.4375-1.0117-0.98828-1.0117zm-29.914-11.457c8.3828 0 15.312 5 16.035 11.461h-2.4805c-0.75-5.1445-6.5117-8.9922-13.559-8.9922-1.8906 0-3.7617 0.30859-5.4805 0.86328-0.51562-0.70312-1.0195-1.3906-1.5078-2.0547 2.1758-0.82422 4.5586-1.2773 6.9922-1.2773zm0.48438 11.457c-0.39844-0.54688-1.0352-1.4102-1.8164-2.4766 0.4375-0.042969 0.87891-0.074219 1.332-0.074219 3.3711 0 5.9062 1.2109 6.8203 2.5469zm8.5352 0c-0.82422-2.6367-4.5859-4.5391-9.0195-4.5391-0.91406 0-1.7969 0.10156-2.6562 0.25781-0.51172-0.69531-1.043-1.4219-1.5859-2.1602 1.3477-0.36719 2.7891-0.5625 4.2422-0.5625 5.8164 0 10.746 3.0391 11.535 7.0039zm-22.297-15.266c0.4375 0.54688 0.86328 1.0742 1.25 1.5977 1.3398 1.8086 7.3477 9.9922 10.043 13.672h-3.0469c-2.4375-3.3086-9.875-13.359-11.406-15.422l-0.19141-0.26172c-0.99609-1.3398-2.125-2.8594-2.7734-4.2969-1.3711-3.0273-1.3711-7.1016-1.3711-11.039 0-0.625 0-1.2461-0.007812-1.8516-0.003906-0.25781-0.007813-1.832-0.011719-4.0664-0.019531-7.7656-0.039063-15.98-0.074219-18.879h2.5156c0.039063 3.2695 0.066407 14.18 0.074219 19.223 0.003906 2.0078 0.007812 3.3945 0.011719 3.6133 0.007812 0.63281 0.003906 1.2656 0.003906 1.8906-0.011719 2.6211-0.019531 5.3281 0.61719 7.918 0.62891 3.25 2.6172 5.7227 4.3672 7.9023zm2.6523 15.266c-1.6992-2.3594-3.1289-4.3281-4.1562-5.7188-1.3633-1.8438-2.7812-3.7539-3.8984-5.2578l-1.3477-1.8125c-1.2734-1.7188-2.5938-3.4961-3.4375-5.3555-0.85156-1.8828-1.1797-3.918-1.3828-5.6602-0.19531-1.6797-0.32422-5.4805-0.42578-8.9805-0.019531-0.65234-0.035156-7.5273-0.050781-13.594-0.011719-4.5898-0.019531-7.8672-0.027344-9.4414h2.4922c0.039062 3.168 0.0625 13.527 0.074219 18.887 0.003906 2.2422 0.007812 3.8242 0.011718 4.0781 0.007813 0.59766 0.007813 1.2109 0.007813 1.832 0.003906 3.957 0.003906 8.4414 1.5508 11.859 0.73828 1.6289 1.9336 3.2383 2.9883 4.6602l0.19141 0.25781c1.3789 1.8594 7.5391 10.184 10.531 14.238zm-5.6992-49.152h1.5312c0.078125 0.019531 0.32422 0.28516 0.32422 0.78516s-0.24609 0.76953-0.32031 0.78516h-1.5312c0-0.54297-0.003906-1.0664-0.003906-1.5703zm-0.042969-6.6602h1.5742c0.078125 0.019531 0.32422 0.28516 0.32422 0.78516s-0.24609 0.76953-0.32031 0.78516h-1.5625c-0.003906-0.62891-0.007812-1.1562-0.015625-1.5703zm-17.867-3.2227 22.504-0.69922c2.9805 0 4.7617 1.7461 5.9531 5.8438 0.12891 0.44141 0.54297 0.73047 1.0117 0.71484l31.605-1.7617c0.16406 0.007813 0.35156 0.14062 0.52734 0.44141 0.78516 1.3281 0.78125 4.3242-0.007812 5.625-0.26172 0.42969-0.44922 0.42187-0.51172 0.41406l-31.613-1.7617c-0.46484-0.015625-0.88281 0.26953-1.0117 0.71484-1.1953 4.0977-2.9766 5.8438-5.9258 5.8438l-4.6016-0.13672c0-0.61719-0.003906-1.2188-0.003906-1.7969h1.5234c1.2734 0 2.3125-1.2461 2.3125-2.7734 0-1.5312-1.0352-2.7773-2.3125-2.7773h-1.543c-0.003907-0.38672-0.003907-0.75781-0.003907-1.1094h1.5508c1.2969 0 2.3125-1.2188 2.3125-2.7734 0-1.5312-1.0352-2.7773-2.3125-2.7773l-19.453 0.003906zm6.8945 3.2227c0.007812 1.7617 0.019531 5.6484 0.027344 9.4453 0.015625 6.375 0.03125 12.969 0.050781 13.645 0.10156 3.543 0.23047 7.3984 0.4375 9.1562 0.22266 1.8945 0.58203 4.1133 1.5469 6.2461 0.92969 2.0508 2.375 3.9961 3.6641 5.7344l1.3359 1.7969c1.1172 1.5039 2.5352 3.4102 3.8984 5.2539 0.85156 1.1484 1.9766 2.6953 3.3047 4.5312h-3.1094l-0.41016-0.59375c-2.2148-3.1484-4.0781-5.6367-5.5781-7.6328-6.2422-8.3125-7.2031-9.5898-7.6758-24.594-0.015626-0.47266-0.03125-6.8516-0.042969-12.477-0.011719-4.4102-0.019531-8.6172-0.03125-10.52zm3.6328 48.867c0.63281 0.83984 1.3281 1.7695 2.0859 2.7969-1.0352-0.25391-2.125-0.38672-3.293-0.38672-4.4336 0-8.1953 1.9023-9.0195 4.5391h-2.5195c0.78906-3.9648 5.7227-7.0039 11.535-7.0039 0.40625-0.003906 0.80859 0.027344 1.2109 0.054688zm-1.207 4.3984c2.1055 0 3.8477 0.44531 5.4766 1.3984 0.26562 0.37109 0.53906 0.75781 0.82031 1.1523l-13.117-0.003907c0.91406-1.3359 3.4492-2.5469 6.8203-2.5469zm-9.3203-48.594v-1.1094h2.332c0 0.35938 0.003906 0.72656 0.003906 1.1094zm0 5.5508h2.3477v0.30078c0 0.34766 0 0.69141 0.003906 1.0312l-2.3516-0.070313zm-4.8984 23.422c-2.4453 3.3711-3.7656 5.8711-4.3477 10.375h-2.543c0.51953-4.4219 1.6367-7.4062 3.8516-10.406 1.5547-2.1055 3.2812-4.4297 4.6094-6.2148l1.4531-1.957c1.2734-1.7188 2.7188-3.6641 3.6484-5.7148 0.23047-0.50781 0.42578-1.0234 0.59375-1.5352 0.007813 2.6875 0.015625 4.5938 0.023438 4.8711 0.007812 0.19531 0.011718 0.38281 0.019531 0.57422-0.97266 1.5039-2.1953 3.1406-3.7344 5.1875-1.043 1.3828-2.2266 2.957-3.5742 4.8203zm5.9375 7.2812h-2.7461c0.96875-4.7695 2.7266-10.23 4.2773-13.449 0.10547 1.9805 0.23438 3.6875 0.40625 5.1836-0.64844 2.2695-1.2852 4.9766-1.9375 8.2656zm6.2617 3.5391c0.51172 0.74219 1.0781 1.5234 1.7031 2.3672-6.8984 0.11328-12.5 3.918-13.238 8.9844h-2.4805c0.66016-5.8516 6.5469-10.617 14.016-11.352zm38.121 24.543h-40.555c-8.1445 0-16.91-4.2578-17.68-11.207h75.91c-0.76562 6.9531-9.5273 11.207-17.676 11.207z"/>
</svg>