<svg xmlns="http://www.w3.org/2000/svg" xmlns:xlink="http://www.w3.org/1999/xlink" version="1.1" x="0px" y="0px" viewBox="0 0 100 125" enable-background="new 0 0 100 100" xml:space="preserve"><path d="M65.924,33.565c-6.346-5.905-13.097-9.959-20.637-12.393c-2.601-0.844-5.422,0.593-6.293,3.196  c-0.429,1.279-0.334,2.639,0.268,3.83c0.08,0.158,0.186,0.296,0.281,0.443c-5.066,13.247-12.359,27.377-21.128,40.906  c-0.905,1.397-0.888,3.118,0.047,4.49c0.933,1.37,2.526,2.016,4.154,1.686c7.438-1.507,15.17-3.555,23.639-6.262  c0.646-0.207,1.21,0.046,1.481,0.389c0.16,0.203,0.3,0.529,0.06,0.927c-0.161,0.262-0.343,0.542-0.546,0.836  c-1.688,2.399-1.348,4.108-0.765,5.12c0.946,1.644,3.054,2.337,4.813,2.336c0.187,0,0.371-0.008,0.548-0.023  c2.114-0.167,4.784-1.529,5.499-7.07c0.219-1.655,0.92-2.655,1.876-2.675c0.663-0.034,1.4,0.469,1.546,1.29  c0.46,2.813,2.616,3.966,4.552,3.875c1.157-0.056,2.746-0.639,3.734-2.104c0.63-0.935,1.209-2.545,0.386-4.902  c-0.529-1.55-0.663-2.95-0.396-4.161c0.283-1.274,1.341-2.371,2.83-2.935l1.938-0.735c0.938,0.499,1.995,0.765,3.06,0.765  c0.682,0,1.364-0.106,2.015-0.324c1.499-0.502,2.598-1.498,3.094-2.804c0.463-1.22,0.335-2.56-0.362-3.771  C77.272,45.934,71.993,39.229,65.924,33.565z M71.163,58.494c-2.121,0.803-3.644,2.437-4.074,4.373  c-0.347,1.576-0.193,3.338,0.458,5.246c0.437,1.251,0.384,2.334-0.154,3.131c-0.576,0.854-1.53,1.193-2.175,1.225  c-1.022,0.04-2.201-0.499-2.481-2.212c-0.304-1.722-1.852-3-3.561-2.954c-1.567,0.034-3.393,1.211-3.815,4.417  c-0.658,5.097-2.927,5.276-3.681,5.335c-1.466,0.126-2.957-0.439-3.463-1.318c-0.529-0.919,0.071-2.124,0.672-2.979  c0.229-0.333,0.432-0.644,0.614-0.939c0.625-1.034,0.549-2.263-0.199-3.208c-0.84-1.064-2.311-1.486-3.661-1.054  c-8.396,2.684-16.059,4.714-23.426,6.207c-0.837,0.167-1.625-0.149-2.104-0.852c-0.48-0.705-0.488-1.557-0.021-2.277  C28.76,57.262,35.989,43.303,41.091,30.16c0.329,0.2,0.675,0.375,1.052,0.496c6.181,1.994,11.689,5.282,16.837,10.051  c5.082,4.721,9.256,10.276,12.406,16.509c0.169,0.337,0.384,0.656,0.628,0.956L71.163,58.494z M80.109,56.556  c-0.279,0.736-0.939,1.31-1.858,1.618c-1.329,0.444-2.913,0.195-4.031-0.635c0,0-0.001,0-0.001-0.001  c-0.458-0.338-0.809-0.749-1.046-1.221c-3.258-6.447-7.575-12.192-12.832-17.075c-5.368-4.973-11.119-8.404-17.583-10.489  c-0.751-0.242-1.358-0.759-1.71-1.456c-0.358-0.71-0.414-1.524-0.156-2.293c0.423-1.265,1.608-2.072,2.87-2.072  c0.303,0,0.61,0.046,0.912,0.144c7.257,2.343,13.763,6.253,19.889,11.953c5.922,5.527,11.077,12.076,15.322,19.464  C80.275,55.174,80.356,55.907,80.109,56.556z M39.993,43.538C39.993,43.538,39.993,43.539,39.993,43.538  c-1.127,1.008-1.792,2.412-1.828,3.85c-0.033,1.366,0.492,2.654,1.477,3.625c1.056,1.043,2.507,1.566,3.97,1.566  c1.421,0,2.853-0.495,3.939-1.487c1.084-0.988,1.693-2.315,1.715-3.736c0.021-1.418-0.539-2.753-1.578-3.76  C45.599,41.574,42.219,41.55,39.993,43.538z M46.203,49.615c-1.445,1.319-3.806,1.309-5.156-0.025  c-0.588-0.581-0.902-1.345-0.882-2.153c0.021-0.888,0.445-1.765,1.161-2.407c1.447-1.294,3.631-1.292,4.972,0.003  c0.638,0.618,0.982,1.432,0.969,2.292C47.253,48.189,46.876,49.002,46.203,49.615z M53.377,52.525L53.377,52.525  c-0.883,0.848-1.356,1.974-1.334,3.17c0.022,1.208,0.549,2.333,1.484,3.167c0.935,0.836,2.135,1.252,3.327,1.252  c1.235,0,2.461-0.447,3.371-1.338c0.847-0.828,1.296-1.923,1.265-3.085c-0.033-1.213-0.604-2.393-1.566-3.236  C58.024,50.794,55.148,50.826,53.377,52.525z M58.826,57.345c-1.034,1.012-2.851,1.022-3.967,0.024  c-0.515-0.459-0.805-1.067-0.817-1.712c-0.012-0.632,0.244-1.233,0.72-1.69c1.03-0.988,2.718-0.991,3.844-0.008  c0.544,0.476,0.866,1.127,0.884,1.785C59.506,56.343,59.271,56.911,58.826,57.345z M36.434,57.997  C36.434,57.997,36.434,57.997,36.434,57.997c-0.843,0.671-1.358,1.629-1.412,2.629c-0.052,0.948,0.303,1.849,0.998,2.537  c0.753,0.746,1.794,1.124,2.848,1.124c0.953,0,1.917-0.309,2.684-0.934c0.827-0.673,1.308-1.599,1.353-2.605  c0.043-0.971-0.325-1.888-1.038-2.584C40.446,56.778,38.06,56.705,36.434,57.997z M40.289,61.801  c-0.818,0.668-2.156,0.64-2.862-0.059c-0.287-0.285-0.428-0.633-0.408-1.007c0.023-0.43,0.263-0.856,0.659-1.171v0  c0.838-0.665,2.091-0.651,2.792,0.033c0.299,0.292,0.454,0.669,0.437,1.062C40.888,61.086,40.669,61.492,40.289,61.801z"/></svg>