<svg xmlns="http://www.w3.org/2000/svg" version="1.1" viewBox="-5.0 -10.0 110.0 135.0">
 <path d="m83.738 77.281h-67.477c-6.2109 0-11.262-5.0508-11.262-11.262v-30.852c0-2.5781 2.1016-4.6719 4.6719-4.6719h80.648c2.5781 0 4.6719 2.1016 4.6719 4.6719v30.852c0 6.2109-5.0508 11.262-11.262 11.262zm-74.066-44.77c-1.4688 0-2.6719 1.1992-2.6719 2.6719v30.852c0 5.1016 4.1484 9.2617 9.2617 9.2617h67.48c5.1016 0 9.2617-4.1484 9.2617-9.2617v-30.852c0-1.4688-1.1992-2.6719-2.6719-2.6719z"/>
 <path d="m75.23 94.719h-50.461c-3.2891 0-5.9609-2.6719-5.9609-5.9609v-12.48c0-0.55078 0.44922-1 1-1 0.55078 0 1 0.44922 1 1v12.48c0 2.1797 1.7812 3.9609 3.9609 3.9609h50.461c2.1797 0 3.9609-1.7812 3.9609-3.9609v-12.48c0-0.55078 0.44922-1 1-1 0.55078 0 1 0.44922 1 1v12.48c0 3.2891-2.6719 5.9609-5.9609 5.9609z"/>
 <path d="m87.969 32.512c-0.51953 0-0.96094-0.39844-1-0.92188-0.44922-5.8008-5.3789-10.352-11.199-10.352-0.14062 0-0.19922 0.011719-0.26172 0.011719-0.46875 0-0.87891-0.32812-0.98047-0.80078-1.0781-5.1797-5.7109-8.9414-11-8.9414-1.1719 0-2.3203 0.17969-3.4414 0.53906-0.42188 0.12891-0.87891-0.019531-1.1289-0.39062-2.1016-3.0703-5.5703-4.8984-9.2812-4.8984-3.9414 0-7.5195 2.0117-9.5781 5.3906-0.26172 0.42969-0.80859 0.60156-1.2695 0.39062-1.4883-0.67969-3.0586-1.0312-4.6797-1.0312-5.3711 0-10.012 3.8281-11.031 9.1016-0.078126 0.41016-0.39844 0.73047-0.80859 0.80078-5.0781 0.87891-8.8984 5.0586-9.2891 10.172-0.039062 0.55078-0.5 0.96094-1.0703 0.92188-0.55078-0.039062-0.96094-0.51953-0.92188-1.0703 0.44922-5.8008 4.6406-10.59 10.281-11.859 1.4492-5.8711 6.7383-10.059 12.852-10.059 1.6211 0 3.1992 0.28906 4.7109 0.87109 2.4805-3.5391 6.4688-5.6211 10.82-5.6211 4.1211 0 7.9883 1.9219 10.5 5.1797 1.0898-0.28125 2.2109-0.42969 3.3398-0.42969 5.9609 0 11.211 4.0508 12.77 9.7383 6.6289 0.26953 12.141 5.5195 12.672 12.18 0.039063 0.55078-0.37109 1.0312-0.92188 1.0781h-0.078125z"/>
 <path d="m73.762 24.25c-0.17188 0-0.33984-0.039062-0.5-0.12891-2.6914-1.5508-6.0195-1.8984-9.0117-0.94141-0.42188 0.12891-0.87891-0.019532-1.1289-0.39063-2.1016-3.0703-5.5703-4.8984-9.2812-4.8984-0.55078 0-1-0.44922-1-1s0.44922-1 1-1c4.1211 0 7.9883 1.9219 10.5 5.1797 3.3281-0.87109 6.9492-0.37891 9.9219 1.3203 0.48047 0.26953 0.64062 0.89062 0.37109 1.3594-0.17969 0.32031-0.51953 0.5-0.87109 0.5z"/>
 <path d="m23.309 28.48c-0.28125 0-0.55078-0.10938-0.75-0.32812-0.37109-0.41016-0.32812-1.0391 0.078125-1.4102 1.8789-1.6797 3.8711-2.4609 6.2617-2.4609 1.1484 0 2.4414 0.46875 3.5781 0.89062 0.089844 0.03125 0.17969 0.070313 0.26953 0.10156 2.5-3.2383 6.3711-5.1484 10.469-5.1484 0.55078 0 1 0.44922 1 1s-0.44922 1-1 1c-3.7109 0-7.1719 1.8281-9.2812 4.8984-0.25 0.35937-0.71094 0.51953-1.1289 0.39062-0.30859-0.10156-0.66016-0.23047-1.0195-0.35937-0.92969-0.33984-2.1016-0.76953-2.8906-0.76953-1.8906 0-3.4102 0.60156-4.9297 1.9492-0.19141 0.17188-0.42969 0.25-0.67188 0.25z"/>
</svg>