<svg xmlns:dc="http://purl.org/dc/elements/1.1/" xmlns:cc="http://creativecommons.org/ns#" xmlns:rdf="http://www.w3.org/1999/02/22-rdf-syntax-ns#" xmlns:svg="http://www.w3.org/2000/svg" xmlns="http://www.w3.org/2000/svg" xmlns:sodipodi="http://sodipodi.sourceforge.net/DTD/sodipodi-0.dtd" xmlns:inkscape="http://www.inkscape.org/namespaces/inkscape" viewBox="0 0 26.458333 33.0729175" version="1.1" x="0px" y="0px"><g transform="translate(131.02975,-196.70833)"><path style="color:#000000;font-style:normal;font-variant:normal;font-weight:normal;font-stretch:normal;font-size:medium;line-height:normal;font-family:sans-serif;font-variant-ligatures:normal;font-variant-position:normal;font-variant-caps:normal;font-variant-numeric:normal;font-variant-alternates:normal;font-feature-settings:normal;text-indent:0;text-align:start;text-decoration:none;text-decoration-line:none;text-decoration-style:solid;text-decoration-color:#000000;letter-spacing:normal;word-spacing:normal;text-transform:none;writing-mode:lr-tb;direction:ltr;text-orientation:mixed;dominant-baseline:auto;baseline-shift:baseline;text-anchor:start;white-space:normal;shape-padding:0;clip-rule:nonzero;display:inline;overflow:visible;visibility:visible;opacity:1;isolation:auto;mix-blend-mode:normal;color-interpolation:sRGB;color-interpolation-filters:linearRGB;solid-color:#000000;solid-opacity:1;vector-effect:none;fill:#000000;fill-opacity:1;fill-rule:nonzero;stroke:none;stroke-width:1.72878063;stroke-linecap:round;stroke-linejoin:round;stroke-miterlimit:4;stroke-dasharray:none;stroke-dashoffset:86.9571991;stroke-opacity:1;color-rendering:auto;image-rendering:auto;shape-rendering:auto;text-rendering:auto;enable-background:accumulate" d="m -114.87034,200.44796 c -2.30495,0 -4.28773,1.39508 -5.14863,3.38921 0,2e-5 -1.1e-4,-3e-5 -1.1e-4,0 -0.25689,0.0671 -0.50387,0.17895 -0.7288,0.33659 -0.008,-0.019 -0.019,-0.038 -0.0291,-0.0568 -0.16592,-0.30329 -0.41456,-0.5667 -0.73426,-0.75166 -0.23245,-0.13469 -0.48157,-0.21507 -0.733,-0.24602 -0.65081,-0.0801 -1.31641,0.17379 -1.74541,0.69376 -0.44541,-0.34916 -1.00679,-0.5582 -1.61477,-0.5582 -1.33634,0 -2.44263,1.00887 -2.60197,2.30505 -0.19742,-0.0244 -0.39403,-0.0217 -0.5852,0.008 -0.88231,0.12383 -1.65075,0.76187 -1.89512,1.67581 -0.28136,1.0523 0.22159,2.13479 1.14756,2.62117 -0.60771,0.60991 -0.7597,1.57729 -0.31009,2.35769 0.0608,0.10536 0.13035,0.20339 0.20665,0.29279 0.0244,0.0299 0.0519,0.0587 0.0788,0.0866 h -0.61895 a 0.27014157,0.27014157 0 0 0 -0.038,-0.002 0.27014157,0.27014157 0 0 0 -0.23245,0.40866 0.27018097,0.27018097 0 0 0 0.002,0.005 0.27014157,0.27014157 0 0 0 0.005,0.008 l 3.13965,4.77987 c 0.2387,0.3635 0.46194,0.75682 0.79166,1.07636 0.32975,0.31948 0.78333,0.54919 1.38772,0.54919 h 14.30268 c 0.60443,0 1.0577,-0.22973 1.38743,-0.54919 0.32972,-0.31954 0.5532,-0.71286 0.79198,-1.07636 l 3.13851,-4.77817 a 0.27018097,0.27018097 0 0 0 0.005,-0.008 0.27014157,0.27014157 0 0 0 -0.26503,-0.41586 0.27014157,0.27014157 0 0 0 -0.0244,0.002 h -0.20937 c 0.0285,-0.0603 0.0551,-0.11949 0.0801,-0.17814 0.37398,-0.8762 0.34919,-1.53903 0.32024,-2.13528 -0.035,-0.72179 -0.076,-1.34925 0.56187,-2.45803 a 0.27014197,0.27014197 0 0 0 0,-1.3e-4 c 0.4202,-0.73043 0.16158,-1.67256 -0.57148,-2.09716 -0.1833,-0.10617 -0.37958,-0.17026 -0.57779,-0.19552 -0.58696,-0.0744 -1.18867,0.19389 -1.50715,0.72785 a 0.27014197,0.27014197 0 0 0 -0.0136,0.0217 c -0.51144,0.88904 -0.94058,1.20782 -1.39206,1.45102 0.0508,-0.0831 0.0953,-0.16592 0.13333,-0.24874 0.20964,-0.45963 0.20747,-0.91886 0.0429,-1.29887 -0.16484,-0.38001 -0.5184,-0.67207 -0.97551,-0.68312 -0.0969,-0.002 -0.19742,0.008 -0.30101,0.0244 0.2262,-0.29224 0.43511,-0.60013 0.61284,-0.90826 0.42134,-0.73081 0.59522,-1.33309 0.5575,-1.83888 -0.0378,-0.50584 -0.31446,-0.89935 -0.69586,-1.11985 -0.19063,-0.11025 -0.40562,-0.17624 -0.63011,-0.18683 -0.22458,-0.0109 -0.45841,0.0334 -0.68668,0.14338 -0.079,0.038 -0.1575,0.0839 -0.23544,0.13605 -0.97343,-0.81523 -2.22915,-1.30655 -3.59632,-1.30655 z m -6.39963,0.0486 c -0.12545,-10e-4 -0.252,0.0244 -0.37338,0.0956 -0.32405,0.18601 -0.40266,0.55413 -0.40562,0.88369 -0.002,0.32958 0.0698,0.65783 0.21643,0.91046 0.26612,0.45852 0.8259,0.62607 1.30647,0.43946 l 0.038,0.0136 0.10997,-0.0633 c 0.50651,-0.29086 0.68174,-0.94601 0.38844,-1.45126 -0.14664,-0.25255 -0.39634,-0.47924 -0.68427,-0.6412 -0.14392,-0.0809 -0.30514,-0.15071 -0.47103,-0.17678 -0.0416,-0.008 -0.0834,-0.008 -0.12519,-0.0109 z m 6.39963,0.49148 c 1.20551,0 2.30956,0.42097 3.17902,1.12361 -0.17786,0.18629 -0.35288,0.41475 -0.52556,0.6885 -0.72372,-0.59055 -1.64831,-0.94593 -2.65346,-0.94593 -1.5392,-6e-5 -2.88792,0.83011 -3.61976,2.06869 -0.008,0.0109 -0.0136,0.0244 -0.0217,0.0358 -0.27911,-0.12356 -0.5779,-0.18873 -0.87799,-0.19525 0.83698,-1.64667 2.54378,-2.77555 4.51811,-2.77555 z m -6.44109,0.0573 c 0.0271,-0.001 0.0608,6e-4 0.0991,0.008 0.0763,0.0136 0.17108,0.0448 0.27362,0.10237 0.20503,0.11514 0.40834,0.31498 0.48179,0.44144 0.14691,0.25309 0.063,0.56619 -0.19036,0.7115 -0.25308,0.14528 -0.57091,0.06 -0.71779,-0.1928 -0.0733,-0.12655 -0.14583,-0.40106 -0.14366,-0.63446 0.002,-0.23327 0.0787,-0.38832 0.13442,-0.42037 0.0136,-0.008 0.0353,-0.0136 0.063,-0.0136 z m 13.13288,0.7597 a 0.27018991,0.27018991 0 1 0 -0.005,0.54034 c 1.15405,0.008 2.07589,0.94769 2.06617,2.10247 a 0.27019158,0.27019158 0 1 0 0.54033,0.005 c 0.0109,-1.44657 -1.15595,-2.63532 -2.60208,-2.64754 z m -18.26484,0.054 c -1.12945,0.0244 -2.16138,0.78161 -2.47798,1.92594 a 0.27020279,0.27020279 0 1 0 0.52081,0.14419 c 0.30824,-1.11415 1.45178,-1.76298 2.56271,-1.45482 a 0.27014202,0.27014202 0 0 0 0.10672,0.0109 0.27014202,0.27014202 0 0 0 0.0272,-0.002 0.27014202,0.27014202 0 0 0 0.0109,-0.52714 c -0.17407,-0.0483 -0.34914,-0.0777 -0.52285,-0.0893 -0.076,-0.005 -0.1518,-0.008 -0.22702,-0.005 z m 16.0174,0.1461 c 0.15072,-0.002 0.29103,0.0421 0.43365,0.12464 0.25363,0.14664 0.40174,0.34555 0.42756,0.69186 0.0244,0.34632 -0.098,0.85542 -0.48654,1.52901 -0.38743,0.67191 -0.9581,1.37064 -1.49197,1.84078 a 0.27022716,0.27022716 0 0 0 -0.0136,0.0109 0.27014197,0.27014197 0 0 0 0.35077,0.40991 c 0.14881,-0.107 0.28792,-0.19661 0.41686,-0.27047 0.032,-0.019 0.0638,-0.0358 0.0945,-0.0524 0.34066,-0.18194 0.60442,-0.24983 0.78525,-0.24549 0.26395,0.008 0.38677,0.11297 0.49295,0.3577 0.10618,0.24467 0.11758,0.51804 -0.0383,0.85984 -0.15614,0.34181 -0.4936,0.74756 -1.09197,1.1792 -0.29914,0.21588 -0.63315,0.4164 -0.96746,0.58506 a 0.27019435,0.27019435 0 0 0 -10e-4,6.1e-4 0.27030027,0.27030027 0 0 0 -0.0163,0.008 0.27019435,0.27019435 0 0 0 -0.008,0.005 0.27030027,0.27030027 0 0 0 -0.0136,0.008 0.27019435,0.27019435 0 0 0 -0.008,0.008 0.27030027,0.27030027 0 0 0 -0.0136,0.0136 0.27019435,0.27019435 0 0 0 -0.005,0.005 0.27030027,0.27030027 0 0 0 -0.0136,0.0163 0.27019435,0.27019435 0 0 0 -0.002,0.002 0.27030027,0.27030027 0 0 0 -0.0136,0.0163 0.27019435,0.27019435 0 0 0 -0.002,0.005 0.27030027,0.27030027 0 0 0 -0.0109,0.019 0.27019435,0.27019435 0 0 0 -0.002,0.005 0.27030027,0.27030027 0 0 0 -0.008,0.0163 0.27019435,0.27019435 0 0 0 -0.002,0.008 0.27030027,0.27030027 0 0 0 -0.008,0.019 0.27019435,0.27019435 0 0 0 -0.002,0.008 0.27030027,0.27030027 0 0 0 -0.005,0.019 0.27019435,0.27019435 0 0 0 -0.002,0.008 0.27030027,0.27030027 0 0 0 -0.002,0.019 0.27019435,0.27019435 0 0 0 -0.001,0.008 0.27030027,0.27030027 0 0 0 -6.6e-4,0.0163 0.27019435,0.27019435 0 0 0 -4.2e-4,0.0109 0.27030027,0.27030027 0 0 0 6.9e-4,0.019 0.27019435,0.27019435 0 0 0 6.1e-4,0.008 0.27030027,0.27030027 0 0 0 0.002,0.0217 0.27019435,0.27019435 0 0 0 10e-4,0.008 0.27030027,0.27030027 0 0 0 0.008,0.0244 0.27019435,0.27019435 0 0 0 10e-4,0.002 0.27030027,0.27030027 0 0 0 0.008,0.0217 0.27019435,0.27019435 0 0 0 10e-4,0.002 0.27030027,0.27030027 0 0 0 0.008,0.0217 0.27019435,0.27019435 0 0 0 10e-4,0.002 0.27030027,0.27030027 0 0 0 0.0109,0.019 0.27019435,0.27019435 0 0 0 0.002,0.008 0.27030027,0.27030027 0 0 0 0.008,0.0136 0.27019435,0.27019435 0 0 0 0.008,0.008 0.27030027,0.27030027 0 0 0 0.0136,0.0136 0.27019435,0.27019435 0 0 0 0.005,0.005 0.27030027,0.27030027 0 0 0 0.0163,0.0136 0.27019435,0.27019435 0 0 0 0.002,0.002 0.27030027,0.27030027 0 0 0 0.0163,0.0109 0.27019435,0.27019435 0 0 0 0.008,0.005 0.27030027,0.27030027 0 0 0 0.019,0.0109 0.27019435,0.27019435 0 0 0 0.002,0.001 0.27030027,0.27030027 0 0 0 0.0217,0.008 0.27019435,0.27019435 0 0 0 0.005,0.002 0.27030027,0.27030027 0 0 0 0.0244,0.008 0.27019435,0.27019435 0 0 0 0.002,0.001 0.27030027,0.27030027 0 0 0 0.0217,0.005 0.27019435,0.27019435 0 0 0 0.005,0.001 0.27030027,0.27030027 0 0 0 0.0217,0.002 0.27019435,0.27019435 0 0 0 0.008,6.6e-4 0.27030027,0.27030027 0 0 0 0.0524,-0.001 0.27019435,0.27019435 0 0 0 6.4e-4,-10e-5 0.27030027,0.27030027 0 0 0 0.0244,-0.002 0.27019435,0.27019435 0 0 0 0.002,-6.9e-4 0.27030027,0.27030027 0 0 0 0.019,-0.005 0.27019435,0.27019435 0 0 0 0.008,-0.002 0.27030027,0.27030027 0 0 0 0.0136,-0.005 c 0.12002,-0.0489 0.23245,-0.0888 0.33702,-0.12111 0.035,-0.0109 0.069,-0.0217 0.10211,-0.0301 0.3988,-0.10998 0.67774,-0.10319 0.84811,-0.0421 0.22702,0.0817 0.32853,0.23924 0.36972,0.53518 0.0399,0.28646 -0.0272,0.76144 -0.26069,1.20722 -0.23462,0.44567 -0.62631,0.86764 -1.23663,1.11535 -0.63999,0.25988 -1.39557,0.41466 -1.97161,0.41752 h -2.47714 c 0.0432,-0.0986 0.0874,-0.19688 0.13224,-0.29505 0.0448,-0.098 0.0902,-0.19633 0.1366,-0.29414 0.0942,-0.17923 0.19742,-0.25689 0.36844,-0.32044 0.1757,-0.0652 0.42729,-0.0961 0.74175,-0.12274 0.62897,-0.0535 1.49982,-0.10455 2.52561,-0.58938 a 0.27014194,0.27014194 0 0 0 -0.10835,-0.51606 0.27014194,0.27014194 0 0 0 -0.12274,0.0274 c -0.93358,0.44127 -1.69873,0.48513 -2.34009,0.5396 -0.16456,0.0136 -0.32176,0.028 -0.47247,0.0521 -0.0502,0.008 -0.0997,0.0163 -0.14882,0.0274 0.0652,-0.12736 0.13144,-0.25499 0.19878,-0.38289 a 0.27014194,0.27014194 0 0 0 0.005,-0.008 c 0.36025,-0.68119 0.75441,-1.37368 1.18482,-2.0996 0.0728,-0.10102 0.14772,-0.15126 0.24358,-0.19145 0.13143,-0.0551 0.31902,-0.0793 0.56111,-0.10264 0.48418,-0.0462 1.17089,-0.11107 1.94612,-0.66001 a 0.27014194,0.27014194 0 0 0 -0.14229,-0.49285 0.27014194,0.27014194 0 0 0 -0.17,0.0519 c -0.67353,0.47704 -1.19719,0.51677 -1.68537,0.56342 -0.0456,0.005 -0.091,0.008 -0.13632,0.0136 -0.0451,0.005 -0.0902,0.008 -0.13523,0.0163 0.44565,-0.73458 0.92559,-1.50794 1.44483,-2.34443 a 0.27014194,0.27014194 0 0 0 -0.2167,-0.41591 0.27014194,0.27014194 0 0 0 -0.2425,0.13089 c -0.52706,0.84904 -1.01507,1.63518 -1.46889,2.38367 -0.0388,-0.0991 -0.0834,-0.19552 -0.1279,-0.29355 -0.20366,-0.44665 -0.43112,-0.92076 -0.35525,-1.74351 a 0.27014194,0.27014194 0 0 0 -0.27519,-0.29879 0.27014194,0.27014194 0 0 0 -0.26286,0.24928 c -0.0874,0.94659 0.19959,1.57409 0.40157,2.01711 0.10102,0.22158 0.17434,0.39608 0.19226,0.53789 0.0136,0.11459 0.005,0.21371 -0.0625,0.34631 -0.0244,0.0361 -0.0453,0.0739 -0.066,0.11351 a 0.27014194,0.27014194 0 0 0 -0.008,0.0109 c -0.25553,0.43367 -0.4989,0.85716 -0.72994,1.27443 -0.12111,-0.14664 -0.26856,-0.24575 -0.41531,-0.36573 -0.35283,-0.28847 -0.76994,-0.67117 -1.03446,-1.78973 a 0.27014194,0.27014194 0 0 0 -0.27644,-0.21126 0.27014194,0.27014194 0 0 0 -0.24929,0.33585 c 0.28937,1.22368 0.83338,1.76852 1.21836,2.08325 0.19253,0.15751 0.32795,0.26477 0.37447,0.33662 0.0451,0.0695 0.0638,0.11596 0.001,0.31525 -0.22566,0.42786 -0.43853,0.85284 -0.63961,1.27989 -0.002,0.002 -0.005,0.008 -0.008,0.0109 a 0.27014194,0.27014194 0 0 0 -0.0136,0.0282 c -0.0616,0.13116 -0.12193,0.26286 -0.18112,0.3947 -0.0589,0.13198 -0.11732,0.26422 -0.17407,0.39704 h -1.17944 c 0.48331,-0.74482 0.6687,-1.63733 0.4227,-2.55657 -0.0864,-0.32187 -0.21914,-0.62742 -0.38998,-0.91228 a 0.27025317,0.27025317 0 0 0 -0.0109,-0.0402 c -0.14175,-0.38583 -0.25173,-0.81464 -0.30903,-1.22672 -0.0953,-0.68494 -0.0272,-1.18256 0.1241,-1.52613 0.15071,-0.34357 0.37733,-0.54267 0.65369,-0.65483 0.27633,-0.11215 0.46297,-0.10319 0.64719,0.053 0.18384,0.15587 0.38031,0.52727 0.47587,1.20971 a 0.27014197,0.27014197 0 0 0 0.53844,-0.032 0.27017419,0.27017419 0 0 0 -1.9e-4,-0.008 0.27014197,0.27014197 0 0 0 -4.5e-4,-0.0109 c -0.008,-0.14039 -0.0109,-0.28285 -0.0109,-0.4256 3e-5,-0.0475 6.3e-4,-0.0953 0.001,-0.14257 0.002,-0.19036 0.0136,-0.37966 0.0334,-0.56331 0.0741,-0.7348 0.25608,-1.23044 0.47376,-1.53661 0.21778,-0.30618 0.4593,-0.4327 0.72382,-0.463 0.26449,-0.0304 0.41825,0.0244 0.55587,0.24874 0.13714,0.22512 0.22974,0.67943 0.15669,1.41113 a 0.27021343,0.27021343 0 0 0 0.19036,0.29048 0.27015086,0.27015086 0 0 0 0.008,0.002 0.27021343,0.27021343 0 0 0 0.0109,0.002 0.27015086,0.27015086 0 0 0 0.0136,0.002 0.27021343,0.27021343 0 0 0 0.002,4.3e-4 0.27015086,0.27015086 0 0 0 0.30463,-0.20665 0.27021343,0.27021343 0 0 0 0.001,-0.008 c 0.13931,-0.69906 0.45869,-1.54568 0.84706,-2.2193 0.29132,-0.50517 0.577,-0.83511 0.83335,-1.03212 0.0217,-0.0163 0.0429,-0.032 0.0635,-0.0464 0.063,-0.044 0.12383,-0.0796 0.18221,-0.1078 0.13659,-0.066 0.26042,-0.0975 0.37784,-0.0997 z m -4.44435,0.38932 c 0.91022,3e-5 1.74009,0.33122 2.38041,0.88019 -0.12356,0.23489 -0.23761,0.48108 -0.33979,0.73132 -0.0359,-0.0989 -0.0785,-0.18954 -0.12872,-0.27231 -0.23788,-0.39063 -0.66737,-0.55161 -1.07867,-0.50447 -0.41129,0.0473 -0.81007,0.27489 -1.10272,0.68668 -0.25608,0.3603 -0.43957,0.85414 -0.5354,1.5062 -0.002,0.0272 -0.008,0.0549 -0.0109,0.0823 -0.0538,-0.0671 -0.11161,-0.12709 -0.17406,-0.18004 -0.17217,-0.14583 -0.37288,-0.22186 -0.58032,-0.24087 -0.20746,-0.019 -0.42145,0.019 -0.61968,0.0988 -0.0755,0.0304 -0.14881,0.0671 -0.21996,0.10862 -0.11025,-0.31389 -0.29083,-0.60885 -0.54066,-0.85909 -0.0714,-0.0714 -0.14691,-0.13686 -0.22512,-0.19715 0.63212,-1.09955 1.81539,-1.84051 3.17574,-1.84048 z m 7.07935,0.8973 c -0.25526,1.9e-4 -0.51052,0.0972 -0.70349,0.29113 -0.1928,0.19389 -0.33499,0.47011 -0.41105,0.76687 -0.076,0.29675 -0.0964,0.6492 0.15397,0.90085 0.25065,0.25173 0.60323,0.23136 0.8992,0.15478 0.29596,-0.0766 0.57118,-0.21914 0.76412,-0.41316 0.38604,-0.38767 0.38702,-1.02257 0.001,-1.41007 v -4.5e-4 l -0.001,-6.6e-4 c -0.19253,-0.19278 -0.44784,-0.28929 -0.7027,-0.28908 z m -14.72674,0.35103 c 0.24902,-0.005 0.50319,0.0559 0.73594,0.19063 0.33855,0.19579 0.56366,0.50819 0.65724,0.85817 a 0.27014202,0.27014202 0 0 0 0.002,0.008 0.27014429,0.27014429 0 0 0 0.001,0.008 0.27014202,0.27014202 0 0 0 0.48502,0.0709 c 0.68616,-0.64883 1.75986,-0.63712 2.43231,0.0367 0.2463,0.24657 0.40201,0.5468 0.47079,0.86299 -0.10672,0.12872 -0.19932,0.27685 -0.27305,0.44467 -0.20285,0.46238 -0.26992,1.06227 -0.16456,1.81724 0.008,0.0731 0.0244,0.1461 0.0353,0.21942 -0.005,-0.005 -0.008,-0.008 -0.0136,-0.0136 -0.19607,-0.16918 -0.4085,-0.32212 -0.63395,-0.45646 a 0.27014194,0.27014194 0 0 0 -0.0377,-0.41794 c 0,0 -0.75544,-0.51764 -1.7204,-0.51764 -0.60378,0 -1.12543,0.20258 -1.43139,0.35441 -0.0603,-0.27536 -0.008,-0.60481 0.11785,-0.98846 a 0.27014194,0.27014194 0 0 0 -0.25335,-0.35937 0.27014194,0.27014194 0 0 0 -0.25907,0.18873 c -0.14365,0.4313 -0.2243,0.87429 -0.13089,1.28607 -0.34343,0.0291 -0.8558,0.12247 -1.34321,0.40402 -0.83554,0.48304 -1.23144,1.30922 -1.23144,1.30922 a 0.27014194,0.27014194 0 0 0 0.17651,0.38101 c -0.37502,0.67055 -0.57398,1.42316 -0.5509,2.16407 0.001,0.0494 0.002,0.0988 0.008,0.148 -0.18682,-0.40997 -0.31633,-0.77363 -0.38848,-1.10716 -0.13089,-0.60572 -0.0902,-1.12016 0.11622,-1.7151 l 3.9e-4,-6.6e-4 c 0.44271,-1.25868 0.68442,-1.59525 0.75054,-2.20095 0.0244,-0.23516 -0.008,-0.43652 -0.1021,-0.59304 -0.0464,-0.0788 -0.10374,-0.14257 -0.16429,-0.19606 0.3613,-0.42368 0.46188,-1.05067 0.13577,-1.53301 a 0.24194017,0.24194017 0 0 0 -0.20502,-0.10916 0.24194017,0.24194017 0 0 0 -0.19633,0.38036 c 0.19905,0.29445 0.10998,0.74129 -0.16293,1.01021 -0.0641,-0.0217 -0.13334,-0.0367 -0.20964,-0.0405 -0.18792,-0.008 -0.39156,0.0614 -0.59302,0.21127 l -0.0136,0.008 -0.0136,0.0136 c -1.04179,1.03785 -1.67926,2.4234 -1.76301,3.77495 -0.0676,1.08749 0.23625,2.16113 0.98422,2.97802 0.0244,0.0272 0.0489,0.0524 0.0739,0.0785 h -1.36642 c -0.0217,-0.008 -0.0418,-0.0136 -0.0625,-0.0217 -0.31053,-0.10672 -0.58452,-0.3206 -0.76234,-0.62925 -0.38422,-0.66691 -0.16836,-1.50878 0.48114,-1.9097 a 0.27014205,0.27014205 0 0 0 0.10265,-0.43948 0.27014202,0.27014202 0 0 0 -0.0136,-0.0136 0.27014205,0.27014205 0 0 0 -4.4e-4,-3.7e-4 0.27014202,0.27014202 0 0 0 -0.14583,-0.0698 c -0.91673,-0.2626 -1.45397,-1.20812 -1.20601,-2.13551 0.25064,-0.93705 1.20407,-1.48822 2.13832,-1.23733 a 0.27022952,0.27022952 0 0 0 0.0272,0.008 0.27022952,0.27022952 0 0 0 0.0272,0.002 0.27022952,0.27022952 0 0 0 0.27128,-0.17949 0.27018097,0.27018097 0 0 0 0,-1.1e-4 0.27022952,0.27022952 0 0 0 0.0136,-0.0733 0.27018097,0.27018097 0 0 0 6.3e-4,-0.008 0.27022952,0.27022952 0 0 0 8e-5,-0.002 0.27018097,0.27018097 0 0 0 1.1e-4,-0.008 c 0,-1.15614 0.92936,-2.08684 2.08211,-2.08684 0.56404,0 1.07217,0.22376 1.44711,0.58729 a 0.27014202,0.27014202 0 0 0 0.44431,-0.0244 0.27014517,0.27014517 0 0 0 0.002,-0.002 0.27014202,0.27014202 0 0 0 0.002,-0.005 c 0.25662,-0.44554 0.71418,-0.69773 1.18978,-0.7078 z m 14.72715,0.18548 c 0.11541,-1.4e-4 0.23109,0.0445 0.32067,0.13496 0.1795,0.18004 0.17923,0.46693 -0.001,0.64809 -0.0901,0.0907 -0.31389,0.2186 -0.51679,0.27128 -0.20285,0.0524 -0.3487,0.019 -0.3808,-0.0136 -0.032,-0.0323 -0.0657,-0.18085 -0.0136,-0.38522 0.0521,-0.20448 0.18004,-0.42952 0.27047,-0.52008 0.0902,-0.0907 0.20557,-0.13578 0.32108,-0.13605 z m -18.09762,2.1897 c 0.0627,0.002 0.13143,0.0318 0.22403,0.0891 0.0953,0.0584 0.15126,0.10672 0.1833,0.1613 0.032,0.0546 0.0557,0.13089 0.038,0.29512 -0.0244,0.21507 -0.0812,0.40019 -0.17325,0.64299 -0.008,-0.0109 -0.0217,-0.0244 -0.034,-0.0358 -0.0369,-0.0353 -0.0839,-0.0692 -0.14446,-0.0934 -0.15207,-0.0614 -0.27987,-0.0244 -0.35338,-0.008 -0.0399,0.008 -0.0627,0.008 -0.0739,0.0109 -0.008,-0.008 -0.0163,-0.0217 -0.035,-0.05 -0.0386,-0.0603 -0.1059,-0.1795 -0.25797,-0.24087 -0.0652,-0.0272 -0.12546,-0.0342 -0.17923,-0.0342 0.16212,-0.21887 0.34053,-0.42761 0.53453,-0.62261 0.13034,-0.0942 0.21099,-0.1146 0.27128,-0.11161 z m 19.4713,0.0432 c 0.0244,-6.9e-4 0.044,-6.9e-4 0.066,0 0.16048,0.005 0.3232,0.05 0.47407,0.13741 0.48274,0.27975 0.64712,0.88597 0.37401,1.3607 a 0.27014197,0.27014197 0 0 0 -0.0136,0.0244 c -0.67652,1.18748 -0.65521,2.01124 -0.62031,2.73004 0.0315,0.64939 0.0714,1.21224 -0.37122,2.10419 -0.0296,0.0595 -0.0611,0.12029 -0.095,0.18302 h -4.14005 c 0.43315,-0.20964 0.77189,-0.50009 1.02622,-0.82142 0.11053,0.14718 0.25119,0.27356 0.41689,0.36961 0.65578,0.37999 1.51598,0.15452 1.94452,-0.59025 0.21425,-0.37246 0.3336,-0.85352 0.33499,-1.31195 0.001,-0.45847 -0.1127,-0.9345 -0.51248,-1.16614 -0.16918,-0.098 -0.35291,-0.12817 -0.53749,-0.11351 -0.18465,0.0136 -0.37012,0.0739 -0.54275,0.15425 -0.19796,0.0926 -0.38797,0.21778 -0.56111,0.36274 -0.11134,-0.29942 -0.32614,-0.55185 -0.64692,-0.66705 -0.0288,-0.008 -0.0581,-0.019 -0.088,-0.0277 0.31731,-0.22674 0.63327,-0.34883 0.99204,-0.5358 0.52532,-0.27367 1.10072,-0.69113 1.68084,-1.69952 a 0.27014197,0.27014197 0 0 0 0,-8e-5 c 0.17597,-0.30599 0.48904,-0.48103 0.81857,-0.49189 z m -20.28172,1.17814 c 0.005,0.008 0.0163,0.0217 0.0348,0.0494 0.0386,0.06 0.10617,0.18004 0.25851,0.24141 0.15207,0.0614 0.27984,0.0244 0.35338,0.008 0.0396,-0.008 0.0625,-0.008 0.0733,-0.0109 0.005,0.008 0.0163,0.0217 0.035,0.05 0.0244,0.0375 0.0597,0.0986 0.1203,0.1537 -0.0969,0.24494 -0.20693,0.52942 -0.34556,0.92369 l -4.3e-4,4.2e-4 v 6.6e-4 c -0.22892,0.6611 -0.28071,1.29102 -0.13252,1.97648 0.11107,0.51323 0.32931,1.05724 0.65534,1.68895 0.0467,0.0902 0.0953,0.18222 0.14637,0.27625 h -0.96163 c -0.0307,-0.0244 -0.0611,-0.0467 -0.0907,-0.0706 -0.92018,-0.74053 -1.28379,-1.8121 -1.21289,-2.95586 0.0481,-0.77643 0.30528,-1.57977 0.73257,-2.3078 0.11052,0.0217 0.20231,-0.002 0.26042,-0.0136 0.0399,-0.008 0.0627,-0.008 0.0739,-0.0109 z m 6.15672,0.0529 c 0.36926,0 0.70663,0.0994 0.96227,0.20149 -0.25553,0.10211 -0.59301,0.2015 -0.96227,0.2015 -0.24033,0 -0.46656,-0.0424 -0.66612,-0.0997 -0.0758,-0.0491 -0.15045,-0.0921 -0.22241,-0.12981 0.24549,-0.0912 0.55351,-0.17352 0.88864,-0.17352 z m -2.1739,0.51796 c -0.0437,0.069 -0.0872,0.1442 -0.12872,0.22485 -0.14419,0.14963 -0.31872,0.29925 -0.52659,0.41941 -0.27978,0.16185 -0.57621,0.24522 -0.8284,0.29005 -0.0359,0.008 -0.0712,0.0109 -0.1051,0.0163 0.17054,-0.21642 0.41315,-0.47147 0.73304,-0.6564 0.29012,-0.16754 0.59763,-0.25118 0.85569,-0.29479 z m 3.35915,0.18113 c 0.0673,0.0326 0.13387,0.0665 0.19877,0.10292 0.84231,0.47033 1.48128,1.22807 1.71155,2.08841 0.23978,0.89637 0.005,1.72521 -0.57105,2.41713 h -6.63712 c -0.0136,-0.0342 -0.0301,-0.0693 -0.0445,-0.1051 -0.0429,-0.10753 -0.0801,-0.22104 -0.11079,-0.3364 -0.23001,-0.86036 -0.0551,-1.83635 0.43945,-2.66549 0.038,-0.0641 0.0787,-0.12681 0.12085,-0.189 0.32714,-0.0459 0.74549,-0.14935 1.14717,-0.38134 -0.0549,0.60885 0.11732,1.10145 0.11732,1.10145 a 0.27014194,0.27014194 0 0 0 0.4363,0.11459 c 0,0 0.55343,-0.48738 0.74734,-1.25539 0.008,-0.0421 0.019,-0.0839 0.0274,-0.12573 0.0277,0.0321 0.0562,0.0638 0.0866,0.0951 0.55152,0.56814 1.27375,0.71307 1.27375,0.71307 a 0.27014194,0.27014194 0 0 0 0.32097,-0.31707 c 0,0 -0.0969,-0.51302 -0.44885,-1.01292 0.46381,-1.9e-4 0.87802,-0.12003 1.18427,-0.24413 z m -2.21192,0.06 c 0.002,6.6e-4 0.005,0.001 0.008,0.002 0.13415,0.0779 0.26775,0.13632 0.39269,0.26531 0.13144,0.13523 0.19145,0.28149 0.27074,0.42712 -0.13686,-0.0801 -0.27323,-0.13849 -0.40084,-0.26992 -0.13061,-0.13469 -0.19063,-0.27984 -0.26938,-0.42468 z m -0.73509,0.19715 c 0.002,0.16483 0.0244,0.32071 -0.0217,0.50256 -0.0448,0.17733 -0.13333,0.29594 -0.21181,0.43387 -0.002,-0.16565 -0.0244,-0.32177 0.0217,-0.50444 0.0443,-0.17461 0.13061,-0.29233 0.20801,-0.42754 0.001,-0.001 0.002,-0.002 0.002,-0.005 z m 14.33401,1.2574 c 0.0671,0.002 0.12329,0.0163 0.16619,0.0413 0.13578,0.0788 0.24495,0.33789 0.24386,0.69702 -10e-4,0.35916 -0.10998,0.77792 -0.26314,1.0441 -0.30623,0.5323 -0.79043,0.63291 -1.20548,0.39237 -0.17406,-0.10075 -0.29518,-0.24494 -0.36127,-0.41456 0.19334,-0.38452 0.29116,-0.77379 0.30683,-1.11937 0.19416,-0.21941 0.45547,-0.423 0.69922,-0.53697 0.16076,-0.0752 0.30227,-0.10699 0.41393,-0.10346 z m -21.74974,3.63421 h 1.10243 a 0.27014202,0.27014202 0 0 0 0.0272,0.001 0.27014202,0.27014202 0 0 0 0.0323,-0.001 h 3.68031 a 0.27014194,0.27014194 0 0 0 0.11623,0 h 6.8088 a 0.27014194,0.27014194 0 0 0 0.10971,0 h 11.33514 a 0.27014197,0.27014197 0 0 0 0.11975,0 h 0.15696 l -2.86489,4.36123 c -0.0625,0.095 -0.12247,0.18846 -0.18167,0.27948 -0.17705,0.2727 -0.3443,0.52065 -0.53515,0.70555 -0.25445,0.24657 -0.53344,0.39718 -1.01135,0.39718 h -14.30268 c -0.4779,0 -0.75722,-0.15044 -1.01167,-0.39718 -0.25445,-0.24657 -0.46661,-0.60507 -0.7162,-0.98503 z m 3.34153,2.15714 a 0.27014157,0.27014157 0 0 0 -0.22023,0.42384 l 0.60418,0.90014 c 0.18248,0.27178 0.3563,0.5726 0.61925,0.82183 0.26286,0.24929 0.63084,0.43042 1.10948,0.43042 h 2.60048 a 0.27014157,0.27014157 0 0 0 0.0272,-6.4e-4 0.27014157,0.27014157 0 0 0 -0.0272,-0.53949 h -2.60048 c -0.35489,0 -0.55084,-0.10509 -0.73775,-0.28234 -0.18683,-0.17705 -0.34876,-0.44271 -0.54232,-0.73102 l -0.60462,-0.90045 a 0.27014157,0.27014157 0 0 0 -0.2281,-0.12219 z"/></g></svg>