<svg xmlns="http://www.w3.org/2000/svg" version="1.1" viewBox="-5.0 -10.0 110.0 135.0">
 <path d="m89.191 44.895c-3.2266-1.9141-7.1016-3.168-10.117-4.043l-0.69922-0.20312 9.4922-9.6523c1.3242-1.3438 1.8281-3.2812 1.3516-5.1797-0.48047-1.9023-1.8398-3.375-3.6445-3.9336-0.52344-0.16406-1.0703-0.24609-1.6211-0.24609-1.7148 0-3.3516 0.80859-4.3867 2.1641l-6.8047 8.9492-0.007813 0.007812c-0.035156 0.035157-0.0625 0.066407-0.085937 0.097657l-4.3359 5.6875-0.25391-0.039063c-5.6914-0.85156-11.773-1.2852-18.078-1.2852-11.879 0-23.055 1.5547-31.473 4.3789-8.7227 2.9258-13.527 6.9414-13.527 11.309 0 19.758 18.305 34.52 34.668 34.52h20.617c8.0234 0 16.758-3.6133 23.359-9.6641 7.2148-6.6133 11.355-15.672 11.355-24.855 0-3.0273-1.9531-5.7227-5.8086-8.0117zm-15.891-9.9023 0.007813-0.007813c0.039062-0.039063 0.070312-0.070313 0.09375-0.10547l7.5977-9.9883c0.69531-0.91406 1.8008-1.457 2.9531-1.457 0.37109 0 0.73828 0.054687 1.0938 0.16406 1.2188 0.37891 2.1367 1.3672 2.4609 2.6484 0.32031 1.2773-0.019531 2.5859-0.91406 3.4922l-22.578 22.949-0.21875-0.03125c-0.96484-0.14062-1.9219-0.26562-2.8516-0.36719l-0.76172-0.085937zm-20.602 18.27c0.16406 0.17578 0.38672 0.27344 0.625 0.28125 5.8242 0.19141 11.137 0.84375 15.797 1.9375 0.046875 0.011719 0.10156 0.015625 0.15234 0.015625 0.40625 0 0.83984-0.32031 0.92578-0.68359 0.11328-0.48047-0.1875-0.96484-0.66797-1.0781-0.82031-0.19531-1.6797-0.37891-2.5547-0.54297l-0.79687-0.15234 4.2344-4.3008 0.23047 0.046875c10.352 2.1211 17.371 5.8203 18.32 9.6523l0.074218 0.30078-0.25781 0.16797c-2.0273 1.3203-4.6797 2.5352-7.8828 3.6133-8.2383 2.7656-19.211 4.2852-30.898 4.2852-7.2031 0-14.336-0.59766-20.617-1.7266-0.03125-0.003906-3.0508-0.39062-5.4258-1.1523-5.3203-1.3242-9.7227-3.0625-12.738-5.0312l-0.26172-0.17188 0.078125-0.30078c0.73438-2.8242 4.8008-5.6523 11.16-7.7578 7.4414-2.4648 17.312-3.8203 27.801-3.8203 3.6719 0 7.3047 0.16797 10.797 0.5l0.77734 0.074219-3.5039 4.5977-0.23438-0.019531c-1.4922-0.11328-2.9883-0.19531-4.4492-0.24219h-0.027343c-0.48828 0-0.88672 0.38281-0.89844 0.86719-0.007812 0.23828 0.078125 0.46484 0.24219 0.64062zm-33.598-9.9648c8.2383-2.7656 19.215-4.2852 30.898-4.2852 5.6758 0 11.18 0.35547 16.359 1.0586l0.73828 0.10156-4.25 5.5781-0.24219-0.027344c-4.0625-0.44922-8.3047-0.67578-12.602-0.67578-10.676 0-20.746 1.3906-28.363 3.9141-6.4727 2.1406-10.621 4.9141-11.992 8.0117l-0.25391 0.57031-0.44531-0.43359c-1.4258-1.3789-2.1484-2.793-2.1484-4.2031-0.007812-3.4805 4.4766-6.9844 12.301-9.6094zm73.383 15.988c-1.3867 6.4688-4.8594 12.398-10.051 17.156-6.2812 5.7578-14.559 9.1914-22.145 9.1914h-20.621c-7.5469 0-15.82-3.4609-22.129-9.2578-5.1914-4.7695-8.6719-10.684-10.062-17.098l-0.27734-1.2852 0.98828 0.86719c0.61328 0.53516 1.3164 1.0625 2.082 1.5625 3.1602 2.0625 7.7461 3.875 13.258 5.2461 0.027344 0.007812 2.8828 0.72656 5.5312 1.1758 6.3945 1.1484 13.637 1.7578 20.941 1.7578 11.875 0 23.051-1.5547 31.473-4.3789 3.1602-1.0586 7.1914-2.6289 10.301-5.3516l0.98437-0.86328zm-1.4258-2.1562-0.44531 0.43359-0.25391-0.56641c-1.7812-4.0039-8.0625-7.4141-17.688-9.6016l-0.75781-0.17188 5.0156-5.1016 0.24219 0.066406c9.6992 2.5859 15.688 6.4688 16.02 10.383l0.003906 0.050782-0.007812 0.050781c-0.27344 1.8164-0.69531 3.0703-2.1289 4.457zm-41.84-34.977c-0.77734-1.3828-1.7422-3.1055-1.0234-5.1992 0.12109-0.35547 0.33984-0.71875 0.56641-1.1055 0.43359-0.72656 0.87891-1.4766 0.82031-2.3594-0.015625-0.25781 0.050781-0.47266 0.19922-0.63281 0.16406-0.17578 0.43359-0.28125 0.71094-0.28125 0.13672 0 0.82812 0.039062 0.87891 0.79688 0.070312 1.0508-0.32031 1.7852-0.77734 2.6367-0.25 0.47266-0.51172 0.95703-0.70312 1.5273-0.42969 1.2461 0.050781 2.2461 0.89062 3.7422 0.73438 1.3086 1.6445 2.9336 1.1133 4.8789-0.12109 0.44922-0.38672 0.90234-0.66406 1.3828-0.45703 0.78516-0.92578 1.5977-0.86328 2.5391 0.015624 0.26172-0.050782 0.47656-0.19922 0.63672-0.16406 0.17578-0.41406 0.27344-0.69531 0.27344-0.39062 0-0.85938-0.20703-0.89844-0.78906-0.070313-1.0664 0.34766-1.8438 0.78516-2.668 0.30078-0.5625 0.60938-1.1406 0.80078-1.8438 0.32031-1.1602-0.14062-2.1094-0.94141-3.5352zm-9.6133 1.0117c-0.77734-1.3828-1.7422-3.1055-1.0234-5.1992 0.12109-0.35547 0.33984-0.71875 0.56641-1.1055 0.43359-0.72656 0.87891-1.4766 0.82031-2.3594-0.015625-0.25781 0.050781-0.47266 0.19922-0.63281 0.16406-0.17578 0.42969-0.28125 0.71094-0.28125 0.13672 0 0.82812 0.039062 0.87891 0.80078 0.070313 1.0508-0.32031 1.7852-0.77344 2.6367-0.25 0.47266-0.51172 0.95703-0.70703 1.5273-0.42969 1.2461 0.050781 2.2461 0.89062 3.7383 1.4414 2.5703 1.5195 4.5781 0.26562 6.7188-0.45703 0.77734-0.73438 1.293-0.67969 2.0859 0.015625 0.25-0.050781 0.45703-0.19922 0.61328-0.17188 0.18359-0.44141 0.28906-0.72656 0.28906-0.13672 0-0.8125-0.039063-0.86328-0.78906-0.089844-1.3828 0.47266-2.3398 0.92578-3.1094 0.28125-0.48047 0.52344-0.89062 0.66406-1.4023 0.3125-1.1562-0.14844-2.1055-0.94922-3.5312zm19.227 0c-0.77734-1.3828-1.7422-3.1055-1.0234-5.1992 0.12109-0.35547 0.33984-0.71875 0.56641-1.1055 0.43359-0.72656 0.87891-1.4766 0.82031-2.3594-0.015624-0.25781 0.050782-0.47266 0.19922-0.63281 0.16406-0.17578 0.43359-0.28125 0.71094-0.28125 0.13672 0 0.82812 0.039062 0.87891 0.80078 0.070313 1.0508-0.32031 1.7852-0.77734 2.6367-0.25 0.46875-0.50781 0.95703-0.70312 1.5273-0.42969 1.2461 0.050782 2.2461 0.89062 3.7422 0.73438 1.3086 1.6445 2.9336 1.1133 4.8789-0.12109 0.44922-0.38672 0.90234-0.66406 1.3828-0.45312 0.78516-0.92578 1.5977-0.86328 2.5391 0.015625 0.26172-0.050781 0.47656-0.19922 0.63672-0.16406 0.17578-0.41406 0.27344-0.69531 0.27344-0.39063 0-0.85938-0.20703-0.89844-0.78906-0.070312-1.0664 0.34766-1.8438 0.78516-2.668 0.30078-0.55859 0.60938-1.1367 0.80078-1.8438 0.32031-1.1641-0.14063-2.1133-0.94141-3.5391z"/>
</svg>