<svg xmlns="http://www.w3.org/2000/svg" version="1.1" viewBox="-5.0 -10.0 110.0 135.0">
 <path d="m81.797 10.785h-9.3711c-1.3047 0-2.3711 1.0625-2.3711 2.3711v1.6562h-15.852c-0.34766 0-0.70312 0.03125-1.0469 0.097656-12.59 2.4062-19.387 12.656-20.301 14.125l-5.1992-0.003906c-1.5039 0-2.9727 0.59766-4.0273 1.6445-7.4766 7.3906-7.7852 22.309-7.793 22.961v34.215c0 0.66016 0.53516 1.1914 1.1914 1.1914h32.574c0.003907 0 0.007813 0.003906 0.011719 0.003906l13.215 0.16797h0.015625c0.3125 0 0.61328-0.12109 0.83594-0.34375 0.22656-0.22266 0.35547-0.52734 0.35547-0.84766l0.10547-36.805c0.070313-5.0234-1.5664-10.809-3.1562-15.211 2.1211-0.11719 4.6797-0.45703 7.1406-1.2891h1.9297v1.0508c0 1.3086 1.0625 2.3711 2.3711 2.3711h9.3711c1.3047 0 2.3711-1.0625 2.3711-2.3711l-0.003907-22.617c0-1.3047-1.0625-2.3672-2.3672-2.3672zm-63.578 42.867c0-0.14453 0.30859-14.582 7.0859-21.281 0.61328-0.60547 1.4688-0.95312 2.3516-0.95312h18.055l-1.6914 3.3828c-0.48047-0.18359-0.99609-0.28906-1.5195-0.28906h-10.484c-2.332 0-4.2305 1.8984-4.2305 4.2305 0 2.332 1.8984 4.2305 4.2305 4.2305h10.488c0.77344 0 1.5273-0.21094 2.1797-0.60547 1.0195 0.46875 2.0898 0.70703 3.1445 0.70703 0.83594 0 1.6562-0.15625 2.4414-0.42578-1.2383 3.9336-1.8555 7.6211-1.8164 10.988v33.027l-30.234-0.003906zm24.559-16.367c-0.53125 1.0586-0.48828 2.2539-0.007813 3.2539-0.089843 0.011719-0.17188 0.046876-0.26562 0.046876h-10.488c-1.0195 0-1.8477-0.82813-1.8477-1.8477s0.82812-1.8438 1.8477-1.8438h10.488c0.14844 0 0.28906 0.039063 0.43359 0.074219zm10.551 49.426 3.3984-4.6523 2.9766 4.7344zm8.3281-1.2852-3.8516-6.1289c-0.21094-0.33594-0.57422-0.54297-0.96875-0.55859-0.40234-0.035156-0.77344 0.16797-1.0039 0.48828l-4.9961 6.8477v-32.453c-0.046876-3.9766 0.89062-8.457 2.7773-13.32 0.28516-0.35156 0.55078-0.71875 0.77734-1.1328l1.7773-3.2344c0.26172 0.027344 1.0938 0.10156 2.293 0.12109 1.5977 4.2852 3.3672 10.16 3.2969 15.141zm6.2734-53.09c-0.13281 0-0.26563 0.023437-0.39453 0.066406-3.8594 1.3438-8.1484 1.3281-10.102 1.2344l1.8164-3.3047c0.31641-0.57812 0.10547-1.3008-0.46875-1.6211-0.57422-0.31641-1.3008-0.10938-1.6211 0.46875l-4.8594 8.8398c-1.3398 2.4375-4.332 3.3594-6.8086 2.0977-0.64453-0.32813-0.90625-1.1211-0.58203-1.7695l5.7891-11.582c0.29688-0.58984 0.054687-1.3047-0.53516-1.6016-0.58984-0.29297-1.3047-0.054687-1.5977 0.53516l-1.6641 3.3281h-11.141c2.2227-2.9961 8.2891-9.957 17.844-11.785 0.19531-0.039063 0.39844-0.054688 0.59375-0.054688h15.852v15.141zm13.852 3.4219-9.3398 0.015626-0.015625-22.605 9.3555-0.015625z"/>
 <path d="m41.98 56h-18.078c-1.4922 0-2.707 1.2148-2.707 2.707v18.078c0 1.4922 1.2148 2.707 2.707 2.707h18.078c1.4922 0 2.707-1.2148 2.707-2.707v-18.078c0-1.4922-1.2148-2.707-2.707-2.707zm0.32422 20.785c0 0.17578-0.14453 0.32031-0.32031 0.32031l-18.082 0.003906c-0.17969 0-0.32422-0.14453-0.32422-0.32031v-18.078c0-0.17578 0.14453-0.32031 0.32422-0.32031h18.078c0.17578 0 0.32031 0.14453 0.32031 0.32031z"/>
</svg>