<svg xmlns="http://www.w3.org/2000/svg" version="1.1" viewBox="-5.0 -10.0 110.0 135.0">
 <path d="m29.254 81.562c0 4.1133 1.5977 7.9648 4.4961 10.84 2.8984 2.8984 6.7539 4.4961 10.859 4.4961h10.805c4.1133 0 7.9648-1.5977 10.836-4.4922 2.9023-2.8789 4.5-6.7305 4.5-10.844 0-1.2773-0.25-2.6094-0.79297-4.2031-8.5234-24.781-0.125-42.188-0.039062-42.359 0.007812-0.015625 0.011719-0.039062 0.019531-0.054688 0.015625-0.035156 0.023438-0.074218 0.039062-0.10937 0.054688-0.15234 0.085938-0.30469 0.09375-0.46094 0-0.023438 0.015626-0.042969 0.015626-0.066406 0-0.011719-0.007813-0.019532-0.007813-0.03125-0.003906-0.17969-0.039063-0.35156-0.10547-0.51953-0.015625-0.042968-0.039062-0.085937-0.058594-0.125-0.023437-0.046874-0.039062-0.10156-0.066406-0.14844-0.054687-0.085937-0.12109-0.15625-0.1875-0.22656-0.019531-0.019531-0.03125-0.046874-0.054687-0.0625-0.125-0.12109-0.27344-0.21484-0.42969-0.28906-0.039062-0.019531-0.082031-0.035156-0.12109-0.050781-0.17188-0.0625-0.35156-0.10938-0.53906-0.10938h-37.02c-0.1875 0-0.36719 0.046875-0.53906 0.10938-0.039062 0.015625-0.078125 0.03125-0.11719 0.046875-0.16016 0.074218-0.30859 0.16797-0.43359 0.29297-0.015625 0.015626-0.027344 0.035157-0.042969 0.054688-0.070312 0.074219-0.14062 0.14844-0.19531 0.23828-0.03125 0.046875-0.046875 0.10156-0.070313 0.15234-0.019531 0.039063-0.039062 0.074219-0.054687 0.11719-0.066407 0.17188-0.10547 0.34766-0.10547 0.53125 0 0.007813-0.003906 0.015626-0.003906 0.023438 0 0.019531 0.011718 0.039062 0.011718 0.058594 0.007813 0.16406 0.039063 0.32031 0.097657 0.47656 0.011719 0.035156 0.023437 0.070313 0.039062 0.10547 0.007813 0.019531 0.011719 0.039063 0.019531 0.058594 0.085938 0.17188 8.4922 17.492-0.035156 42.34-0.55469 1.5664-0.81641 2.9062-0.81641 4.2188zm36.918-45.695c-0.78906 2.1094-1.8789 5.6211-2.5625 10.281h-27.199c-0.68359-4.6641-1.7734-8.1758-2.5586-10.281zm-33.152 42.508c3.9727-11.574 4.4609-21.523 3.7539-29.102h26.465c-0.71094 7.5742-0.21875 17.523 3.7578 29.094 0.42578 1.2539 0.625 2.2695 0.625 3.1953 0 3.2734-1.2695 6.3359-3.5859 8.6328-2.2891 2.3086-5.3516 3.5781-8.625 3.5781h-10.805c-3.2695 0-6.3398-1.2734-8.6523-3.5859-2.3086-2.2891-3.5781-5.3516-3.5781-8.625 0-0.94531 0.20312-1.9531 0.64062-3.1875z"/>
 <path d="m42.434 23.73c1.0078 1.0117 1.5898 2.4102 1.5898 3.8359v1.6328c0 0.86328 0.69922 1.5625 1.5625 1.5625 0.86328 0 1.5625-0.69922 1.5625-1.5625v-1.6328c0-2.25-0.91406-4.4531-2.5078-6.0469l-1.0469-1.0469c-2.1172-2.1172-2.1172-5.5586 0-7.6758l0.98438-0.98438c1.6172-1.6172 2.5078-3.7656 2.5078-6.0469v-1.0586c0-0.86328-0.69922-1.5625-1.5625-1.5625-0.86328 0-1.5625 0.69922-1.5625 1.5625v1.0586c0 1.4297-0.57813 2.8281-1.5898 3.8359l-0.98438 0.98438c-3.3359 3.3359-3.3359 8.7578 0 12.094l1.0469 1.0469z"/>
 <path d="m53.281 23.73c1.0234 1.0234 1.5898 2.3867 1.5898 3.8359v1.6328c0 0.86328 0.69922 1.5625 1.5625 1.5625 0.86328 0 1.5625-0.69922 1.5625-1.5625v-1.6328c0-2.2852-0.89062-4.4336-2.5078-6.0469l-1.0469-1.0469c-2.1172-2.1172-2.1172-5.5586 0-7.6758l0.98438-0.98438c1.6133-1.6133 2.5039-3.7617 2.5039-6.0469v-1.0586c0-0.86328-0.69922-1.5625-1.5625-1.5625-0.86328 0-1.5625 0.69922-1.5625 1.5625v1.0586c0 1.4492-0.5625 2.8125-1.5898 3.8359l-0.98438 0.98438c-3.3359 3.3359-3.3359 8.7578 0 12.094z"/>
</svg>