<svg xmlns="http://www.w3.org/2000/svg" xmlns:xlink="http://www.w3.org/1999/xlink" version="1.1" x="0px" y="0px" viewBox="0 0 100 125" style="enable-background:new 0 0 100 100;" xml:space="preserve"><path d="M78.341,35.39L67.152,23.367c-0.157-0.168-0.377-0.264-0.607-0.264H45.372L35.19,11.09c-0.005-0.006-0.012-0.01-0.017-0.016  c-2.046-2.483-5.182-3.492-8.197-2.631c-0.016,0.005-0.032,0.01-0.048,0.015c-1.99,0.703-3.557,2.287-4.192,4.239  c-0.598,1.836-0.313,3.741,0.802,5.363c0.007,0.01,0.014,0.02,0.022,0.03c0.104,0.137,0.214,0.268,0.346,0.409l4.085,4.82h-2.681  c-1.966,0-3.7,1.108-4.527,2.892c-0.826,1.784-0.55,3.823,0.721,5.323l8.45,9.97l3.687,43.896c0,0.005,0.002,0.01,0.003,0.015  c0.117,4.186,8.734,6.445,16.848,6.445c8.121,0,16.746-2.262,16.849-6.456c0.001-0.008,0.003-0.015,0.004-0.022l0.841-13.532  c0.174-0.413,0.269-0.845,0.269-1.299c0-0.181-0.06-0.347-0.158-0.484l1.41-22.685c0.135-0.38,0.211-0.774,0.211-1.186  c0-0.149-0.043-0.288-0.112-0.409l0.125-2.009h4.759c2.016,0,3.769-1.148,4.574-2.997C80.068,38.932,79.714,36.867,78.341,35.39z   M68.897,33.637c-0.089,0.794-0.729,1.602-1.831,2.359c-3.275-1.835-8.641-3.059-14.602-3.327c-0.268-0.942-0.697-1.858-1.292-2.716  c-0.012-0.018-0.026-0.035-0.04-0.052c-0.003-0.004-0.005-0.008-0.009-0.012l-2.251-2.656c0.353-0.007,0.706-0.013,1.053-0.013  c11.174,0,18.965,3.27,18.985,6.21L68.897,33.637z M51.61,39.383c0.912-1.595,1.291-3.331,1.155-5.04  c5.024,0.26,9.541,1.209,12.566,2.624c-3.072,1.43-7.941,2.513-13.89,2.672C51.497,39.553,51.556,39.47,51.61,39.383z M24.313,13.21  c0.474-1.457,1.648-2.643,3.143-3.179c2.372-0.667,4.844,0.145,6.458,2.121c0.004,0.005,0.009,0.008,0.013,0.013l12.535,14.789  c0.005,0.006,0.01,0.012,0.015,0.018l0.113,0.133c-1.196-0.249-2.452-0.215-3.681,0.137c-0.015,0.004-0.03,0.009-0.045,0.014  c-0.465,0.162-0.914,0.376-1.335,0.636c-0.009,0.005-0.018,0.011-0.027,0.017c-1.551,0.969-2.647,2.513-3.007,4.238  c-0.06,0.287-0.097,0.575-0.115,0.863L24.885,17.089C24.086,15.908,23.883,14.533,24.313,13.21z M40.829,35.904  c-0.713-1.044-0.958-2.225-0.709-3.416c0.224-1.071,0.835-2.053,1.71-2.773l3.648,4.096c0.766,0.86,0.733,2.167-0.073,2.914  c-0.133,0.123-0.279,0.225-0.434,0.305C43.558,37.646,41.784,37.163,40.829,35.904z M22.288,26.908  c0.56-1.209,1.689-1.93,3.021-1.93h4.087l10.126,11.947c0.001,0.001,0.003,0.002,0.004,0.004c1.438,1.875,4.008,2.554,6.134,1.61  c0.011-0.005,0.023-0.011,0.034-0.016c0.302-0.151,0.584-0.346,0.836-0.58c1.465-1.356,1.549-3.704,0.186-5.234l-3.422-3.842  c0.031-0.012,0.063-0.023,0.095-0.035c2.329-0.658,4.692,0.075,6.322,1.957l0.119,0.141c1.606,2.342,1.733,5.192,0.353,7.607  c-1.38,2.243-3.865,3.583-6.648,3.583H32.65l-1.242-1.466c-0.004-0.005-0.008-0.009-0.012-0.014l-8.627-10.179  C21.907,29.445,21.728,28.116,22.288,26.908z M66.551,71.398c-1.258,2.256-7.361,4.476-15.796,4.613V53.837  c6.833-0.107,13.811-1.535,17.145-4.145L66.551,71.398z M68.068,46.984c-1.227,2.598-8.335,5.2-18.143,5.2  c-0.458,0-0.83,0.371-0.83,0.83v23.834c0,0.458,0.371,0.83,0.83,0.83c6.442,0,13.174-1.285,16.466-3.72l-0.704,11.321  c0,0.008,0.001,0.015,0.001,0.022c0,0.01-0.003,0.019-0.003,0.029c0,2.304-6.24,4.872-15.195,4.872  c-8.954,0-15.194-2.567-15.194-4.872c0-0.013-0.003-0.025-0.004-0.037c0-0.011,0.001-0.021,0.001-0.031l-3.497-41.631  c0.137,0.094,0.299,0.149,0.469,0.149h11.27h24.733L68.068,46.984z M77.741,40.119c-0.421,0.967-1.444,2-3.053,2H49  c0.354-0.243,0.692-0.509,1.009-0.8c7.402-0.01,13.751-1.409,17.363-3.58c0.112-0.041,0.216-0.103,0.303-0.19  c1.69-1.085,2.716-2.35,2.871-3.725c0.017-0.12,0.024-0.242,0.024-0.382c0-2.261-2.257-4.309-6.355-5.768  c-3.83-1.363-8.904-2.113-14.29-2.113c-0.795,0-1.609,0.021-2.424,0.055l-0.724-0.854h19.406l10.943,11.759  C78.222,37.698,78.163,39.151,77.741,40.119z"/></svg>